FiraMono-Bold.sfdir
StartChar: exclam
Encoding: 33 33 984
Width: 600
Flags: W
LayerCount: 2
Fore
SplineSet
364 255 m 1,0,-1
 237 255 l 1,1,-1
 216 693 l 1,2,-1
 384 693 l 1,3,-1
 364 255 l 1,0,-1
364 137.5 m 128,-1,5
 390 111 390 111 390 74 c 0,6,7
 390 36 390 36 364 9.5 c 128,-1,8
 338 -17 338 -17 300 -17 c 0,9,10
 263 -17 263 -17 236.5 9.5 c 128,-1,11
 210 36 210 36 210 74 c 0,12,13
 210 111 210 111 236.5 137.5 c 128,-1,14
 263 164 263 164 300 164 c 0,15,4
 338 164 338 164 364 137.5 c 128,-1,5
EndSplineSet
EndChar
StartChar: numbersign
Encoding: 35 35 986
Width: 600
Flags: W
LayerCount: 2
Fore
SplineSet
466 249 m 1,0,-1
 529 249 l 1,1,-1
 529 145 l 1,2,-1
 452 145 l 1,3,-1
 433 0 l 1,4,-1
 303 0 l 1,5,-1
 322 145 l 1,6,-1
 226 145 l 1,7,-1
 207 0 l 1,8,-1
 77 0 l 1,9,-1
 95 145 l 1,10,-1
 35 145 l 1,11,-1
 35 249 l 1,12,-1
 109 249 l 1,13,-1
 135 446 l 1,14,-1
 72 446 l 1,15,-1
 72 551 l 1,16,-1
 149 551 l 1,17,-1
 167 693 l 1,18,-1
 298 693 l 1,19,-1
 279 551 l 1,20,-1
 375 551 l 1,21,-1
 394 693 l 1,22,-1
 524 693 l 1,23,-1
 505 551 l 1,24,-1
 566 551 l 1,25,-1
 566 446 l 1,26,-1
 491 446 l 1,27,-1
 466 249 l 1,0,-1
335 249 m 1,28,-1
 361 446 l 1,29,-1
 265 446 l 1,30,-1
 239 249 l 1,31,-1
 335 249 l 1,28,-1
EndSplineSet
EndChar
StartChar: dollar
Encoding: 36 36 1057
Width: 600
Flags: W
LayerCount: 2
Fore
SplineSet
349 708 m 1,0,1
 463 698 463 698 546 629 c 1,2,-1
 469 548 l 1,3,4
 416 592 416 592 349 597 c 1,5,-1
 349 422 l 1,6,7
 457 387 457 387 507.5 338.5 c 128,-1,8
 558 290 558 290 558 204 c 256,9,10
 558 118 558 118 503 58.5 c 128,-1,11
 448 -1 448 -1 349 -13 c 1,12,-1
 349 -162 l 1,13,-1
 268 -162 l 1,14,-1
 268 -16 l 1,15,16
 198 -11 198 -11 140 15 c 128,-1,17
 82 41 82 41 42 79 c 1,18,-1
 118 167 l 1,19,20
 153 136 153 136 189 119.5 c 128,-1,21
 225 103 225 103 268 100 c 1,22,-1
 268 308 l 1,23,24
 161 344 161 344 114 392 c 128,-1,25
 67 440 67 440 67 511 c 0,26,27
 67 593 67 593 121 645 c 128,-1,28
 175 697 175 697 268 707 c 1,29,-1
 268 856 l 1,30,-1
 349 856 l 1,31,-1
 349 708 l 1,0,1
223.5 573 m 128,-1,33
 208 555 208 555 208 530 c 0,34,35
 208 503 208 503 219.5 486.5 c 128,-1,36
 231 470 231 470 268 453 c 1,37,-1
 268 596 l 1,38,32
 239 591 239 591 223.5 573 c 128,-1,33
349 103 m 1,39,40
 411 117 411 117 411 185 c 0,41,42
 411 216 411 216 398 237 c 128,-1,43
 385 258 385 258 349 276 c 1,44,-1
 349 103 l 1,39,40
EndSplineSet
EndChar
StartChar: percent
Encoding: 37 37 1102
Width: 600
Flags: W
LayerCount: 2
Fore
SplineSet
509 681 m 1,0,-1
 168 -29 l 1,1,-1
 85 6 l 1,2,-1
 425 716 l 1,3,-1
 509 681 l 1,0,-1
251 668 m 128,-1,5
 289 625 289 625 289 554 c 0,6,7
 289 482 289 482 251 439.5 c 128,-1,8
 213 397 213 397 147 397 c 0,9,10
 79 397 79 397 41 439.5 c 128,-1,11
 3 482 3 482 3 554 c 0,12,13
 3 624 3 624 41.5 667.5 c 128,-1,14
 80 711 80 711 147 711 c 0,15,4
 213 711 213 711 251 668 c 128,-1,5
115 614 m 128,-1,17
 107 595 107 595 107 554 c 0,18,19
 107 515 107 515 115.5 495 c 128,-1,20
 124 475 124 475 147 475 c 256,21,22
 170 475 170 475 178 494 c 128,-1,23
 186 513 186 513 186 554 c 0,24,25
 186 597 186 597 178 615 c 128,-1,26
 170 633 170 633 147 633 c 0,27,16
 123 633 123 633 115 614 c 128,-1,17
558 264.5 m 128,-1,29
 596 222 596 222 596 150 c 256,30,31
 596 78 596 78 558 36 c 128,-1,32
 520 -6 520 -6 454 -6 c 0,33,34
 386 -6 386 -6 348 36 c 128,-1,35
 310 78 310 78 310 150 c 0,36,37
 310 220 310 220 348.5 263.5 c 128,-1,38
 387 307 387 307 454 307 c 0,39,28
 520 307 520 307 558 264.5 c 128,-1,29
422 210.5 m 128,-1,41
 414 191 414 191 414 150 c 0,42,43
 414 112 414 112 422.5 92 c 128,-1,44
 431 72 431 72 454 72 c 256,45,46
 477 72 477 72 485 91 c 128,-1,47
 493 110 493 110 493 150 c 0,48,49
 493 193 493 193 485 211.5 c 128,-1,50
 477 230 477 230 454 230 c 0,51,40
 430 230 430 230 422 210.5 c 128,-1,41
EndSplineSet
EndChar
StartChar: ampersand
Encoding: 38 38 1378
Width: 600
Flags: W
LayerCount: 2
Fore
SplineSet
387 692 m 128,-1,1
 433 674 433 674 473 631 c 1,2,-1
 388 558 l 1,3,4
 365 582 365 582 345 592 c 128,-1,5
 325 602 325 602 297 602 c 0,6,7
 262 602 262 602 243 581 c 128,-1,8
 224 560 224 560 224 523 c 0,9,10
 224 484 224 484 249.5 458.5 c 128,-1,11
 275 433 275 433 316 433 c 2,12,-1
 578 433 l 1,13,-1
 578 332 l 1,14,-1
 512 332 l 1,15,-1
 512 70 l 1,16,17
 476 32 476 32 419.5 7.5 c 128,-1,18
 363 -17 363 -17 281 -17 c 0,19,20
 204 -17 204 -17 149 10.5 c 128,-1,21
 94 38 94 38 65.5 87 c 128,-1,22
 37 136 37 136 37 198 c 0,23,24
 37 278 37 278 76.5 324.5 c 128,-1,25
 116 371 116 371 190 389 c 1,26,-1
 190 393 l 1,27,28
 72 424 72 424 72 543 c 0,29,30
 72 590 72 590 98.5 628 c 128,-1,31
 125 666 125 666 172.5 688 c 128,-1,32
 220 710 220 710 279 710 c 0,33,0
 341 710 341 710 387 692 c 128,-1,1
307 332 m 2,34,35
 251 332 251 332 221.5 296.5 c 128,-1,36
 192 261 192 261 192 210 c 256,37,38
 192 159 192 159 217.5 128.5 c 128,-1,39
 243 98 243 98 290 98 c 0,40,41
 314 98 314 98 334 105.5 c 128,-1,42
 354 113 354 113 366 126 c 1,43,-1
 366 332 l 1,44,-1
 307 332 l 2,34,35
EndSplineSet
EndChar
StartChar: quotesingle
Encoding: 39 39 991
Width: 600
Flags: W
LayerCount: 2
Fore
SplineSet
225 742 m 1,0,-1
 374 742 l 1,1,-1
 356 462 l 1,2,-1
 244 462 l 1,3,-1
 225 742 l 1,0,-1
EndSplineSet
EndChar
StartChar: asterisk
Encoding: 42 42 977
Width: 600
Flags: W
LayerCount: 2
Fore
SplineSet
346 380 m 1,0,-1
 482 444 l 1,1,-1
 523 320 l 1,2,-1
 374 292 l 1,3,-1
 480 183 l 1,4,-1
 371 104 l 1,5,-1
 299 238 l 1,6,-1
 230 103 l 1,7,-1
 121 182 l 1,8,-1
 225 293 l 1,9,-1
 78 320 l 1,10,-1
 117 444 l 1,11,-1
 254 381 l 1,12,-1
 232 531 l 1,13,-1
 367 531 l 1,14,-1
 346 380 l 1,0,-1
EndSplineSet
EndChar
StartChar: plus
Encoding: 43 43 1104
Width: 600
Flags: W
LayerCount: 2
Fore
SplineSet
365 373 m 1,0,-1
 517 373 l 1,1,-1
 517 252 l 1,2,-1
 365 252 l 1,3,-1
 365 96 l 1,4,-1
 234 96 l 1,5,-1
 234 252 l 1,6,-1
 83 252 l 1,7,-1
 83 373 l 1,8,-1
 234 373 l 1,9,-1
 234 529 l 1,10,-1
 365 529 l 1,11,-1
 365 373 l 1,0,-1
EndSplineSet
EndChar
StartChar: comma
Encoding: 44 44 982
Width: 600
Flags: W
LayerCount: 2
Fore
SplineSet
378 175 m 128,-1,1
 409 144 409 144 409 98 c 0,2,3
 409 70 409 70 400 42.5 c 128,-1,4
 391 15 391 15 366 -40 c 2,5,-1
 294 -203 l 1,6,-1
 188 -203 l 1,7,-1
 239 9 l 1,8,9
 217 23 217 23 204.5 46.5 c 128,-1,10
 192 70 192 70 192 99 c 0,11,12
 192 144 192 144 223 175 c 128,-1,13
 254 206 254 206 300 206 c 0,14,0
 347 206 347 206 378 175 c 128,-1,1
EndSplineSet
EndChar
StartChar: hyphen
Encoding: 45 45 1024
Width: 600
Flags: W
LayerCount: 2
Fore
SplineSet
108 374 m 1,0,-1
 492 374 l 1,1,-1
 492 252 l 1,2,-1
 108 252 l 1,3,-1
 108 374 l 1,0,-1
EndSplineSet
EndChar
StartChar: period
Encoding: 46 46 987
Width: 600
Flags: W
LayerCount: 2
Fore
SplineSet
221.5 173 m 128,-1,1
 254 206 254 206 300 206 c 256,2,3
 346 206 346 206 378.5 173 c 128,-1,4
 411 140 411 140 411 95 c 0,5,6
 411 49 411 49 378.5 16 c 128,-1,7
 346 -17 346 -17 300 -17 c 256,8,9
 254 -17 254 -17 221.5 16 c 128,-1,10
 189 49 189 49 189 95 c 0,11,0
 189 140 189 140 221.5 173 c 128,-1,1
EndSplineSet
EndChar
StartChar: slash
Encoding: 47 47 993
Width: 600
Flags: W
LayerCount: 2
Fore
SplineSet
29 -55 m 1,0,-1
 449 817 l 1,1,-1
 571 760 l 1,2,-1
 152 -112 l 1,3,-1
 29 -55 l 1,0,-1
EndSplineSet
EndChar
StartChar: zero
Encoding: 48 48 898
Width: 600
Flags: W
LayerCount: 2
Fore
SplineSet
486.5 616 m 128,-1,1
 550 521 550 521 550 348 c 0,2,3
 550 174 550 174 486.5 78.5 c 128,-1,4
 423 -17 423 -17 300 -17 c 256,5,6
 177 -17 177 -17 113.5 78.5 c 128,-1,7
 50 174 50 174 50 348 c 0,8,9
 50 521 50 521 113.5 616 c 128,-1,10
 177 711 177 711 300 711 c 256,11,0
 423 711 423 711 486.5 616 c 128,-1,1
226.5 538.5 m 128,-1,13
 203 481 203 481 203 348 c 0,14,15
 203 211 203 211 226.5 154 c 128,-1,16
 250 97 250 97 300 97 c 0,17,18
 351 97 351 97 373.5 154 c 128,-1,19
 396 211 396 211 396 348 c 0,20,21
 396 483 396 483 372.5 539.5 c 128,-1,22
 349 596 349 596 300 596 c 0,23,12
 250 596 250 596 226.5 538.5 c 128,-1,13
346 391 m 128,-1,25
 365 372 365 372 365 345 c 0,26,27
 365 317 365 317 346 298 c 128,-1,28
 327 279 327 279 299 279 c 256,29,30
 271 279 271 279 252.5 298 c 128,-1,31
 234 317 234 317 234 345 c 0,32,33
 234 372 234 372 252.5 391 c 128,-1,34
 271 410 271 410 299 410 c 256,35,24
 327 410 327 410 346 391 c 128,-1,25
EndSplineSet
EndChar
StartChar: eight
Encoding: 56 56 906
Width: 600
Flags: W
LayerCount: 2
Fore
SplineSet
504.5 444 m 128,-1,1
 479 409 479 409 423 377 c 1,2,3
 557 309 557 309 557 188 c 0,4,5
 557 133 557 133 527 86 c 128,-1,6
 497 39 497 39 438.5 11 c 128,-1,7
 380 -17 380 -17 297 -17 c 0,8,9
 216 -17 216 -17 158.5 10.5 c 128,-1,10
 101 38 101 38 72 83.5 c 128,-1,11
 43 129 43 129 43 184 c 0,12,13
 43 242 43 242 76.5 286.5 c 128,-1,14
 110 331 110 331 170 357 c 1,15,16
 115 392 115 392 92.5 427.5 c 128,-1,17
 70 463 70 463 70 519 c 0,18,19
 70 577 70 577 100 620.5 c 128,-1,20
 130 664 130 664 182.5 687.5 c 128,-1,21
 235 711 235 711 301 711 c 0,22,23
 368 711 368 711 420 688.5 c 128,-1,24
 472 666 472 666 501 624.5 c 128,-1,25
 530 583 530 583 530 527 c 0,26,0
 530 479 530 479 504.5 444 c 128,-1,1
244 459 m 128,-1,28
 268 435 268 435 321 415 c 1,29,30
 354 439 354 439 367 463 c 128,-1,31
 380 487 380 487 380 518 c 0,32,33
 380 557 380 557 360 580 c 128,-1,34
 340 603 340 603 301 603 c 256,35,36
 262 603 262 603 241 581.5 c 128,-1,37
 220 560 220 560 220 519 c 0,38,27
 220 483 220 483 244 459 c 128,-1,28
385.5 244.5 m 128,-1,40
 372 266 372 266 345 281.5 c 128,-1,41
 318 297 318 297 267 315 c 1,42,43
 201 273 201 273 201 194 c 0,44,45
 201 149 201 149 226.5 122.5 c 128,-1,46
 252 96 252 96 301 96 c 256,47,48
 350 96 350 96 374.5 122.5 c 128,-1,49
 399 149 399 149 399 189 c 0,50,39
 399 223 399 223 385.5 244.5 c 128,-1,40
EndSplineSet
EndChar
StartChar: nine
Encoding: 57 57 907
Width: 600
Flags: W
LayerCount: 2
Fore
SplineSet
485.5 636 m 128,-1,1
 551 561 551 561 551 434 c 0,2,3
 551 301 551 301 506 209 c 128,-1,4
 461 117 461 117 368.5 59 c 128,-1,5
 276 1 276 1 129 -30 c 1,6,-1
 96 81 l 1,7,8
 220 112 220 112 289 163.5 c 128,-1,9
 358 215 358 215 381 296 c 1,10,11
 349 268 349 268 315 253.5 c 128,-1,12
 281 239 281 239 240 239 c 0,13,14
 186 239 186 239 141 267 c 128,-1,15
 96 295 96 295 70 345.5 c 128,-1,16
 44 396 44 396 44 461 c 0,17,18
 44 535 44 535 77 591.5 c 128,-1,19
 110 648 110 648 167 679.5 c 128,-1,20
 224 711 224 711 296 711 c 0,21,0
 420 711 420 711 485.5 636 c 128,-1,1
226.5 378 m 128,-1,23
 250 350 250 350 289 350 c 0,24,25
 340 350 340 350 388 390 c 1,26,27
 389 465 389 465 381.5 509 c 128,-1,28
 374 553 374 553 354 575.5 c 128,-1,29
 334 598 334 598 295 598 c 0,30,31
 251 598 251 598 227 565.5 c 128,-1,32
 203 533 203 533 203 466 c 0,33,22
 203 406 203 406 226.5 378 c 128,-1,23
EndSplineSet
EndChar
StartChar: colon
Encoding: 58 58 981
Width: 600
Flags: W
LayerCount: 2
Fore
SplineSet
225.5 508 m 128,-1,1
 256 539 256 539 300 539 c 256,2,3
 344 539 344 539 374 508 c 128,-1,4
 404 477 404 477 404 434 c 256,5,6
 404 391 404 391 374 360.5 c 128,-1,7
 344 330 344 330 300 330 c 256,8,9
 256 330 256 330 225.5 360.5 c 128,-1,10
 195 391 195 391 195 434 c 256,11,0
 195 477 195 477 225.5 508 c 128,-1,1
225.5 161.5 m 128,-1,13
 256 192 256 192 300 192 c 256,14,15
 344 192 344 192 374 161.5 c 128,-1,16
 404 131 404 131 404 89 c 0,17,18
 404 45 404 45 374 14 c 128,-1,19
 344 -17 344 -17 300 -17 c 256,20,21
 256 -17 256 -17 225.5 14 c 128,-1,22
 195 45 195 45 195 89 c 0,23,12
 195 131 195 131 225.5 161.5 c 128,-1,13
EndSplineSet
EndChar
StartChar: less
Encoding: 60 60 1092
Width: 600
Flags: W
LayerCount: 2
Fore
SplineSet
531 504 m 1,0,-1
 206 314 l 1,1,-1
 531 128 l 1,2,-1
 459 15 l 1,3,-1
 70 257 l 1,4,-1
 70 370 l 1,5,-1
 461 613 l 1,6,-1
 531 504 l 1,0,-1
EndSplineSet
EndChar
StartChar: question
Encoding: 63 63 988
Width: 600
Flags: W
LayerCount: 2
Fore
SplineSet
421 688 m 128,-1,1
 473 665 473 665 499.5 627 c 128,-1,2
 526 589 526 589 526 543 c 0,3,4
 526 502 526 502 511.5 473 c 128,-1,5
 497 444 497 444 476 425.5 c 128,-1,6
 455 407 455 407 421 384 c 0,7,8
 380 357 380 357 360 334.5 c 128,-1,9
 340 312 340 312 340 276 c 2,10,-1
 340 255 l 1,11,-1
 196 255 l 1,12,-1
 196 281 l 2,13,14
 196 328 196 328 211 360 c 128,-1,15
 226 392 226 392 247 411.5 c 128,-1,16
 268 431 268 431 300 453 c 256,17,18
 332 475 332 475 346.5 490.5 c 128,-1,19
 361 506 361 506 361 529 c 0,20,21
 361 556 361 556 339 571 c 128,-1,22
 317 586 317 586 281 586 c 0,23,24
 247 586 247 586 215 570.5 c 128,-1,25
 183 555 183 555 156 525 c 1,26,-1
 56 603 l 1,27,28
 148 711 148 711 296 711 c 0,29,0
 369 711 369 711 421 688 c 128,-1,1
334 137.5 m 128,-1,31
 361 111 361 111 361 74 c 256,32,33
 361 37 361 37 334.5 10 c 128,-1,34
 308 -17 308 -17 270 -17 c 0,35,36
 233 -17 233 -17 206.5 9.5 c 128,-1,37
 180 36 180 36 180 74 c 0,38,39
 180 111 180 111 206.5 137.5 c 128,-1,40
 233 164 233 164 270 164 c 256,41,30
 307 164 307 164 334 137.5 c 128,-1,31
EndSplineSet
EndChar
StartChar: at
Encoding: 64 64 1377
Width: 600
Flags: W
LayerCount: 2
Fore
SplineSet
527.5 603.5 m 128,-1,1
 599 496 599 496 599 296 c 0,2,3
 599 162 599 162 585.5 78 c 128,-1,4
 572 -6 572 -6 537.5 -50 c 128,-1,5
 503 -94 503 -94 441 -94 c 0,6,7
 387 -94 387 -94 357.5 -55.5 c 128,-1,8
 328 -17 328 -17 321 44 c 1,9,-1
 317 44 l 1,10,11
 299 3 299 3 263 -23 c 128,-1,12
 227 -49 227 -49 177 -49 c 0,13,14
 93 -49 93 -49 54 13 c 128,-1,15
 15 75 15 75 15 179 c 0,16,17
 15 306 15 306 68.5 377 c 128,-1,18
 122 448 122 448 228 448 c 0,19,20
 269 448 269 448 312.5 437 c 128,-1,21
 356 426 356 426 396 404 c 1,22,-1
 396 104 l 2,23,24
 396 50 396 50 405.5 27 c 128,-1,25
 415 4 415 4 436 4 c 0,26,27
 455 4 455 4 464 31 c 128,-1,28
 473 58 473 58 475.5 114.5 c 128,-1,29
 478 171 478 171 478 287 c 0,30,31
 478 398 478 398 461 468.5 c 128,-1,32
 444 539 444 539 400.5 576 c 128,-1,33
 357 613 357 613 279 613 c 0,34,35
 223 613 223 613 170 591.5 c 128,-1,36
 117 570 117 570 61 521 c 1,37,-1
 -2 595 l 1,38,39
 66 655 66 655 135.5 683 c 128,-1,40
 205 711 205 711 287 711 c 0,41,0
 456 711 456 711 527.5 603.5 c 128,-1,1
183.5 333 m 128,-1,43
 169 317 169 317 163 281 c 128,-1,44
 157 245 157 245 157 179 c 0,45,46
 157 109 157 109 167.5 79.5 c 128,-1,47
 178 50 178 50 206 50 c 0,48,49
 235 50 235 50 247 70 c 128,-1,50
 259 90 259 90 263 121 c 1,51,-1
 263 340 l 1,52,53
 245 349 245 349 225 349 c 0,54,42
 198 349 198 349 183.5 333 c 128,-1,43
EndSplineSet
EndChar
StartChar: D
Encoding: 68 68 23
Width: 600
Flags: W
LayerCount: 2
Fore
SplineSet
239 0 m 2,1,-1
 52 0 l 1,2,-1
 52 693 l 1,3,-1
 227 693 l 2,4,5
 384 693 384 693 479 619.5 c 128,-1,6
 574 546 574 546 574 350 c 0,7,0
 574 0 574 0 239 0 c 2,1,-1
365 526.5 m 128,-1,9
 325 574 325 574 251 574 c 2,10,-1
 216 574 l 1,11,-1
 216 119 l 1,12,-1
 251 119 l 2,13,14
 326 119 326 119 365.5 170.5 c 128,-1,15
 405 222 405 222 405 350 c 0,16,8
 405 479 405 479 365 526.5 c 128,-1,9
EndSplineSet
EndChar
StartChar: F
Encoding: 70 70 37
Width: 600
Flags: W
LayerCount: 2
Fore
SplineSet
273 393 m 1,0,-1
 515 393 l 1,1,-1
 515 275 l 1,2,-1
 273 275 l 1,3,-1
 273 0 l 1,4,-1
 108 0 l 1,5,-1
 108 693 l 1,6,-1
 563 693 l 1,7,-1
 547 576 l 1,8,-1
 273 576 l 1,9,-1
 273 393 l 1,0,-1
EndSplineSet
EndChar
StartChar: G
Encoding: 71 71 38
Width: 600
Flags: W
LayerCount: 2
Fore
SplineSet
100.5 76.5 m 128,-1,1
 23 170 23 170 23 348 c 0,2,3
 23 463 23 463 65 545 c 128,-1,4
 107 627 107 627 180.5 669 c 128,-1,5
 254 711 254 711 345 711 c 0,6,7
 416 711 416 711 468.5 688.5 c 128,-1,8
 521 666 521 666 565 625 c 1,9,-1
 479 536 l 1,10,11
 446 565 446 565 417.5 578 c 128,-1,12
 389 591 389 591 353 591 c 0,13,14
 278 591 278 591 235 531.5 c 128,-1,15
 192 472 192 472 192 347 c 0,16,17
 192 213 192 213 224 158 c 128,-1,18
 256 103 256 103 327 103 c 0,19,20
 374 103 374 103 413 124 c 1,21,-1
 413 283 l 1,22,-1
 326 283 l 1,23,-1
 310 397 l 1,24,-1
 568 397 l 1,25,-1
 568 53 l 1,26,27
 454 -17 454 -17 326 -17 c 0,28,0
 178 -17 178 -17 100.5 76.5 c 128,-1,1
EndSplineSet
EndChar
StartChar: J
Encoding: 74 74 57
Width: 600
Flags: W
LayerCount: 2
Fore
SplineSet
527 249 m 2,0,1
 527 127 527 127 453.5 56 c 128,-1,2
 380 -15 380 -15 248 -15 c 0,3,4
 184 -15 184 -15 135.5 1 c 128,-1,5
 87 17 87 17 39 50 c 1,6,-1
 101 151 l 1,7,8
 137 127 137 127 168 117 c 128,-1,9
 199 107 199 107 239 107 c 0,10,11
 294 107 294 107 328.5 142.5 c 128,-1,12
 363 178 363 178 363 248 c 2,13,-1
 363 573 l 1,14,-1
 151 573 l 1,15,-1
 151 693 l 1,16,-1
 527 693 l 1,17,-1
 527 249 l 2,0,1
EndSplineSet
EndChar
StartChar: L
Encoding: 76 76 61
Width: 600
Flags: W
LayerCount: 2
Fore
SplineSet
93 693 m 1,0,-1
 257 693 l 1,1,-1
 257 130 l 1,2,-1
 557 130 l 1,3,-1
 541 0 l 1,4,-1
 93 0 l 1,5,-1
 93 693 l 1,0,-1
EndSplineSet
EndChar
StartChar: Q
Encoding: 81 81 88
Width: 600
Flags: W
LayerCount: 2
Fore
SplineSet
429 40 m 1,1,2
 513 26 513 26 559.5 -10 c 128,-1,3
 606 -46 606 -46 634 -127 c 1,4,-1
 500 -173 l 1,5,6
 476 -116 476 -116 451 -82.5 c 128,-1,7
 426 -49 426 -49 387.5 -31.5 c 128,-1,8
 349 -14 349 -14 290 -14 c 0,9,10
 162 -14 162 -14 97 80.5 c 128,-1,11
 32 175 32 175 32 347 c 0,12,13
 32 517 32 517 101 614 c 128,-1,14
 170 711 170 711 303 711 c 0,15,16
 437 711 437 711 505.5 615 c 128,-1,17
 574 519 574 519 574 347 c 0,18,0
 574 114 574 114 429 40 c 1,1,2
395 487.5 m 128,-1,20
 386 540 386 540 364 565 c 128,-1,21
 342 590 342 590 303 590 c 256,22,23
 264 590 264 590 242 564.5 c 128,-1,24
 220 539 220 539 211 486.5 c 128,-1,25
 202 434 202 434 202 347 c 0,26,27
 202 217 202 217 224.5 160 c 128,-1,28
 247 103 247 103 303 103 c 0,29,30
 343 103 343 103 364.5 128.5 c 128,-1,31
 386 154 386 154 395 206.5 c 128,-1,32
 404 259 404 259 404 347 c 256,33,19
 404 435 404 435 395 487.5 c 128,-1,20
EndSplineSet
EndChar
StartChar: R
Encoding: 82 82 89
Width: 600
Flags: W
LayerCount: 2
Fore
SplineSet
523.5 364.5 m 128,-1,1
 486 317 486 317 423 292 c 1,2,-1
 604 0 l 1,3,-1
 418 0 l 1,4,-1
 268 265 l 1,5,-1
 222 265 l 1,6,-1
 222 0 l 1,7,-1
 58 0 l 1,8,-1
 58 693 l 1,9,-1
 276 693 l 2,10,11
 419 693 419 693 490 641 c 128,-1,12
 561 589 561 589 561 482 c 0,13,0
 561 412 561 412 523.5 364.5 c 128,-1,1
363.5 555 m 128,-1,15
 335 578 335 578 276 578 c 2,16,-1
 222 578 l 1,17,-1
 222 378 l 1,18,-1
 283 378 l 2,19,20
 337 378 337 378 364.5 403 c 128,-1,21
 392 428 392 428 392 482 c 0,22,14
 392 532 392 532 363.5 555 c 128,-1,15
EndSplineSet
EndChar
StartChar: V
Encoding: 86 86 115
Width: 600
Flags: W
LayerCount: 2
Fore
SplineSet
433 693 m 1,0,-1
 601 693 l 1,1,-1
 401 0 l 1,2,-1
 199 0 l 1,3,-1
 0 693 l 1,4,-1
 174 693 l 1,5,-1
 303 128 l 1,6,-1
 433 693 l 1,0,-1
EndSplineSet
EndChar
StartChar: X
Encoding: 88 88 121
Width: 600
Flags: W
LayerCount: 2
Fore
SplineSet
196 693 m 1,0,-1
 300 471 l 1,1,-1
 407 693 l 1,2,-1
 580 693 l 1,3,-1
 396 375 l 1,4,-1
 597 0 l 1,5,-1
 420 0 l 1,6,-1
 298 264 l 1,7,-1
 178 0 l 1,8,-1
 4 0 l 1,9,-1
 200 368 l 1,10,-1
 19 693 l 1,11,-1
 196 693 l 1,0,-1
EndSplineSet
EndChar
StartChar: bracketleft
Encoding: 91 91 1004
Width: 600
Flags: W
LayerCount: 2
Fore
SplineSet
156 823 m 1,0,-1
 464 823 l 1,1,-1
 464 705 l 1,2,-1
 305 705 l 1,3,-1
 305 -6 l 1,4,-1
 464 -6 l 1,5,-1
 464 -123 l 1,6,-1
 156 -123 l 1,7,-1
 156 823 l 1,0,-1
EndSplineSet
EndChar
StartChar: backslash
Encoding: 92 92 978
Width: 600
Flags: W
LayerCount: 2
Fore
SplineSet
152 817 m 1,0,-1
 571 -55 l 1,1,-1
 448 -112 l 1,2,-1
 29 760 l 1,3,-1
 152 817 l 1,0,-1
EndSplineSet
EndChar
StartChar: bracketright
Encoding: 93 93 1005
Width: 600
Flags: W
LayerCount: 2
Fore
SplineSet
444 -123 m 1,0,-1
 136 -123 l 1,1,-1
 136 -5 l 1,2,-1
 295 -5 l 1,3,-1
 295 705 l 1,4,-1
 136 705 l 1,5,-1
 136 823 l 1,6,-1
 444 823 l 1,7,-1
 444 -123 l 1,0,-1
EndSplineSet
EndChar
StartChar: asciicircum
Encoding: 94 94 1388
Width: 600
Flags: W
LayerCount: 2
Fore
SplineSet
561 527 m 1,0,-1
 407 527 l 1,1,-1
 299 726 l 1,2,-1
 195 527 l 1,3,-1
 39 527 l 1,4,-1
 228 844 l 1,5,-1
 372 844 l 1,6,-1
 561 527 l 1,0,-1
EndSplineSet
EndChar
StartChar: underscore
Encoding: 95 95 995
Width: 600
Flags: W
LayerCount: 2
Fore
SplineSet
50 -62 m 1,0,-1
 550 -62 l 1,1,-1
 550 -186 l 1,2,-1
 50 -186 l 1,3,-1
 50 -62 l 1,0,-1
EndSplineSet
EndChar
StartChar: f
Encoding: 102 102 169
Width: 600
Flags: W
LayerCount: 2
Fore
SplineSet
590 725 m 1,1,-1
 546 622 l 1,2,3
 495 642 495 642 433 642 c 0,4,5
 386 642 386 642 365.5 625 c 128,-1,6
 345 608 345 608 345 569 c 2,7,-1
 345 498 l 1,8,-1
 518 498 l 1,9,-1
 500 388 l 1,10,-1
 345 388 l 1,11,-1
 345 0 l 1,12,-1
 188 0 l 1,13,-1
 188 388 l 1,14,-1
 76 388 l 1,15,-1
 76 498 l 1,16,-1
 188 498 l 1,17,-1
 188 574 l 2,18,19
 188 656 188 656 245.5 707.5 c 128,-1,20
 303 759 303 759 408 759 c 0,21,0
 510 759 510 759 590 725 c 1,1,-1
EndSplineSet
EndChar
StartChar: i
Encoding: 105 105 178
Width: 600
Flags: W
LayerCount: 2
Fore
SplineSet
366 783.5 m 128,-1,1
 392 758 392 758 392 720 c 0,2,3
 392 681 392 681 366 656 c 128,-1,4
 340 631 340 631 299 631 c 256,5,6
 258 631 258 631 231.5 656.5 c 128,-1,7
 205 682 205 682 205 720 c 256,8,9
 205 758 205 758 231.5 783.5 c 128,-1,10
 258 809 258 809 299 809 c 256,11,0
 340 809 340 809 366 783.5 c 128,-1,1
394 108 m 1,12,-1
 530 108 l 1,13,-1
 530 0 l 1,14,-1
 86 0 l 1,15,-1
 86 108 l 1,16,-1
 236 108 l 1,17,-1
 236 423 l 1,18,-1
 91 423 l 1,19,-1
 91 531 l 1,20,-1
 394 531 l 1,21,-1
 394 108 l 1,12,-1
EndSplineSet
EndChar
StartChar: k
Encoding: 107 107 193
Width: 600
Flags: W
LayerCount: 2
Fore
SplineSet
228 0 m 1,0,-1
 70 0 l 1,1,-1
 70 742 l 1,2,-1
 228 759 l 1,3,-1
 228 0 l 1,0,-1
399 296 m 1,4,-1
 588 0 l 1,5,-1
 408 0 l 1,6,-1
 234 291 l 1,7,-1
 409 531 l 1,8,-1
 574 531 l 1,9,-1
 399 296 l 1,4,-1
EndSplineSet
EndChar
StartChar: m
Encoding: 109 109 202
Width: 600
Flags: W
LayerCount: 2
Fore
SplineSet
546.5 511.5 m 128,-1,1
 573 474 573 474 573 393 c 2,2,-1
 573 0 l 1,3,-1
 438 0 l 1,4,-1
 438 375 l 2,5,6
 438 404 438 404 432.5 415 c 128,-1,7
 427 426 427 426 412 426 c 0,8,9
 384 426 384 426 357 391 c 1,10,-1
 357 0 l 1,11,-1
 245 0 l 1,12,-1
 245 375 l 2,13,14
 245 404 245 404 239.5 415 c 128,-1,15
 234 426 234 426 219 426 c 0,16,17
 191 426 191 426 164 391 c 1,18,-1
 164 0 l 1,19,-1
 27 0 l 1,20,-1
 27 531 l 1,21,-1
 142 531 l 1,22,-1
 153 480 l 1,23,24
 179 516 179 516 204.5 532.5 c 128,-1,25
 230 549 230 549 264 549 c 0,26,27
 295 549 295 549 316 533.5 c 128,-1,28
 337 518 337 518 346 486 c 1,29,30
 400 549 400 549 463 549 c 0,31,0
 520 549 520 549 546.5 511.5 c 128,-1,1
EndSplineSet
EndChar
StartChar: n
Encoding: 110 110 203
Width: 600
Flags: W
LayerCount: 2
Fore
SplineSet
70 531 m 1,0,-1
 208 531 l 1,1,-1
 219 470 l 1,2,3
 255 510 255 510 294.5 529.5 c 128,-1,4
 334 549 334 549 384 549 c 0,5,6
 453 549 453 549 491.5 507 c 128,-1,7
 530 465 530 465 530 390 c 2,8,-1
 530 0 l 1,9,-1
 372 0 l 1,10,-1
 372 344 l 2,11,12
 372 394 372 394 361 413 c 128,-1,13
 350 432 350 432 321 432 c 0,14,15
 297 432 297 432 274.5 416.5 c 128,-1,16
 252 401 252 401 228 371 c 1,17,-1
 228 0 l 1,18,-1
 70 0 l 1,19,-1
 70 531 l 1,0,-1
EndSplineSet
EndChar
StartChar: p
Encoding: 112 112 222
Width: 600
Flags: W
LayerCount: 2
Fore
SplineSet
511 475.5 m 128,-1,1
 558 402 558 402 558 267 c 0,2,3
 558 185 558 185 533.5 120.5 c 128,-1,4
 509 56 509 56 463 19.5 c 128,-1,5
 417 -17 417 -17 354 -17 c 0,6,7
 277 -17 277 -17 228 38 c 1,8,-1
 228 -205 l 1,9,-1
 70 -222 l 1,10,-1
 70 531 l 1,11,-1
 210 531 l 1,12,-1
 217 472 l 1,13,14
 248 511 248 511 286.5 530 c 128,-1,15
 325 549 325 549 364 549 c 0,16,0
 464 549 464 549 511 475.5 c 128,-1,1
228 370 m 1,18,-1
 228 146 l 1,19,20
 245 122 245 122 263.5 110.5 c 128,-1,21
 282 99 282 99 306 99 c 0,22,23
 350 99 350 99 372.5 138.5 c 128,-1,24
 395 178 395 178 395 265 c 0,25,26
 395 359 395 359 375 395.5 c 128,-1,27
 355 432 355 432 315 432 c 0,28,17
 265 432 265 432 228 370 c 1,18,-1
EndSplineSet
EndChar
StartChar: q
Encoding: 113 113 224
Width: 600
Flags: W
LayerCount: 2
Fore
SplineSet
327.5 533.5 m 128,-1,1
 361 518 361 518 385 488 c 1,2,-1
 392 531 l 1,3,-1
 530 531 l 1,4,-1
 530 -222 l 1,5,-1
 372 -205 l 1,6,-1
 372 45 l 1,7,8
 320 -17 320 -17 236 -17 c 0,9,10
 137 -17 137 -17 89.5 58 c 128,-1,11
 42 133 42 133 42 267 c 0,12,13
 42 349 42 349 67 413 c 128,-1,14
 92 477 92 477 140 513 c 128,-1,15
 188 549 188 549 255 549 c 0,16,0
 294 549 294 549 327.5 533.5 c 128,-1,1
228 393 m 128,-1,18
 205 353 205 353 205 266 c 0,19,20
 205 173 205 173 225.5 136.5 c 128,-1,21
 246 100 246 100 286 100 c 0,22,23
 337 100 337 100 372 160 c 1,24,-1
 372 389 l 1,25,26
 356 411 356 411 337.5 422 c 128,-1,27
 319 433 319 433 296 433 c 0,28,17
 251 433 251 433 228 393 c 128,-1,18
EndSplineSet
EndChar
StartChar: r
Encoding: 114 114 225
Width: 600
Flags: W
LayerCount: 2
Fore
SplineSet
563 531 m 1,1,-1
 534 309 l 1,2,-1
 434 309 l 1,3,-1
 434 407 l 1,4,5
 390 399 390 399 356 359 c 128,-1,6
 322 319 322 319 303 258 c 1,7,-1
 303 106 l 1,8,-1
 408 106 l 1,9,-1
 408 0 l 1,10,-1
 75 0 l 1,11,-1
 75 106 l 1,12,-1
 145 106 l 1,13,-1
 145 426 l 1,14,-1
 75 426 l 1,15,-1
 75 531 l 1,16,-1
 266 531 l 1,17,-1
 294 412 l 1,18,19
 323 480 323 480 367 513.5 c 128,-1,20
 411 547 411 547 475 547 c 0,21,0
 523 547 523 547 563 531 c 1,1,-1
EndSplineSet
EndChar
StartChar: v
Encoding: 118 118 252
Width: 600
Flags: W
LayerCount: 2
Fore
SplineSet
394 0 m 1,0,-1
 208 0 l 1,1,-1
 29 531 l 1,2,-1
 200 531 l 1,3,-1
 303 121 l 1,4,-1
 411 531 l 1,5,-1
 571 531 l 1,6,-1
 394 0 l 1,0,-1
EndSplineSet
EndChar
StartChar: y
Encoding: 121 121 259
Width: 600
Flags: W
LayerCount: 2
Fore
SplineSet
395 0 m 2,0,1
 359 -107 359 -107 288 -161.5 c 128,-1,2
 217 -216 217 -216 98 -223 c 1,3,-1
 80 -111 l 1,4,5
 156 -101 156 -101 192.5 -77 c 128,-1,6
 229 -53 229 -53 251 0 c 1,7,-1
 196 0 l 1,8,-1
 28 531 l 1,9,-1
 195 531 l 1,10,-1
 298 101 l 1,11,-1
 410 531 l 1,12,-1
 572 531 l 1,13,-1
 395 0 l 2,0,1
EndSplineSet
EndChar
StartChar: z
Encoding: 122 122 264
Width: 600
Flags: W
LayerCount: 2
Fore
SplineSet
524 120 m 1,0,-1
 509 0 l 1,1,-1
 72 0 l 1,2,-1
 72 112 l 1,3,-1
 336 412 l 1,4,-1
 94 412 l 1,5,-1
 94 531 l 1,6,-1
 519 531 l 1,7,-1
 519 420 l 1,8,-1
 259 120 l 1,9,-1
 524 120 l 1,0,-1
EndSplineSet
EndChar
StartChar: braceleft
Encoding: 123 123 1002
Width: 600
Flags: W
LayerCount: 2
Fore
SplineSet
467 730 m 1,0,1
 417 730 417 730 393.5 716.5 c 128,-1,2
 370 703 370 703 374 667 c 2,3,-1
 389 519 l 2,4,5
 390 510 390 510 390 494 c 0,6,7
 390 428 390 428 349.5 394.5 c 128,-1,8
 309 361 309 361 234 350 c 1,9,10
 313 338 313 338 352 306 c 128,-1,11
 391 274 391 274 391 208 c 0,12,13
 391 201 391 201 389 181 c 2,14,-1
 374 33 l 2,15,16
 370 -2 370 -2 394 -16 c 128,-1,17
 418 -30 418 -30 467 -30 c 1,18,-1
 467 -140 l 1,19,20
 339 -140 339 -140 282.5 -105 c 128,-1,21
 226 -70 226 -70 226 12 c 0,22,23
 226 22 226 22 228 44 c 2,24,-1
 243 188 l 1,25,-1
 244 201 l 1,26,27
 244 247 244 247 207.5 266.5 c 128,-1,28
 171 286 171 286 105 286 c 1,29,-1
 105 414 l 1,30,31
 244 414 244 414 244 499 c 1,32,-1
 243 512 l 1,33,-1
 228 655 l 2,34,35
 226 679 226 679 226 689 c 0,36,37
 226 771 226 771 283 805.5 c 128,-1,38
 340 840 340 840 467 840 c 1,39,-1
 467 730 l 1,0,1
EndSplineSet
EndChar
StartChar: bar
Encoding: 124 124 1375
Width: 600
Flags: W
LayerCount: 2
Fore
SplineSet
373 -105 m 1,0,-1
 226 -105 l 1,1,-1
 226 810 l 1,2,-1
 373 810 l 1,3,-1
 373 -105 l 1,0,-1
EndSplineSet
EndChar
StartChar: exclamdown
Encoding: 161 161 985
Width: 600
Flags: W
LayerCount: 2
Fore
SplineSet
364 485 m 128,-1,1
 390 458 390 458 390 420 c 0,2,3
 390 384 390 384 364 357.5 c 128,-1,4
 338 331 338 331 300 331 c 0,5,6
 263 331 263 331 236.5 357.5 c 128,-1,7
 210 384 210 384 210 420 c 0,8,9
 210 458 210 458 236.5 485 c 128,-1,10
 263 512 263 512 300 512 c 0,11,0
 338 512 338 512 364 485 c 128,-1,1
385 -205 m 1,12,-1
 216 -205 l 1,13,-1
 237 240 l 1,14,-1
 363 240 l 1,15,-1
 385 -205 l 1,12,-1
EndSplineSet
EndChar
StartChar: brokenbar
Encoding: 166 166 1376
Width: 600
Flags: W
LayerCount: 2
Fore
SplineSet
373 446 m 1,0,-1
 226 446 l 1,1,-1
 226 810 l 1,2,-1
 373 810 l 1,3,-1
 373 446 l 1,0,-1
373 -105 m 1,4,-1
 226 -105 l 1,5,-1
 226 259 l 1,6,-1
 373 259 l 1,7,-1
 373 -105 l 1,4,-1
EndSplineSet
EndChar
StartChar: ordfeminine
Encoding: 170 170 275
Width: 600
Flags: W
LayerCount: 2
Fore
SplineSet
437 721 m 128,-1,1
 482 683 482 683 482 606 c 2,2,-1
 482 442 l 2,3,4
 482 421 482 421 489 410 c 128,-1,5
 496 399 496 399 512 394 c 1,6,-1
 482 306 l 1,7,8
 438 311 438 311 411.5 324 c 128,-1,9
 385 337 385 337 370 364 c 1,10,11
 345 335 345 335 310.5 319.5 c 128,-1,12
 276 304 276 304 236 304 c 0,13,14
 168 304 168 304 126 342.5 c 128,-1,15
 84 381 84 381 84 443 c 0,16,17
 84 512 84 512 141 551 c 128,-1,18
 198 590 198 590 301 590 c 2,19,-1
 354 590 l 1,20,-1
 354 602 l 2,21,22
 354 636 354 636 335.5 648.5 c 128,-1,23
 317 661 317 661 271 661 c 0,24,25
 250 661 250 661 218.5 655 c 128,-1,26
 187 649 187 649 154 638 c 1,27,-1
 121 728 l 1,28,29
 165 743 165 743 210 751 c 128,-1,30
 255 759 255 759 291 759 c 0,31,0
 392 759 392 759 437 721 c 128,-1,1
322 507 m 2,32,33
 270 507 270 507 248 493 c 128,-1,34
 226 479 226 479 226 448 c 0,35,36
 226 397 226 397 276 397 c 0,37,38
 298 397 298 397 318.5 409.5 c 128,-1,39
 339 422 339 422 354 444 c 1,40,-1
 354 507 l 1,41,-1
 322 507 l 2,32,33
514 0 m 1,42,-1
 100 0 l 1,43,-1
 100 108 l 1,44,-1
 514 108 l 1,45,-1
 514 0 l 1,42,-1
EndSplineSet
EndChar
StartChar: logicalnot
Encoding: 172 172 1094
Width: 600
Flags: W
LayerCount: 2
Fore
SplineSet
517 104 m 1,0,-1
 387 104 l 1,1,-1
 387 258 l 1,2,-1
 83 258 l 1,3,-1
 83 379 l 1,4,-1
 517 379 l 1,5,-1
 517 104 l 1,0,-1
EndSplineSet
EndChar
StartChar: uni00AD
Encoding: 173 173 1025
Width: 600
Flags: W
LayerCount: 2
Fore
SplineSet
135 374 m 1,0,-1
 465 374 l 1,1,-1
 465 252 l 1,2,-1
 135 252 l 1,3,-1
 135 374 l 1,0,-1
EndSplineSet
EndChar
StartChar: registered
Encoding: 174 174 1381
Width: 600
Flags: W
LayerCount: 2
Fore
SplineSet
440.5 723 m 128,-1,1
 503 687 503 687 538.5 624 c 128,-1,2
 574 561 574 561 574 484 c 0,3,4
 574 408 574 408 538.5 346 c 128,-1,5
 503 284 503 284 440.5 248 c 128,-1,6
 378 212 378 212 301 212 c 0,7,8
 223 212 223 212 160 248 c 128,-1,9
 97 284 97 284 61 346 c 128,-1,10
 25 408 25 408 25 484 c 0,11,12
 25 561 25 561 61 624 c 128,-1,13
 97 687 97 687 160 723 c 128,-1,14
 223 759 223 759 301 759 c 0,15,0
 378 759 378 759 440.5 723 c 128,-1,1
199 664.5 m 128,-1,17
 154 637 154 637 128 589.5 c 128,-1,18
 102 542 102 542 102 484 c 256,19,20
 102 426 102 426 128 379.5 c 128,-1,21
 154 333 154 333 199 306 c 128,-1,22
 244 279 244 279 301 279 c 0,23,24
 357 279 357 279 402 306 c 128,-1,25
 447 333 447 333 472 379.5 c 128,-1,26
 497 426 497 426 497 484 c 256,27,28
 497 542 497 542 472 589.5 c 128,-1,29
 447 637 447 637 402 664.5 c 128,-1,30
 357 692 357 692 301 692 c 0,31,16
 244 692 244 692 199 664.5 c 128,-1,17
414 547 m 0,33,34
 414 519 414 519 398.5 499 c 128,-1,35
 383 479 383 479 356 469 c 1,36,-1
 433 351 l 1,37,-1
 350 351 l 1,38,-1
 288 454 l 1,39,-1
 265 454 l 1,40,-1
 265 351 l 1,41,-1
 193 351 l 1,42,-1
 193 635 l 1,43,-1
 280 635 l 2,44,32
 414 635 414 635 414 547 c 0,33,34
265 581 m 1,45,-1
 265 512 l 1,46,-1
 288 512 l 2,47,48
 340 512 340 512 340 549 c 0,49,50
 340 581 340 581 287 581 c 2,51,-1
 265 581 l 1,45,-1
EndSplineSet
EndChar
StartChar: degree
Encoding: 176 176 1384
Width: 600
Flags: W
LayerCount: 2
Fore
SplineSet
335.5 738.5 m 128,-1,1
 377 718 377 718 402.5 679.5 c 128,-1,2
 428 641 428 641 428 590 c 256,3,4
 428 539 428 539 402.5 500 c 128,-1,5
 377 461 377 461 335.5 440 c 128,-1,6
 294 419 294 419 249 419 c 0,7,8
 205 419 205 419 163.5 440 c 128,-1,9
 122 461 122 461 96.5 500 c 128,-1,10
 71 539 71 539 71 590 c 256,11,12
 71 641 71 641 96.5 679.5 c 128,-1,13
 122 718 122 718 163 738.5 c 128,-1,14
 204 759 204 759 249 759 c 256,15,0
 294 759 294 759 335.5 738.5 c 128,-1,1
198.5 647 m 128,-1,17
 180 626 180 626 180 590 c 0,18,19
 180 555 180 555 199 533.5 c 128,-1,20
 218 512 218 512 249 512 c 0,21,22
 281 512 281 512 300 533.5 c 128,-1,23
 319 555 319 555 319 590 c 0,24,25
 319 626 319 626 300 647 c 128,-1,26
 281 668 281 668 249 668 c 256,27,16
 217 668 217 668 198.5 647 c 128,-1,17
EndSplineSet
EndChar
StartChar: plusminus
Encoding: 177 177 1106
Width: 600
Flags: W
LayerCount: 2
Fore
SplineSet
366 402 m 1,0,-1
 517 402 l 1,1,-1
 517 282 l 1,2,-1
 366 282 l 1,3,-1
 366 175 l 1,4,-1
 234 175 l 1,5,-1
 234 282 l 1,6,-1
 83 282 l 1,7,-1
 83 402 l 1,8,-1
 234 402 l 1,9,-1
 234 558 l 1,10,-1
 366 558 l 1,11,-1
 366 402 l 1,0,-1
517 0 m 1,12,-1
 83 0 l 1,13,-1
 83 120 l 1,14,-1
 517 120 l 1,15,-1
 517 0 l 1,12,-1
EndSplineSet
EndChar
StartChar: questiondown
Encoding: 191 191 989
Width: 600
Flags: W
LayerCount: 2
Fore
SplineSet
381 485 m 128,-1,1
 408 458 408 458 408 420 c 0,2,3
 408 384 408 384 381 357.5 c 128,-1,4
 354 331 354 331 317 331 c 256,5,6
 280 331 280 331 253.5 357.5 c 128,-1,7
 227 384 227 384 227 420 c 0,8,9
 227 458 227 458 253.5 485 c 128,-1,10
 280 512 280 512 317 512 c 256,11,0
 354 512 354 512 381 485 c 128,-1,1
390 207 m 2,12,13
 390 161 390 161 375 128.5 c 128,-1,14
 360 96 360 96 339 77 c 128,-1,15
 318 58 318 58 286 36 c 0,16,17
 254 13 254 13 240 -2 c 128,-1,18
 226 -17 226 -17 226 -40 c 0,19,20
 226 -67 226 -67 248 -82 c 128,-1,21
 270 -97 270 -97 306 -97 c 0,22,23
 376 -97 376 -97 431 -37 c 1,24,-1
 531 -114 l 1,25,26
 439 -222 439 -222 290 -222 c 0,27,28
 217 -222 217 -222 165.5 -199 c 128,-1,29
 114 -176 114 -176 87.5 -138 c 128,-1,30
 61 -100 61 -100 61 -54 c 0,31,32
 61 -14 61 -14 75 15 c 128,-1,33
 89 44 89 44 109.5 62 c 128,-1,34
 130 80 130 80 164 104 c 0,35,36
 206 133 206 133 226.5 157 c 128,-1,37
 247 181 247 181 247 219 c 2,38,-1
 247 240 l 1,39,-1
 390 240 l 1,40,-1
 390 207 l 2,12,13
EndSplineSet
EndChar
StartChar: AE
Encoding: 198 198 14
Width: 600
Flags: W
LayerCount: 2
Fore
SplineSet
173 153 m 1,0,-1
 145 0 l 1,1,-1
 -12 0 l 1,2,-1
 163 693 l 1,3,-1
 565 693 l 1,4,-1
 548 582 l 1,5,-1
 366 582 l 1,6,-1
 399 406 l 1,7,-1
 556 406 l 1,8,-1
 556 296 l 1,9,-1
 419 296 l 1,10,-1
 455 111 l 1,11,-1
 603 111 l 1,12,-1
 603 0 l 1,13,-1
 338 0 l 1,14,-1
 313 153 l 1,15,-1
 173 153 l 1,0,-1
296 265 m 1,16,-1
 245 583 l 1,17,-1
 191 265 l 1,18,-1
 296 265 l 1,16,-1
EndSplineSet
EndChar
StartChar: Ccedilla
Encoding: 199 199 20
Width: 600
Flags: W
LayerCount: 2
Fore
SplineSet
459 -80 m 128,-1,1
 485 -106 485 -106 485 -147 c 0,2,3
 485 -198 485 -198 444 -230 c 128,-1,4
 403 -262 403 -262 336 -262 c 0,5,6
 302 -262 302 -262 271.5 -253.5 c 128,-1,7
 241 -245 241 -245 219 -232 c 1,8,-1
 255 -159 l 1,9,10
 289 -176 289 -176 319 -176 c 0,11,12
 372 -176 372 -176 372 -145 c 0,13,14
 372 -126 372 -126 350 -119 c 128,-1,15
 328 -112 328 -112 280 -112 c 1,16,-1
 291 -11 l 1,17,18
 173 9 173 9 103.5 102 c 128,-1,19
 34 195 34 195 34 348 c 0,20,21
 34 461 34 461 76 543 c 128,-1,22
 118 625 118 625 192 668 c 128,-1,23
 266 711 266 711 358 711 c 0,24,25
 430 711 430 711 482 692 c 128,-1,26
 534 673 534 673 580 635 c 1,27,-1
 500 538 l 1,28,29
 437 589 437 589 362 589 c 0,30,31
 291 589 291 589 247.5 529 c 128,-1,32
 204 469 204 469 204 348 c 256,33,34
 204 227 204 227 247 168.5 c 128,-1,35
 290 110 290 110 365 110 c 0,36,37
 411 110 411 110 444 126 c 128,-1,38
 477 142 477 142 515 172 c 1,39,-1
 589 77 l 1,40,41
 506 -8 506 -8 382 -16 c 1,42,-1
 382 -48 l 1,43,0
 433 -54 433 -54 459 -80 c 128,-1,1
EndSplineSet
EndChar
StartChar: Eth
Encoding: 208 208 24
Width: 600
Flags: W
LayerCount: 2
Fore
SplineSet
492 619.5 m 128,-1,1
 587 546 587 546 587 350 c 0,2,3
 587 0 587 0 252 0 c 2,4,-1
 65 0 l 1,5,-1
 65 303 l 1,6,-1
 9 303 l 1,7,-1
 9 403 l 1,8,-1
 65 403 l 1,9,-1
 65 693 l 1,10,-1
 240 693 l 2,11,0
 397 693 397 693 492 619.5 c 128,-1,1
377.5 170 m 128,-1,13
 417 221 417 221 417 350 c 0,14,15
 417 439 417 439 397.5 488 c 128,-1,16
 378 537 378 537 345 555.5 c 128,-1,17
 312 574 312 574 264 574 c 2,18,-1
 229 574 l 1,19,-1
 229 403 l 1,20,-1
 349 403 l 1,21,-1
 349 303 l 1,22,-1
 229 303 l 1,23,-1
 229 119 l 1,24,-1
 264 119 l 2,25,12
 338 119 338 119 377.5 170 c 128,-1,13
EndSplineSet
EndChar
StartChar: multiply
Encoding: 215 215 1099
Width: 600
Flags: W
LayerCount: 2
Fore
SplineSet
502 422 m 1,0,-1
 385 307 l 1,1,-1
 502 192 l 1,2,-1
 415 105 l 1,3,-1
 300 222 l 1,4,-1
 185 105 l 1,5,-1
 98 192 l 1,6,-1
 215 307 l 1,7,-1
 98 422 l 1,8,-1
 185 509 l 1,9,-1
 300 392 l 1,10,-1
 415 509 l 1,11,-1
 502 422 l 1,0,-1
EndSplineSet
EndChar
StartChar: germandbls
Encoding: 223 223 235
Width: 600
Flags: W
LayerCount: 2
Fore
SplineSet
399.5 738.5 m 128,-1,1
 445 718 445 718 469 682.5 c 128,-1,2
 493 647 493 647 493 603 c 0,3,4
 493 570 493 570 480 548 c 128,-1,5
 467 526 467 526 441 499 c 0,6,7
 422 479 422 479 412.5 464.5 c 128,-1,8
 403 450 403 450 403 432 c 0,9,10
 403 412 403 412 418 396 c 128,-1,11
 433 380 433 380 464 357 c 0,12,13
 499 331 499 331 521.5 309 c 128,-1,14
 544 287 544 287 560.5 252 c 128,-1,15
 577 217 577 217 577 168 c 0,16,17
 577 82 577 82 521 32.5 c 128,-1,18
 465 -17 465 -17 376 -17 c 0,19,20
 306 -17 306 -17 249 14 c 1,21,-1
 299 120 l 1,22,23
 331 105 331 105 356 105 c 0,24,25
 385 105 385 105 400 121 c 128,-1,26
 415 137 415 137 415 167 c 0,27,28
 415 202 415 202 397.5 224.5 c 128,-1,29
 380 247 380 247 345 273 c 1,30,31
 318 295 318 295 302.5 310 c 128,-1,32
 287 325 287 325 276 348.5 c 128,-1,33
 265 372 265 372 265 404 c 256,34,35
 265 436 265 436 275.5 459.5 c 128,-1,36
 286 483 286 483 306 512 c 0,37,38
 324 539 324 539 332 556.5 c 128,-1,39
 340 574 340 574 340 596 c 0,40,41
 340 621 340 621 326 634.5 c 128,-1,42
 312 648 312 648 287 648 c 0,43,44
 251 648 251 648 234.5 621 c 128,-1,45
 218 594 218 594 218 538 c 2,46,-1
 218 0 l 1,47,-1
 60 0 l 1,48,-1
 60 531 l 2,49,50
 60 640 60 640 119 699.5 c 128,-1,51
 178 759 178 759 291 759 c 0,52,0
 354 759 354 759 399.5 738.5 c 128,-1,1
EndSplineSet
EndChar
StartChar: ae
Encoding: 230 230 146
Width: 600
Flags: W
LayerCount: 2
Fore
SplineSet
559.5 480.5 m 128,-1,1
 600 412 600 412 600 276 c 0,2,3
 600 250 600 250 597 226 c 1,4,-1
 356 226 l 1,5,6
 369 87 369 87 453 87 c 0,7,8
 476 87 476 87 496.5 95 c 128,-1,9
 517 103 517 103 540 119 c 1,10,-1
 600 40 l 1,11,12
 533 -17 533 -17 444 -17 c 0,13,14
 338 -17 338 -17 284 67 c 1,15,16
 254 22 254 22 223 2.5 c 128,-1,17
 192 -17 192 -17 143 -17 c 0,18,19
 74 -17 74 -17 34 30 c 128,-1,20
 -6 77 -6 77 -6 152 c 0,21,22
 -6 238 -6 238 44 282.5 c 128,-1,23
 94 327 94 327 196 327 c 2,24,-1
 237 327 l 1,25,-1
 237 350 l 2,26,27
 237 451 237 451 148 451 c 0,28,29
 124 451 124 451 104.5 445.5 c 128,-1,30
 85 440 85 440 55 426 c 1,31,-1
 19 513 l 1,32,33
 61 532 61 532 94 540.5 c 128,-1,34
 127 549 127 549 164 549 c 0,35,36
 216 549 216 549 249 530.5 c 128,-1,37
 282 512 282 512 302 478 c 1,38,39
 321 511 321 511 352.5 530 c 128,-1,40
 384 549 384 549 428 549 c 0,41,0
 519 549 519 549 559.5 480.5 c 128,-1,1
375.5 419 m 128,-1,43
 360 388 360 388 356 312 c 1,44,-1
 481 312 l 1,45,46
 480 386 480 386 468 418 c 128,-1,47
 456 450 456 450 422 450 c 0,48,42
 391 450 391 450 375.5 419 c 128,-1,43
216 242 m 2,49,50
 168 242 168 242 147 221 c 128,-1,51
 126 200 126 200 126 159 c 0,52,53
 126 124 126 124 138 105 c 128,-1,54
 150 86 150 86 172 86 c 0,55,56
 192 86 192 86 209 101 c 128,-1,57
 226 116 226 116 242 148 c 1,58,59
 237 198 237 198 237 242 c 1,60,-1
 216 242 l 2,49,50
EndSplineSet
EndChar
StartChar: ccedilla
Encoding: 231 231 152
Width: 600
Flags: W
LayerCount: 2
Fore
SplineSet
446 -80 m 128,-1,1
 472 -106 472 -106 472 -147 c 0,2,3
 472 -198 472 -198 431 -230 c 128,-1,4
 390 -262 390 -262 323 -262 c 0,5,6
 289 -262 289 -262 258.5 -253.5 c 128,-1,7
 228 -245 228 -245 206 -232 c 1,8,-1
 242 -159 l 1,9,10
 276 -176 276 -176 306 -176 c 0,11,12
 359 -176 359 -176 359 -145 c 0,13,14
 359 -126 359 -126 337 -119 c 128,-1,15
 315 -112 315 -112 267 -112 c 1,16,-1
 278 -11 l 1,17,18
 180 8 180 8 124.5 80.5 c 128,-1,19
 69 153 69 153 69 262 c 0,20,21
 69 345 69 345 103 410 c 128,-1,22
 137 475 137 475 199.5 512 c 128,-1,23
 262 549 262 549 346 549 c 0,24,25
 405 549 405 549 452 532.5 c 128,-1,26
 499 516 499 516 540 482 c 1,27,-1
 472 387 l 1,28,29
 414 427 414 427 353 427 c 0,30,31
 234 427 234 427 234 262 c 0,32,33
 234 179 234 179 265 143.5 c 128,-1,34
 296 108 296 108 352 108 c 0,35,36
 382 108 382 108 410 119.5 c 128,-1,37
 438 131 438 131 470 153 c 1,38,-1
 540 53 l 1,39,40
 469 -8 469 -8 369 -16 c 1,41,-1
 369 -48 l 1,42,0
 420 -54 420 -54 446 -80 c 128,-1,1
EndSplineSet
EndChar
StartChar: eth
Encoding: 240 240 156
Width: 600
Flags: W
LayerCount: 2
Fore
SplineSet
184 631 m 1,0,1
 144 646 144 646 93 655 c 1,2,-1
 124 758 l 1,3,4
 209 746 209 746 270 721 c 1,5,-1
 343 797 l 1,6,-1
 424 727 l 1,7,-1
 371 673 l 1,8,9
 466 612 466 612 511 513 c 128,-1,10
 556 414 556 414 556 277 c 0,11,12
 556 194 556 194 525.5 127 c 128,-1,13
 495 60 495 60 435.5 21.5 c 128,-1,14
 376 -17 376 -17 294 -17 c 0,15,16
 222 -17 222 -17 164 13 c 128,-1,17
 106 43 106 43 73 100 c 128,-1,18
 40 157 40 157 40 234 c 0,19,20
 40 306 40 306 69.5 362.5 c 128,-1,21
 99 419 99 419 148 450.5 c 128,-1,22
 197 482 197 482 255 482 c 0,23,24
 298 482 298 482 329 469.5 c 128,-1,25
 360 457 360 457 388 431 c 1,26,27
 355 529 355 529 282 582 c 1,28,-1
 226 525 l 1,29,-1
 126 571 l 1,30,-1
 184 631 l 1,0,1
395 328 m 1,32,33
 357 371 357 371 296 371 c 0,34,35
 251 371 251 371 226 337 c 128,-1,36
 201 303 201 303 201 236 c 0,37,38
 201 165 201 165 226 131.5 c 128,-1,39
 251 98 251 98 297 98 c 0,40,41
 348 98 348 98 372 136.5 c 128,-1,42
 396 175 396 175 396 256 c 0,43,31
 396 305 396 305 395 328 c 1,32,33
EndSplineSet
EndChar
StartChar: oslash
Encoding: 248 248 218
Width: 600
Flags: W
LayerCount: 2
Fore
SplineSet
529 412.5 m 128,-1,1
 558 350 558 350 558 267 c 0,2,3
 558 133 558 133 490 58 c 128,-1,4
 422 -17 422 -17 300 -17 c 1,5,-1
 269 -16 l 1,6,-1
 232 -137 l 1,7,-1
 116 -103 l 1,8,-1
 156 19 l 1,9,10
 101 53 101 53 71.5 116 c 128,-1,11
 42 179 42 179 42 266 c 0,12,13
 42 351 42 351 72.5 414.5 c 128,-1,14
 103 478 103 478 161.5 513.5 c 128,-1,15
 220 549 220 549 300 549 c 0,16,17
 311 549 311 549 331 547 c 1,18,-1
 370 663 l 1,19,-1
 484 629 l 1,20,-1
 445 510 l 1,21,0
 500 475 500 475 529 412.5 c 128,-1,1
225.5 395 m 128,-1,23
 202 355 202 355 202 266 c 0,24,25
 202 172 202 172 220 135 c 1,26,-1
 316 434 l 1,27,28
 311 435 311 435 300 435 c 0,29,22
 249 435 249 435 225.5 395 c 128,-1,23
374.5 136 m 128,-1,31
 398 176 398 176 398 267 c 0,32,33
 398 359 398 359 381 393 c 1,34,-1
 286 96 l 1,35,-1
 300 96 l 2,36,30
 351 96 351 96 374.5 136 c 128,-1,31
EndSplineSet
EndChar
StartChar: thorn
Encoding: 254 254 223
Width: 600
Flags: W
LayerCount: 2
Fore
SplineSet
228 478 m 1,0,1
 252 512 252 512 287 530.5 c 128,-1,2
 322 549 322 549 364 549 c 0,3,4
 464 549 464 549 511 475.5 c 128,-1,5
 558 402 558 402 558 267 c 0,6,7
 558 185 558 185 533.5 120.5 c 128,-1,8
 509 56 509 56 463 19.5 c 128,-1,9
 417 -17 417 -17 354 -17 c 0,10,11
 277 -17 277 -17 228 38 c 1,12,-1
 228 -205 l 1,13,-1
 70 -222 l 1,14,-1
 70 742 l 1,15,-1
 228 759 l 1,16,-1
 228 478 l 1,0,1
228 370 m 1,18,-1
 228 146 l 1,19,20
 245 122 245 122 263.5 110.5 c 128,-1,21
 282 99 282 99 306 99 c 0,22,23
 350 99 350 99 372.5 138.5 c 128,-1,24
 395 178 395 178 395 265 c 0,25,26
 395 359 395 359 375 395.5 c 128,-1,27
 355 432 355 432 315 432 c 0,28,17
 265 432 265 432 228 370 c 1,18,-1
EndSplineSet
EndChar
StartChar: Aogonek
Encoding: 260 260 11
Width: 600
Flags: W
LayerCount: 2
Fore
SplineSet
443 -49 m 128,-1,1
 418 -76 418 -76 418 -110 c 0,2,3
 418 -134 418 -134 433.5 -146.5 c 128,-1,4
 449 -159 449 -159 476 -159 c 0,5,6
 500 -159 500 -159 530 -152 c 1,7,-1
 518 -245 l 1,8,9
 489 -253 489 -253 459 -253 c 0,10,11
 393 -253 393 -253 350.5 -220.5 c 128,-1,12
 308 -188 308 -188 308 -130 c 0,13,14
 308 -75 308 -75 339.5 -39 c 128,-1,15
 371 -3 371 -3 431 22 c 1,16,-1
 400 150 l 1,17,-1
 197 150 l 1,18,-1
 161 0 l 1,19,-1
 -11 0 l 1,20,-1
 201 693 l 1,21,-1
 400 693 l 1,22,-1
 612 0 l 1,23,-1
 533 0 l 1,24,0
 468 -22 468 -22 443 -49 c 128,-1,1
373 268 m 1,25,-1
 298 575 l 1,26,-1
 223 268 l 1,27,-1
 373 268 l 1,25,-1
EndSplineSet
Colour: ff0000
EndChar
StartChar: aogonek
Encoding: 261 261 143
Width: 600
Flags: W
LayerCount: 2
Fore
SplineSet
519 -15 m 1,0,-1
 519 -15 l 1,1,2
 454 -37 454 -37 429 -64 c 128,-1,3
 404 -91 404 -91 404 -125 c 0,4,5
 404 -149 404 -149 419.5 -161.5 c 128,-1,6
 435 -174 435 -174 462 -174 c 0,7,8
 486 -174 486 -174 516 -167 c 1,9,-1
 504 -260 l 1,10,11
 475 -268 475 -268 445 -268 c 0,12,13
 379 -268 379 -268 336.5 -235.5 c 128,-1,14
 294 -203 294 -203 294 -145 c 256,15,16
 294 -87 294 -87 329 -50.5 c 128,-1,17
 364 -14 364 -14 430 12 c 1,18,19
 406 28 406 28 389 55 c 1,20,21
 359 20 359 20 313 1.5 c 128,-1,22
 267 -17 267 -17 215 -17 c 0,23,24
 133 -17 133 -17 84 29.5 c 128,-1,25
 35 76 35 76 35 150 c 0,26,27
 35 236 35 236 103 283.5 c 128,-1,28
 171 331 171 331 294 331 c 2,29,-1
 365 331 l 1,30,-1
 365 350 l 2,31,32
 365 432 365 432 260 432 c 0,33,34
 233 432 233 432 192.5 424.5 c 128,-1,35
 152 417 152 417 114 404 c 1,36,-1
 78 509 l 1,37,38
 129 528 129 528 184.5 538.5 c 128,-1,39
 240 549 240 549 285 549 c 0,40,41
 517 549 517 549 517 361 c 2,42,-1
 517 153 l 2,43,44
 517 124 517 124 525 110 c 128,-1,45
 533 96 533 96 552 89 c 1,46,-1
 519 -15 l 1,0,-1
365 241 m 1,47,-1
 326 241 l 2,48,49
 198 241 198 241 198 161 c 0,50,51
 198 130 198 130 216.5 113 c 128,-1,52
 235 96 235 96 269 96 c 0,53,54
 296 96 296 96 323.5 111.5 c 128,-1,55
 351 127 351 127 365 154 c 1,56,-1
 365 241 l 1,47,-1
EndSplineSet
Colour: ff0000
EndChar
StartChar: Eogonek
Encoding: 280 280 36
Width: 600
Flags: W
LayerCount: 2
Fore
SplineSet
546 118 m 1,0,-1
 546 0 l 1,1,-1
 467 0 l 1,2,3
 402 -22 402 -22 377 -49 c 128,-1,4
 352 -76 352 -76 352 -110 c 0,5,6
 352 -134 352 -134 367.5 -146.5 c 128,-1,7
 383 -159 383 -159 410 -159 c 0,8,9
 434 -159 434 -159 464 -152 c 1,10,-1
 452 -245 l 1,11,12
 423 -253 423 -253 393 -253 c 0,13,14
 327 -253 327 -253 284.5 -220.5 c 128,-1,15
 242 -188 242 -188 242 -130 c 0,16,17
 242 -47 242 -47 322 0 c 1,18,-1
 93 0 l 1,19,-1
 93 693 l 1,20,-1
 546 693 l 1,21,-1
 529 576 l 1,22,-1
 257 576 l 1,23,-1
 257 409 l 1,24,-1
 497 409 l 1,25,-1
 497 295 l 1,26,-1
 257 295 l 1,27,-1
 257 118 l 1,28,-1
 546 118 l 1,0,-1
EndSplineSet
Colour: ff0000
EndChar
StartChar: eogonek
Encoding: 281 281 168
Width: 600
Flags: W
LayerCount: 2
Fore
SplineSet
551 219 m 1,1,-1
 207 219 l 1,2,3
 222 98 222 98 335 98 c 0,4,5
 403 98 403 98 471 142 c 1,6,-1
 534 56 l 1,7,8
 489 18 489 18 435 1 c 1,9,-1
 435 0 l 1,10,11
 370 -22 370 -22 345 -49 c 128,-1,12
 320 -76 320 -76 320 -110 c 0,13,14
 320 -134 320 -134 335.5 -146.5 c 128,-1,15
 351 -159 351 -159 378 -159 c 0,16,17
 402 -159 402 -159 432 -152 c 1,18,-1
 420 -245 l 1,19,20
 391 -253 391 -253 361 -253 c 0,21,22
 295 -253 295 -253 252.5 -220.5 c 128,-1,23
 210 -188 210 -188 210 -130 c 0,24,25
 210 -60 210 -60 279 -15 c 1,26,27
 166 -3 166 -3 106 72.5 c 128,-1,28
 46 148 46 148 46 265 c 0,29,30
 46 345 46 345 76.5 409.5 c 128,-1,31
 107 474 107 474 165.5 511.5 c 128,-1,32
 224 549 224 549 305 549 c 0,33,34
 381 549 381 549 437 516.5 c 128,-1,35
 493 484 493 484 523.5 422.5 c 128,-1,36
 554 361 554 361 554 276 c 0,37,0
 554 243 554 243 551 219 c 1,1,-1
400 315 m 1,38,39
 398 443 398 443 305 443 c 0,40,41
 262 443 262 443 236 411.5 c 128,-1,42
 210 380 210 380 205 315 c 1,43,-1
 400 315 l 1,38,39
EndSplineSet
Colour: ff0000
EndChar
StartChar: gcommaaccent
Encoding: 291 291 173
Width: 600
Flags: W
LayerCount: 2
Fore
SplineSet
245 618 m 128,-1,1
 223 640 223 640 223 674 c 0,2,3
 223 710 223 710 246 756 c 2,4,-1
 295 853 l 1,5,-1
 375 853 l 1,6,-1
 348 738 l 1,7,8
 380 711 380 711 380 674 c 0,9,10
 380 641 380 641 357.5 618.5 c 128,-1,11
 335 596 335 596 301 596 c 256,12,0
 267 596 267 596 245 618 c 128,-1,1
578 500 m 1,13,14
 526 479 526 479 425 479 c 1,15,16
 477 456 477 456 502.5 424 c 128,-1,17
 528 392 528 392 528 342 c 0,18,19
 528 291 528 291 500 250.5 c 128,-1,20
 472 210 472 210 421 187 c 128,-1,21
 370 164 370 164 303 164 c 0,22,23
 270 164 270 164 241 170 c 1,24,25
 233 166 233 166 228.5 157.5 c 128,-1,26
 224 149 224 149 224 140 c 0,27,28
 224 125 224 125 235.5 116.5 c 128,-1,29
 247 108 247 108 282 108 c 2,30,-1
 370 108 l 2,31,32
 430 108 430 108 476 88 c 128,-1,33
 522 68 522 68 547 33 c 128,-1,34
 572 -2 572 -2 572 -46 c 0,35,36
 572 -129 572 -129 499.5 -175.5 c 128,-1,37
 427 -222 427 -222 288 -222 c 0,38,39
 189 -222 189 -222 132.5 -201.5 c 128,-1,40
 76 -181 76 -181 53.5 -144 c 128,-1,41
 31 -107 31 -107 31 -51 c 1,42,-1
 171 -51 l 1,43,44
 171 -76 171 -76 180.5 -90 c 128,-1,45
 190 -104 190 -104 216 -111 c 128,-1,46
 242 -118 242 -118 292 -118 c 0,47,48
 362 -118 362 -118 388.5 -102 c 128,-1,49
 415 -86 415 -86 415 -57 c 0,50,51
 415 -33 415 -33 395.5 -18.5 c 128,-1,52
 376 -4 376 -4 338 -4 c 2,53,-1
 254 -4 l 2,54,55
 172 -4 172 -4 131 25.5 c 128,-1,56
 90 55 90 55 90 101 c 0,57,58
 90 131 90 131 105.5 157.5 c 128,-1,59
 121 184 121 184 149 202 c 1,60,61
 99 229 99 229 77 265.5 c 128,-1,62
 55 302 55 302 55 354 c 0,63,64
 55 413 55 413 85 457 c 128,-1,65
 115 501 115 501 169 524.5 c 128,-1,66
 223 548 223 548 292 548 c 1,67,68
 372 546 372 546 428 563.5 c 128,-1,69
 484 581 484 581 542 616 c 1,70,-1
 578 500 l 1,13,14
236.5 421 m 128,-1,72
 215 397 215 397 215 356 c 0,73,74
 215 313 215 313 237 289 c 128,-1,75
 259 265 259 265 296 265 c 0,76,77
 335 265 335 265 356 288.5 c 128,-1,78
 377 312 377 312 377 358 c 0,79,80
 377 445 377 445 296 445 c 0,81,71
 258 445 258 445 236.5 421 c 128,-1,72
EndSplineSet
Colour: ff0000
EndChar
StartChar: hbar
Encoding: 295 295 176
Width: 600
Flags: W
LayerCount: 2
Fore
SplineSet
492 507.5 m 128,-1,1
 530 466 530 466 530 390 c 2,2,-1
 530 0 l 1,3,-1
 372 0 l 1,4,-1
 372 346 l 2,5,6
 372 394 372 394 361 413 c 128,-1,7
 350 432 350 432 321 432 c 0,8,9
 297 432 297 432 274.5 415.5 c 128,-1,10
 252 399 252 399 228 367 c 1,11,-1
 228 0 l 1,12,-1
 70 0 l 1,13,-1
 70 593 l 1,14,-1
 8 593 l 1,15,-1
 8 685 l 1,16,-1
 70 685 l 1,17,-1
 70 742 l 1,18,-1
 228 758 l 1,19,-1
 228 685 l 1,20,-1
 369 685 l 1,21,-1
 369 593 l 1,22,-1
 228 593 l 1,23,-1
 228 478 l 1,24,25
 295 549 295 549 384 549 c 0,26,0
 454 549 454 549 492 507.5 c 128,-1,1
EndSplineSet
Colour: ff0000
EndChar
StartChar: IJ
Encoding: 306 306 47
Width: 600
Flags: W
LayerCount: 2
Fore
SplineSet
318 -27 m 128,-1,1
 365 2 365 2 381.5 46.5 c 128,-1,2
 398 91 398 91 398 164 c 2,3,-1
 398 592 l 1,4,-1
 232 592 l 1,5,-1
 232 102 l 1,6,-1
 285 102 l 1,7,-1
 285 0 l 1,8,-1
 8 0 l 1,9,-1
 8 102 l 1,10,-1
 81 102 l 1,11,-1
 81 592 l 1,12,-1
 8 592 l 1,13,-1
 8 693 l 1,14,-1
 556 693 l 1,15,-1
 556 170 l 2,16,17
 556 23 556 23 473.5 -64.5 c 128,-1,18
 391 -152 391 -152 200 -183 c 1,19,-1
 181 -72 l 1,20,0
 271 -56 271 -56 318 -27 c 128,-1,1
EndSplineSet
Colour: ff0000
EndChar
StartChar: kgreenlandic
Encoding: 312 312 195
Width: 600
Flags: W
LayerCount: 2
Fore
SplineSet
228 0 m 1,0,-1
 70 0 l 1,1,-1
 70 531 l 1,2,-1
 228 531 l 1,3,-1
 228 0 l 1,0,-1
398 287 m 1,4,-1
 588 0 l 1,5,-1
 408 0 l 1,6,-1
 234 276 l 1,7,-1
 409 531 l 1,8,-1
 574 531 l 1,9,-1
 398 287 l 1,4,-1
EndSplineSet
Colour: ff0000
EndChar
StartChar: Lslash
Encoding: 321 321 66
Width: 600
Flags: W
LayerCount: 2
Fore
SplineSet
572 130 m 1,0,-1
 555 0 l 1,1,-1
 108 0 l 1,2,-1
 108 229 l 1,3,-1
 62 201 l 1,4,-1
 9 288 l 1,5,-1
 108 349 l 1,6,-1
 108 693 l 1,7,-1
 272 693 l 1,8,-1
 272 451 l 1,9,-1
 396 527 l 1,10,-1
 450 442 l 1,11,-1
 272 331 l 1,12,-1
 272 130 l 1,13,-1
 572 130 l 1,0,-1
EndSplineSet
Colour: ff0000
EndChar
StartChar: Scedilla
Encoding: 350 350 96
Width: 600
Flags: W
LayerCount: 2
Fore
SplineSet
505 54 m 128,-1,1
 442 -5 442 -5 330 -15 c 1,2,-1
 330 -48 l 1,3,4
 381 -54 381 -54 407 -80 c 128,-1,5
 433 -106 433 -106 433 -147 c 0,6,7
 433 -198 433 -198 392 -230 c 128,-1,8
 351 -262 351 -262 284 -262 c 0,9,10
 250 -262 250 -262 219.5 -253.5 c 128,-1,11
 189 -245 189 -245 167 -232 c 1,12,-1
 203 -159 l 1,13,14
 237 -176 237 -176 267 -176 c 0,15,16
 320 -176 320 -176 320 -145 c 0,17,18
 320 -126 320 -126 298 -119 c 128,-1,19
 276 -112 276 -112 228 -112 c 1,20,-1
 238 -15 l 1,21,22
 98 -3 98 -3 12 83 c 1,23,-1
 95 175 l 1,24,25
 174 105 174 105 282 105 c 0,26,27
 334 105 334 105 365.5 127.5 c 128,-1,28
 397 150 397 150 397 190 c 0,29,30
 397 228 397 228 370.5 249.5 c 128,-1,31
 344 271 344 271 272 293 c 0,32,33
 150 330 150 330 99 380 c 128,-1,34
 48 430 48 430 48 509 c 0,35,36
 48 571 48 571 82.5 617 c 128,-1,37
 117 663 117 663 176.5 687 c 128,-1,38
 236 711 236 711 309 711 c 0,39,40
 462 711 462 711 557 621 c 1,41,-1
 480 532 l 1,42,43
 445 561 445 561 404.5 575.5 c 128,-1,44
 364 590 364 590 321 590 c 0,45,46
 273 590 273 590 245.5 572.5 c 128,-1,47
 218 555 218 555 218 522 c 0,48,49
 218 500 218 500 230.5 485 c 128,-1,50
 243 470 243 470 272 457 c 128,-1,51
 301 444 301 444 359 426 c 0,52,53
 465 394 465 394 516.5 343.5 c 128,-1,54
 568 293 568 293 568 203 c 256,55,0
 568 113 568 113 505 54 c 128,-1,1
EndSplineSet
Colour: ff0000
EndChar
StartChar: scedilla
Encoding: 351 351 232
Width: 600
Flags: W
LayerCount: 2
Fore
SplineSet
478 40 m 128,-1,1
 421 -5 421 -5 331 -14 c 1,2,-1
 331 -48 l 1,3,4
 382 -54 382 -54 408 -80 c 128,-1,5
 434 -106 434 -106 434 -147 c 0,6,7
 434 -198 434 -198 393 -230 c 128,-1,8
 352 -262 352 -262 285 -262 c 0,9,10
 251 -262 251 -262 220.5 -253.5 c 128,-1,11
 190 -245 190 -245 168 -232 c 1,12,-1
 204 -159 l 1,13,14
 238 -176 238 -176 268 -176 c 0,15,16
 321 -176 321 -176 321 -145 c 0,17,18
 321 -126 321 -126 299 -119 c 128,-1,19
 277 -112 277 -112 229 -112 c 1,20,-1
 240 -15 l 1,21,22
 123 -4 123 -4 48 63 c 1,23,-1
 127 152 l 1,24,25
 199 96 199 96 283 96 c 0,26,27
 324 96 324 96 347.5 108.5 c 128,-1,28
 371 121 371 121 371 146 c 0,29,30
 371 164 371 164 361.5 175 c 128,-1,31
 352 186 352 186 326 196.5 c 128,-1,32
 300 207 300 207 245 222 c 0,33,34
 165 243 165 243 123 280.5 c 128,-1,35
 81 318 81 318 81 384 c 0,36,37
 81 457 81 457 141.5 503 c 128,-1,38
 202 549 202 549 311 549 c 0,39,40
 437 549 437 549 526 484 c 1,41,-1
 463 391 l 1,42,43
 390 436 390 436 316 436 c 0,44,45
 277 436 277 436 258.5 426 c 128,-1,46
 240 416 240 416 240 395 c 0,47,48
 240 381 240 381 249.5 371.5 c 128,-1,49
 259 362 259 362 285.5 352 c 128,-1,50
 312 342 312 342 365 327 c 0,51,52
 422 311 422 311 458.5 292 c 128,-1,53
 495 273 495 273 515 241 c 128,-1,54
 535 209 535 209 535 159 c 0,55,0
 535 85 535 85 478 40 c 128,-1,1
EndSplineSet
Colour: ff0000
EndChar
StartChar: uni0163
Encoding: 355 355 239
Width: 600
Flags: W
LayerCount: 2
Fore
SplineSet
467 -80 m 128,-1,1
 493 -106 493 -106 493 -147 c 0,2,3
 493 -198 493 -198 452 -230 c 128,-1,4
 411 -262 411 -262 344 -262 c 0,5,6
 310 -262 310 -262 279.5 -253.5 c 128,-1,7
 249 -245 249 -245 227 -232 c 1,8,-1
 263 -159 l 1,9,10
 297 -176 297 -176 327 -176 c 0,11,12
 380 -176 380 -176 380 -145 c 0,13,14
 380 -126 380 -126 358 -119 c 128,-1,15
 336 -112 336 -112 288 -112 c 1,16,-1
 299 -8 l 1,17,18
 234 9 234 9 201.5 57.5 c 128,-1,19
 169 106 169 106 169 181 c 2,20,-1
 169 422 l 1,21,-1
 58 422 l 1,22,-1
 58 531 l 1,23,-1
 169 531 l 1,24,-1
 169 646 l 1,25,-1
 327 665 l 1,26,-1
 327 531 l 1,27,-1
 498 531 l 1,28,-1
 482 422 l 1,29,-1
 327 422 l 1,30,-1
 327 181 l 2,31,32
 327 142 327 142 345 125 c 128,-1,33
 363 108 363 108 403 108 c 0,34,35
 453 108 453 108 496 132 c 1,36,-1
 548 31 l 1,37,38
 479 -13 479 -13 390 -17 c 1,39,-1
 390 -48 l 1,40,0
 441 -54 441 -54 467 -80 c 128,-1,1
EndSplineSet
Colour: ff0000
EndChar
StartChar: tbar
Encoding: 359 359 237
Width: 600
Flags: W
LayerCount: 2
Fore
SplineSet
548 31 m 1,0,1
 473 -17 473 -17 374 -17 c 0,2,3
 272 -17 272 -17 220.5 35 c 128,-1,4
 169 87 169 87 169 181 c 2,5,-1
 169 262 l 1,6,-1
 70 262 l 1,7,-1
 70 361 l 1,8,-1
 169 361 l 1,9,-1
 169 422 l 1,10,-1
 58 422 l 1,11,-1
 58 531 l 1,12,-1
 169 531 l 1,13,-1
 169 646 l 1,14,-1
 327 665 l 1,15,-1
 327 531 l 1,16,-1
 498 531 l 1,17,-1
 482 422 l 1,18,-1
 327 422 l 1,19,-1
 327 361 l 1,20,-1
 481 361 l 1,21,-1
 481 262 l 1,22,-1
 327 262 l 1,23,-1
 327 181 l 2,24,25
 327 142 327 142 345 125 c 128,-1,26
 363 108 363 108 403 108 c 0,27,28
 453 108 453 108 496 132 c 1,29,-1
 548 31 l 1,0,1
EndSplineSet
Colour: ff0000
EndChar
StartChar: uogonek
Encoding: 371 371 249
Width: 600
Flags: W
LayerCount: 2
Fore
SplineSet
530 531 m 1,0,-1
 530 0 l 1,1,2
 465 -22 465 -22 440 -49 c 128,-1,3
 415 -76 415 -76 415 -110 c 0,4,5
 415 -134 415 -134 430.5 -146.5 c 128,-1,6
 446 -159 446 -159 473 -159 c 0,7,8
 497 -159 497 -159 527 -152 c 1,9,-1
 515 -245 l 1,10,11
 486 -253 486 -253 456 -253 c 0,12,13
 390 -253 390 -253 347.5 -220.5 c 128,-1,14
 305 -188 305 -188 305 -130 c 0,15,16
 305 -84 305 -84 327.5 -52 c 128,-1,17
 350 -20 350 -20 392 4 c 1,18,-1
 385 62 l 1,19,20
 359 24 359 24 315 3.5 c 128,-1,21
 271 -17 271 -17 222 -17 c 0,22,23
 147 -17 147 -17 108.5 26.5 c 128,-1,24
 70 70 70 70 70 148 c 2,25,-1
 70 531 l 1,26,-1
 228 531 l 1,27,-1
 228 168 l 2,28,29
 228 131 228 131 241.5 115.5 c 128,-1,30
 255 100 255 100 282 100 c 0,31,32
 306 100 306 100 331 115.5 c 128,-1,33
 356 131 356 131 372 158 c 1,34,-1
 372 531 l 1,35,-1
 530 531 l 1,0,-1
EndSplineSet
Colour: ff0000
EndChar
StartChar: uni02BC
Encoding: 700 700 1478
Width: 600
Flags: W
LayerCount: 2
Fore
SplineSet
346.5 736.5 m 128,-1,1
 369 715 369 715 369 684 c 0,2,3
 369 655 369 655 341 604 c 2,4,-1
 305 537 l 1,5,-1
 226 537 l 1,6,-1
 244 616 l 1,7,8
 212 643 212 643 212 680 c 0,9,10
 212 713 212 713 234.5 735.5 c 128,-1,11
 257 758 257 758 291 758 c 0,12,0
 324 758 324 758 346.5 736.5 c 128,-1,1
EndSplineSet
Colour: ff0000
EndChar
StartChar: circumflex
Encoding: 710 710 1432
Width: 600
Flags: W
LayerCount: 2
Fore
SplineSet
110 676 m 1,0,-1
 252 815 l 1,1,-1
 348 815 l 1,2,-1
 489 676 l 1,3,-1
 433 611 l 1,4,-1
 300 705 l 1,5,-1
 167 611 l 1,6,-1
 110 676 l 1,0,-1
EndSplineSet
EndChar
StartChar: caron
Encoding: 711 711 1430
Width: 600
Flags: W
LayerCount: 2
Fore
SplineSet
489 751 m 1,0,-1
 348 611 l 1,1,-1
 252 611 l 1,2,-1
 110 751 l 1,3,-1
 167 815 l 1,4,-1
 300 721 l 1,5,-1
 433 815 l 1,6,-1
 489 751 l 1,0,-1
EndSplineSet
Colour: ff0000
EndChar
StartChar: ring
Encoding: 730 730 1439
Width: 600
Flags: W
LayerCount: 2
Fore
SplineSet
400 827 m 128,-1,1
 438 789 438 789 438 734 c 256,2,3
 438 679 438 679 399.5 640 c 128,-1,4
 361 601 361 601 299 601 c 0,5,6
 258 601 258 601 226.5 619 c 128,-1,7
 195 637 195 637 178 667.5 c 128,-1,8
 161 698 161 698 161 734 c 0,9,10
 161 788 161 788 199 826.5 c 128,-1,11
 237 865 237 865 299 865 c 0,12,0
 362 865 362 865 400 827 c 128,-1,1
267 770.5 m 128,-1,14
 255 758 255 758 255 734 c 0,15,16
 255 709 255 709 267 696 c 128,-1,17
 279 683 279 683 299 683 c 0,18,19
 320 683 320 683 332 696 c 128,-1,20
 344 709 344 709 344 734 c 0,21,22
 344 758 344 758 332 770.5 c 128,-1,23
 320 783 320 783 299 783 c 0,24,13
 279 783 279 783 267 770.5 c 128,-1,14
EndSplineSet
EndChar
StartChar: ogonek
Encoding: 731 731 1438
Width: 600
Flags: W
LayerCount: 2
Fore
SplineSet
395 0 m 1,0,1
 330 -22 330 -22 305 -49 c 128,-1,2
 280 -76 280 -76 280 -110 c 0,3,4
 280 -134 280 -134 295.5 -146.5 c 128,-1,5
 311 -159 311 -159 338 -159 c 0,6,7
 362 -159 362 -159 392 -152 c 1,8,-1
 380 -245 l 1,9,10
 351 -253 351 -253 321 -253 c 0,11,12
 255 -253 255 -253 212.5 -220.5 c 128,-1,13
 170 -188 170 -188 170 -130 c 0,14,15
 170 -80 170 -80 196 -46.5 c 128,-1,16
 222 -13 222 -13 266 9 c 128,-1,17
 310 31 310 31 377 51 c 1,18,-1
 395 0 l 1,0,1
EndSplineSet
Colour: ff0000
EndChar
StartChar: uni0306
Encoding: 774 774 1407
Width: 0
GlyphClass: 4
Flags: W
LayerCount: 2
Fore
SplineSet
-421 631.5 m 128,-1,1
 -464 674 -464 674 -472 743 c 1,2,-1
 -385 759 l 1,3,4
 -375 728 -375 728 -355 713.5 c 128,-1,5
 -335 699 -335 699 -300 699 c 256,6,7
 -265 699 -265 699 -245 713.5 c 128,-1,8
 -225 728 -225 728 -215 759 c 1,9,-1
 -128 743 l 1,10,11
 -135 674 -135 674 -178 631.5 c 128,-1,12
 -221 589 -221 589 -300 589 c 0,13,0
 -378 589 -378 589 -421 631.5 c 128,-1,1
EndSplineSet
Colour: ff0000
EndChar
StartChar: uni0345
Encoding: 837 837 1457
Width: 0
GlyphClass: 4
Flags: W
LayerCount: 2
Fore
SplineSet
-387 -169 m 128,-1,1
 -421 -134 -421 -134 -421 -76 c 2,2,-1
 -421 -42 l 1,3,-1
 -309 -42 l 1,4,-1
 -309 -73 l 2,5,6
 -309 -113 -309 -113 -269 -113 c 0,7,8
 -244 -113 -244 -113 -218 -98 c 1,9,-1
 -177 -167 l 1,10,11
 -225 -204 -225 -204 -289 -204 c 256,12,0
 -353 -204 -353 -204 -387 -169 c 128,-1,1
EndSplineSet
Colour: ff0000
EndChar
StartChar: uni037C
Encoding: 892 892 755
Width: 600
Flags: W
LayerCount: 2
Fore
SplineSet
410 119.5 m 128,-1,1
 438 131 438 131 470 153 c 1,2,-1
 540 53 l 1,3,4
 502 21 502 21 452 2 c 128,-1,5
 402 -17 402 -17 343 -17 c 0,6,7
 258 -17 258 -17 196.5 18 c 128,-1,8
 135 53 135 53 102 116 c 128,-1,9
 69 179 69 179 69 262 c 256,10,11
 69 345 69 345 103 410 c 128,-1,12
 137 475 137 475 199.5 512 c 128,-1,13
 262 549 262 549 346 549 c 0,14,15
 405 549 405 549 452 532.5 c 128,-1,16
 499 516 499 516 540 482 c 1,17,-1
 472 387 l 1,18,19
 414 427 414 427 353 427 c 0,20,21
 234 427 234 427 234 262 c 0,22,23
 234 179 234 179 265 143.5 c 128,-1,24
 296 108 296 108 352 108 c 0,25,0
 382 108 382 108 410 119.5 c 128,-1,1
427.5 320.5 m 128,-1,27
 450 298 450 298 450 264 c 0,28,29
 450 231 450 231 427.5 208.5 c 128,-1,30
 405 186 405 186 369 186 c 256,31,32
 333 186 333 186 309.5 208.5 c 128,-1,33
 286 231 286 231 286 264 c 0,34,35
 286 298 286 298 309.5 320.5 c 128,-1,36
 333 343 333 343 369 343 c 256,37,26
 405 343 405 343 427.5 320.5 c 128,-1,27
EndSplineSet
Colour: ff0000
EndChar
StartChar: uni037D
Encoding: 893 893 756
Width: 600
Flags: W
LayerCount: 2
Fore
SplineSet
148 2 m 128,-1,1
 98 21 98 21 60 53 c 1,2,-1
 130 153 l 1,3,4
 162 131 162 131 190 119.5 c 128,-1,5
 218 108 218 108 248 108 c 0,6,7
 304 108 304 108 335 143.5 c 128,-1,8
 366 179 366 179 366 262 c 0,9,10
 366 351 366 351 341 389 c 128,-1,11
 316 427 316 427 258 427 c 0,12,13
 224 427 224 427 193.5 417 c 128,-1,14
 163 407 163 407 128 387 c 1,15,-1
 60 482 l 1,16,17
 108 516 108 516 156.5 532.5 c 128,-1,18
 205 549 205 549 268 549 c 0,19,20
 397 549 397 549 464 473 c 128,-1,21
 531 397 531 397 531 262 c 0,22,23
 531 179 531 179 498 116 c 128,-1,24
 465 53 465 53 403.5 18 c 128,-1,25
 342 -17 342 -17 257 -17 c 0,26,0
 198 -17 198 -17 148 2 c 128,-1,1
288.5 320.5 m 128,-1,28
 311 298 311 298 311 264 c 0,29,30
 311 231 311 231 288.5 208.5 c 128,-1,31
 266 186 266 186 230 186 c 256,32,33
 194 186 194 186 170.5 208.5 c 128,-1,34
 147 231 147 231 147 264 c 0,35,36
 147 298 147 298 170.5 320.5 c 128,-1,37
 194 343 194 343 230 343 c 256,38,27
 266 343 266 343 288.5 320.5 c 128,-1,28
EndSplineSet
Colour: ff0000
EndChar
StartChar: Eta
Encoding: 919 919 573
Width: 600
Flags: W
LayerCount: 2
Fore
SplineSet
384 292 m 1,0,-1
 216 292 l 1,1,-1
 216 0 l 1,2,-1
 52 0 l 1,3,-1
 52 693 l 1,4,-1
 216 693 l 1,5,-1
 216 427 l 1,6,-1
 384 427 l 1,7,-1
 384 693 l 1,8,-1
 548 693 l 1,9,-1
 548 0 l 1,10,-1
 384 0 l 1,11,-1
 384 292 l 1,0,-1
EndSplineSet
Colour: ff0000
EndChar
StartChar: alpha
Encoding: 945 945 715
Width: 600
Flags: W
LayerCount: 2
Fore
SplineSet
356.5 511 m 128,-1,1
 396 473 396 473 404 404 c 1,2,-1
 429 531 l 1,3,-1
 571 531 l 1,4,-1
 487 283 l 1,5,-1
 514 167 l 2,6,7
 521 134 521 134 534 120.5 c 128,-1,8
 547 107 547 107 571 102 c 1,9,-1
 520 -17 l 1,10,11
 472 -9 472 -9 446.5 10.5 c 128,-1,12
 421 30 421 30 411 77 c 2,13,-1
 400 130 l 1,14,15
 381 55 381 55 340.5 19 c 128,-1,16
 300 -17 300 -17 235 -17 c 0,17,18
 142 -17 142 -17 88.5 57 c 128,-1,19
 35 131 35 131 35 263 c 0,20,21
 35 345 35 345 61 410 c 128,-1,22
 87 475 87 475 135 512 c 128,-1,23
 183 549 183 549 246 549 c 0,24,0
 317 549 317 549 356.5 511 c 128,-1,1
195 263 m 0,26,27
 195 98 195 98 264 98 c 0,28,29
 332 98 332 98 361 266 c 1,30,31
 347 355 347 355 324 394 c 128,-1,32
 301 433 301 433 268 433 c 0,33,25
 195 433 195 433 195 263 c 0,26,27
EndSplineSet
Colour: ff0000
EndChar
StartChar: gamma
Encoding: 947 947 717
Width: 600
Flags: W
LayerCount: 2
Fore
SplineSet
585 508 m 1,0,-1
 375 26 l 2,1,2
 348 -35 348 -35 348 -107 c 0,3,4
 348 -147 348 -147 358 -207 c 1,5,-1
 234 -220 l 1,6,7
 206 -161 206 -161 206 -99 c 0,8,9
 206 -47 206 -47 226 13 c 1,10,11
 186 172 186 172 134 289 c 128,-1,12
 82 406 82 406 15 490 c 1,13,-1
 171 547 l 1,14,15
 216 477 216 477 251 372.5 c 128,-1,16
 286 268 286 268 302 139 c 1,17,-1
 427 545 l 1,18,-1
 585 508 l 1,0,-1
EndSplineSet
Colour: ff0000
EndChar
StartChar: delta
Encoding: 948 948 718
Width: 600
Flags: W
LayerCount: 2
Fore
SplineSet
510 696 m 1,1,-1
 435 610 l 1,2,3
 385 646 385 646 325 646 c 0,4,5
 291 646 291 646 274 634 c 128,-1,6
 257 622 257 622 257 602 c 0,7,8
 257 586 257 586 264 574.5 c 128,-1,9
 271 563 271 563 291 552 c 128,-1,10
 311 541 311 541 350 525 c 0,11,12
 425 494 425 494 470 458.5 c 128,-1,13
 515 423 515 423 537 372 c 128,-1,14
 559 321 559 321 559 248 c 0,15,16
 559 169 559 169 527.5 109 c 128,-1,17
 496 49 496 49 437.5 16 c 128,-1,18
 379 -17 379 -17 301 -17 c 0,19,20
 221 -17 221 -17 162.5 15 c 128,-1,21
 104 47 104 47 73.5 105.5 c 128,-1,22
 43 164 43 164 43 242 c 0,23,24
 43 319 43 319 82.5 376 c 128,-1,25
 122 433 122 433 197 465 c 1,26,27
 141 494 141 494 120 525.5 c 128,-1,28
 99 557 99 557 99 605 c 0,29,30
 99 674 99 674 155.5 716.5 c 128,-1,31
 212 759 212 759 319 759 c 0,32,0
 431 759 431 759 510 696 c 1,1,-1
222 351.5 m 128,-1,34
 205 310 205 310 205 249 c 0,35,36
 205 99 205 99 300 99 c 0,37,38
 348 99 348 99 372 135.5 c 128,-1,39
 396 172 396 172 396 249 c 0,40,41
 396 300 396 300 386.5 331 c 128,-1,42
 377 362 377 362 353 384 c 128,-1,43
 329 406 329 406 284 426 c 1,44,33
 239 393 239 393 222 351.5 c 128,-1,34
EndSplineSet
Colour: ff0000
EndChar
StartChar: epsilon
Encoding: 949 949 719
Width: 600
Flags: W
LayerCount: 2
Fore
SplineSet
320 223 m 2,0,1
 272 223 272 223 250 207.5 c 128,-1,2
 228 192 228 192 228 162 c 0,3,4
 228 130 228 130 255.5 113 c 128,-1,5
 283 96 283 96 337 96 c 0,6,7
 432 96 432 96 503 136 c 1,8,-1
 574 48 l 1,9,10
 476 -17 476 -17 325 -17 c 0,11,12
 207 -17 207 -17 135.5 26 c 128,-1,13
 64 69 64 69 64 149 c 0,14,15
 64 208 64 208 98 240.5 c 128,-1,16
 132 273 132 273 205 283 c 1,17,18
 84 310 84 310 84 405 c 0,19,20
 84 472 84 472 148.5 510.5 c 128,-1,21
 213 549 213 549 315 549 c 0,22,23
 452 549 452 549 542 493 c 1,24,-1
 473 408 l 1,25,26
 417 439 417 439 336 439 c 0,27,28
 244 439 244 439 244 383 c 0,29,30
 244 356 244 356 265 340 c 128,-1,31
 286 324 286 324 327 324 c 2,32,-1
 434 324 l 1,33,-1
 419 223 l 1,34,-1
 320 223 l 2,0,1
EndSplineSet
Colour: ff0000
EndChar
StartChar: eta
Encoding: 951 951 721
Width: 600
Flags: W
LayerCount: 2
Fore
SplineSet
498 507.5 m 128,-1,1
 536 466 536 466 536 390 c 2,2,-1
 536 -205 l 1,3,-1
 378 -222 l 1,4,-1
 378 344 l 2,5,6
 378 394 378 394 367.5 413 c 128,-1,7
 357 432 357 432 327 432 c 0,8,9
 303 432 303 432 280.5 415.5 c 128,-1,10
 258 399 258 399 234 367 c 1,11,-1
 234 0 l 1,12,-1
 76 0 l 1,13,-1
 76 382 l 2,14,15
 76 419 76 419 70 457.5 c 128,-1,16
 64 496 64 496 55 525 c 1,17,-1
 201 545 l 1,18,19
 215 520 215 520 224 469 c 1,20,21
 295 549 295 549 390 549 c 0,22,0
 460 549 460 549 498 507.5 c 128,-1,1
EndSplineSet
Colour: ff0000
EndChar
StartChar: lambda
Encoding: 955 955 725
Width: 600
Flags: W
LayerCount: 2
Fore
SplineSet
255 531 m 1,0,1
 240 571 240 571 221 593.5 c 128,-1,2
 202 616 202 616 170 629 c 128,-1,3
 138 642 138 642 84 650 c 1,4,-1
 103 758 l 1,5,6
 204 745 204 745 263.5 714.5 c 128,-1,7
 323 684 323 684 358.5 624 c 128,-1,8
 394 564 394 564 420 456 c 0,9,10
 460 291 460 291 498.5 195.5 c 128,-1,11
 537 100 537 100 590 33 c 1,12,-1
 434 -17 l 1,13,14
 382 60 382 60 350.5 157.5 c 128,-1,15
 319 255 319 255 294 419 c 1,16,-1
 183 -17 l 1,17,-1
 27 20 l 1,18,-1
 203 531 l 1,19,-1
 255 531 l 1,0,1
EndSplineSet
Colour: ff0000
EndChar
StartChar: rho
Encoding: 961 961 731
Width: 600
Flags: W
LayerCount: 2
Fore
SplineSet
496 477.5 m 128,-1,1
 558 406 558 406 558 267 c 0,2,3
 558 186 558 186 533.5 121.5 c 128,-1,4
 509 57 509 57 462 20 c 128,-1,5
 415 -17 415 -17 352 -17 c 0,6,7
 273 -17 273 -17 226 39 c 1,8,-1
 226 -205 l 1,9,-1
 68 -222 l 1,10,-1
 68 275 l 2,11,12
 68 408 68 408 129 478.5 c 128,-1,13
 190 549 190 549 311 549 c 0,14,0
 434 549 434 549 496 477.5 c 128,-1,1
244.5 390.5 m 128,-1,16
 226 348 226 348 226 248 c 2,17,-1
 226 146 l 1,18,19
 257 99 257 99 304 99 c 0,20,21
 349 99 349 99 372 139.5 c 128,-1,22
 395 180 395 180 395 265 c 0,23,24
 395 358 395 358 374 395.5 c 128,-1,25
 353 433 353 433 309 433 c 0,26,15
 263 433 263 433 244.5 390.5 c 128,-1,16
EndSplineSet
Colour: ff0000
EndChar
StartChar: phi
Encoding: 966 966 736
Width: 600
Flags: W
LayerCount: 2
Fore
SplineSet
539 479.5 m 128,-1,1
 582 410 582 410 582 270 c 0,2,3
 582 14 582 14 355 -13 c 1,4,-1
 355 -210 l 1,5,-1
 234 -222 l 1,6,-1
 234 -13 l 1,7,8
 18 11 18 11 18 240 c 0,9,10
 18 384 18 384 71 531 c 1,11,-1
 200 531 l 1,12,13
 175 453 175 453 163 388 c 128,-1,14
 151 323 151 323 151 262 c 0,15,16
 151 178 151 178 169 137 c 128,-1,17
 187 96 187 96 234 84 c 1,18,-1
 234 324 l 2,19,20
 234 436 234 436 274 492.5 c 128,-1,21
 314 549 314 549 400 549 c 0,22,0
 496 549 496 549 539 479.5 c 128,-1,1
362.5 421.5 m 128,-1,24
 355 394 355 394 355 323 c 2,25,-1
 355 84 l 1,26,27
 404 95 404 95 424.5 138.5 c 128,-1,28
 445 182 445 182 445 269 c 0,29,30
 445 339 445 339 441.5 376.5 c 128,-1,31
 438 414 438 414 427.5 431.5 c 128,-1,32
 417 449 417 449 398 449 c 0,33,23
 370 449 370 449 362.5 421.5 c 128,-1,24
EndSplineSet
Colour: ff0000
EndChar
StartChar: chi
Encoding: 967 967 737
Width: 600
Flags: W
LayerCount: 2
Fore
SplineSet
584 -193 m 1,0,-1
 428 -236 l 1,1,-1
 298 74 l 1,2,-1
 172 -236 l 1,3,-1
 15 -200 l 1,4,-1
 215 174 l 1,5,6
 182 272 182 272 131 354.5 c 128,-1,7
 80 437 80 437 17 494 c 1,8,-1
 169 548 l 1,9,10
 215 490 215 490 248.5 423.5 c 128,-1,11
 282 357 282 357 303 270 c 1,12,-1
 415 547 l 1,13,-1
 564 514 l 1,14,-1
 382 173 l 1,15,-1
 584 -193 l 1,0,-1
EndSplineSet
Colour: ff0000
EndChar
StartChar: uni03CF
Encoding: 975 975 608
Width: 600
Flags: W
LayerCount: 2
Fore
SplineSet
50 693 m 1,0,-1
 214 693 l 1,1,-1
 214 0 l 1,2,-1
 50 0 l 1,3,-1
 50 693 l 1,0,-1
529.5 -175.5 m 128,-1,5
 477 -227 477 -227 381 -227 c 0,6,7
 338 -227 338 -227 306.5 -215.5 c 128,-1,8
 275 -204 275 -204 246 -182 c 1,9,-1
 306 -90 l 1,10,11
 324 -99 324 -99 336 -103 c 128,-1,12
 348 -107 348 -107 366 -107 c 0,13,14
 392 -107 392 -107 405 -91.5 c 128,-1,15
 418 -76 418 -76 418 -40 c 2,16,-1
 418 0 l 1,17,-1
 390 0 l 1,18,-1
 219 370 l 1,19,-1
 388 693 l 1,20,-1
 556 693 l 1,21,-1
 385 382 l 1,22,-1
 512 126 l 1,23,-1
 582 126 l 1,24,-1
 582 -26 l 2,25,4
 582 -124 582 -124 529.5 -175.5 c 128,-1,5
EndSplineSet
Colour: ff0000
EndChar
StartChar: uni03D1
Encoding: 977 977 764
Width: 600
Flags: W
LayerCount: 2
Fore
SplineSet
552 402 m 1,0,-1
 518 402 l 1,1,2
 517 259 517 259 492.5 167 c 128,-1,3
 468 75 468 75 412.5 29 c 128,-1,4
 357 -17 357 -17 266 -17 c 0,5,6
 183 -17 183 -17 130 32.5 c 128,-1,7
 77 82 77 82 77 180 c 2,8,-1
 77 353 l 1,9,-1
 228 353 l 1,10,-1
 228 171 l 2,11,12
 228 133 228 133 240.5 115 c 128,-1,13
 253 97 253 97 274 97 c 0,14,15
 303 97 303 97 321 125 c 128,-1,16
 339 153 339 153 347.5 219 c 128,-1,17
 356 285 356 285 356 400 c 2,18,-1
 356 401 l 1,19,-1
 280 401 l 1,20,21
 173 400 173 400 117.5 446.5 c 128,-1,22
 62 493 62 493 62 572 c 0,23,24
 62 622 62 622 88 665 c 128,-1,25
 114 708 114 708 160.5 733.5 c 128,-1,26
 207 759 207 759 265 759 c 0,27,28
 369 759 369 759 430.5 693.5 c 128,-1,29
 492 628 492 628 510 508 c 1,30,-1
 552 508 l 1,31,-1
 552 402 l 1,0,-1
351 507 m 1,32,33
 343 582 343 582 321.5 613.5 c 128,-1,34
 300 645 300 645 265 645 c 0,35,36
 236 645 236 645 219.5 626 c 128,-1,37
 203 607 203 607 203 576 c 0,38,39
 203 543 203 543 224 525 c 128,-1,40
 245 507 245 507 280 507 c 2,41,-1
 351 507 l 1,32,33
EndSplineSet
Colour: ff0000
EndChar
StartChar: uni03D2
Encoding: 978 978 609
Width: 600
Flags: W
LayerCount: 2
Fore
SplineSet
555 592 m 0,1,2
 540 592 540 592 529.5 582 c 128,-1,3
 519 572 519 572 508 546 c 2,4,-1
 383 260 l 1,5,-1
 383 0 l 1,6,-1
 218 0 l 1,7,-1
 218 259 l 1,8,-1
 13 693 l 1,9,-1
 192 693 l 1,10,-1
 302 395 l 1,11,-1
 377 592 l 2,12,13
 401 656 401 656 435.5 683.5 c 128,-1,14
 470 711 470 711 534 711 c 0,15,16
 572 711 572 711 600 701 c 1,17,-1
 576 589 l 1,18,0
 566 592 566 592 555 592 c 0,1,2
EndSplineSet
Colour: ff0000
EndChar
StartChar: uni03D6
Encoding: 982 982 766
Width: 600
Flags: W
LayerCount: 2
Fore
SplineSet
579 425 m 1,0,-1
 518 425 l 1,1,2
 565 329 565 329 565 232 c 0,3,4
 565 112 565 112 524.5 47.5 c 128,-1,5
 484 -17 484 -17 413 -17 c 0,6,7
 369 -17 369 -17 340 7.5 c 128,-1,8
 311 32 311 32 296 87 c 1,9,10
 280 33 280 33 252.5 8 c 128,-1,11
 225 -17 225 -17 185 -17 c 0,12,13
 112 -17 112 -17 70.5 47 c 128,-1,14
 29 111 29 111 29 232 c 0,15,16
 29 325 29 325 75 424 c 1,17,18
 44 423 44 423 12 413 c 1,19,-1
 -15 508 l 1,20,21
 13 520 13 520 44.5 525 c 128,-1,22
 76 530 76 530 141 531 c 1,23,-1
 579 531 l 1,24,-1
 579 425 l 1,0,-1
416 425 m 1,26,-1
 178 424 l 1,27,28
 163 337 163 337 163 251 c 0,29,30
 163 170 163 170 172.5 134.5 c 128,-1,31
 182 99 182 99 206 99 c 0,32,33
 228 99 228 99 236 128.5 c 128,-1,34
 244 158 244 158 244 234 c 2,35,-1
 244 322 l 1,36,-1
 352 339 l 1,37,-1
 352 239 l 2,38,39
 352 183 352 183 355 154 c 128,-1,40
 358 125 358 125 366.5 112 c 128,-1,41
 375 99 375 99 392 99 c 0,42,43
 416 99 416 99 424 133.5 c 128,-1,44
 432 168 432 168 432 251 c 0,45,25
 432 331 432 331 416 425 c 1,26,-1
EndSplineSet
Colour: ff0000
EndChar
StartChar: uni03D7
Encoding: 983 983 762
Width: 600
Flags: W
LayerCount: 2
Fore
SplineSet
555 89 m 1,0,-1
 556 89 l 1,1,-1
 556 -37 l 2,2,3
 556 -131 556 -131 505 -179.5 c 128,-1,4
 454 -228 454 -228 363 -228 c 0,5,6
 318 -228 318 -228 281 -216 c 128,-1,7
 244 -204 244 -204 218 -185 c 1,8,-1
 271 -92 l 1,9,10
 293 -102 293 -102 310.5 -107 c 128,-1,11
 328 -112 328 -112 353 -112 c 0,12,13
 383 -112 383 -112 400 -96.5 c 128,-1,14
 417 -81 417 -81 417 -50 c 2,15,-1
 418 36 l 1,16,17
 367 68 367 68 367 138 c 0,18,19
 367 204 367 204 413 359 c 1,20,-1
 179 -13 l 1,21,-1
 86 22 l 1,22,-1
 87 353 l 2,23,24
 87 388 87 388 77.5 405.5 c 128,-1,25
 68 423 68 423 44 435 c 1,26,-1
 89 549 l 1,27,28
 157 535 157 535 194.5 496 c 128,-1,29
 232 457 232 457 232 394 c 0,30,31
 232 354 232 354 219 301 c 128,-1,32
 206 248 206 248 184 173 c 1,33,-1
 418 545 l 1,34,-1
 513 510 l 1,35,-1
 512 179 l 2,36,37
 512 138 512 138 521.5 120.5 c 128,-1,38
 531 103 531 103 556 90 c 1,39,-1
 555 89 l 1,0,-1
EndSplineSet
Colour: ff0000
EndChar
StartChar: uni03D8
Encoding: 984 984 603
Width: 600
Flags: W
LayerCount: 2
Fore
SplineSet
526 113 m 128,-1,1
 475 20 475 20 378 -7 c 1,2,-1
 378 -210 l 1,3,-1
 222 -210 l 1,4,-1
 222 -7 l 1,5,6
 125 19 125 19 74 111 c 128,-1,7
 23 203 23 203 23 347 c 0,8,9
 23 516 23 516 94.5 613.5 c 128,-1,10
 166 711 166 711 300 711 c 0,11,12
 435 711 435 711 506 614.5 c 128,-1,13
 577 518 577 518 577 347 c 0,14,0
 577 206 577 206 526 113 c 128,-1,1
384 161 m 128,-1,16
 409 219 409 219 409 347 c 256,17,18
 409 475 409 475 383.5 533 c 128,-1,19
 358 591 358 591 300 591 c 256,20,21
 242 591 242 591 216.5 533 c 128,-1,22
 191 475 191 475 191 347 c 256,23,24
 191 219 191 219 216.5 161 c 128,-1,25
 242 103 242 103 300 103 c 0,26,15
 359 103 359 103 384 161 c 128,-1,16
EndSplineSet
Colour: ff0000
EndChar
StartChar: uni03DB
Encoding: 987 987 758
Width: 600
Flags: W
LayerCount: 2
Fore
SplineSet
535 575 m 1,0,1
 535 514 535 514 515.5 480 c 128,-1,2
 496 446 496 446 461.5 429 c 128,-1,3
 427 412 427 412 360 392 c 1,4,5
 305 377 305 377 276.5 362.5 c 128,-1,6
 248 348 248 348 234.5 324 c 128,-1,7
 221 300 221 300 221 259 c 0,8,9
 221 221 221 221 233.5 196.5 c 128,-1,10
 246 172 246 172 276 153.5 c 128,-1,11
 306 135 306 135 364 115 c 0,12,13
 449 86 449 86 485.5 54 c 128,-1,14
 522 22 522 22 522 -35 c 0,15,16
 522 -95 522 -95 478.5 -139 c 128,-1,17
 435 -183 435 -183 341 -223 c 1,18,-1
 282 -129 l 1,19,20
 323 -107 323 -107 341 -89.5 c 128,-1,21
 359 -72 359 -72 359 -48 c 0,22,23
 359 -29 359 -29 334.5 -14.5 c 128,-1,24
 310 0 310 0 240 25 c 0,25,26
 176 48 176 48 137 75 c 128,-1,27
 98 102 98 102 77.5 144.5 c 128,-1,28
 57 187 57 187 57 253 c 0,29,30
 57 352 57 352 103.5 403.5 c 128,-1,31
 150 455 150 455 244 485 c 1,32,-1
 292 499 l 2,33,34
 337 512 337 512 357.5 520.5 c 128,-1,35
 378 529 378 529 389.5 544 c 128,-1,36
 401 559 401 559 401 586 c 1,37,-1
 535 575 l 1,0,1
EndSplineSet
Colour: ff0000
EndChar
StartChar: uni03DD
Encoding: 989 989 759
Width: 600
Flags: W
LayerCount: 2
Fore
SplineSet
267 392 m 128,-1,1
 249 372 249 372 249 335 c 2,2,-1
 249 250 l 1,3,-1
 383 250 l 2,4,5
 423 250 423 250 451 243.5 c 128,-1,6
 479 237 479 237 503 222 c 1,7,-1
 466 119 l 1,8,9
 424 135 424 135 374 135 c 2,10,-1
 249 135 l 1,11,-1
 249 -200 l 1,12,-1
 91 -223 l 1,13,-1
 91 339 l 2,14,15
 91 394 91 394 115 437.5 c 128,-1,16
 139 481 139 481 186 506 c 128,-1,17
 233 531 233 531 299 531 c 2,18,-1
 540 531 l 1,19,-1
 524 413 l 1,20,-1
 318 412 l 2,21,0
 285 412 285 412 267 392 c 128,-1,1
EndSplineSet
Colour: ff0000
EndChar
StartChar: uni03E0
Encoding: 992 992 607
Width: 600
Flags: W
LayerCount: 2
Fore
SplineSet
454 0 m 1,0,-1
 381 235 l 1,1,-1
 313 0 l 1,2,-1
 213 1 l 1,3,-1
 332 391 l 1,4,-1
 305 478 l 1,5,-1
 152 0 l 1,6,-1
 5 0 l 1,7,-1
 249 633 l 1,8,-1
 223 693 l 1,9,-1
 347 693 l 1,10,-1
 595 0 l 1,11,-1
 454 0 l 1,0,-1
EndSplineSet
Colour: ff0000
EndChar
StartChar: uni03F0
Encoding: 1008 1008 767
Width: 600
Flags: W
LayerCount: 2
Fore
SplineSet
521.5 126.5 m 128,-1,1
 531 109 531 109 556 97 c 1,2,-1
 510 -17 l 1,3,4
 442 -3 442 -3 404.5 36 c 128,-1,5
 367 75 367 75 367 138 c 0,6,7
 367 178 367 178 380 231 c 128,-1,8
 393 284 393 284 415 359 c 1,9,-1
 181 -13 l 1,10,-1
 88 22 l 1,11,-1
 89 353 l 2,12,13
 89 388 89 388 79.5 405.5 c 128,-1,14
 70 423 70 423 45 435 c 1,15,-1
 91 549 l 1,16,17
 159 535 159 535 196.5 496 c 128,-1,18
 234 457 234 457 234 394 c 0,19,20
 234 354 234 354 221 301 c 128,-1,21
 208 248 208 248 186 173 c 1,22,-1
 419 545 l 1,23,-1
 513 507 l 1,24,-1
 512 179 l 2,25,0
 512 144 512 144 521.5 126.5 c 128,-1,1
EndSplineSet
Colour: ff0000
EndChar
StartChar: uni03F9
Encoding: 1017 1017 614
Width: 600
Flags: W
LayerCount: 2
Fore
SplineSet
482 692 m 128,-1,1
 534 673 534 673 580 635 c 1,2,-1
 500 538 l 1,3,4
 437 589 437 589 362 589 c 0,5,6
 291 589 291 589 247.5 529 c 128,-1,7
 204 469 204 469 204 348 c 256,8,9
 204 227 204 227 247 168.5 c 128,-1,10
 290 110 290 110 365 110 c 0,11,12
 411 110 411 110 444 126 c 128,-1,13
 477 142 477 142 515 172 c 1,14,-1
 589 77 l 1,15,16
 497 -17 497 -17 356 -17 c 0,17,18
 261 -17 261 -17 188.5 25 c 128,-1,19
 116 67 116 67 75 149.5 c 128,-1,20
 34 232 34 232 34 348 c 0,21,22
 34 461 34 461 76 543 c 128,-1,23
 118 625 118 625 192 668 c 128,-1,24
 266 711 266 711 358 711 c 0,25,0
 430 711 430 711 482 692 c 128,-1,1
EndSplineSet
Colour: ff0000
EndChar
StartChar: uni03FC
Encoding: 1020 1020 774
Width: 600
Flags: W
LayerCount: 2
Fore
SplineSet
249 39 m 1,1,-1
 249 -52 l 1,2,-1
 387 -52 l 1,3,-1
 387 -146 l 1,4,-1
 249 -146 l 1,5,-1
 249 -205 l 1,6,-1
 91 -222 l 1,7,-1
 91 -146 l 1,8,-1
 29 -146 l 1,9,-1
 29 -52 l 1,10,-1
 91 -52 l 1,11,-1
 91 275 l 2,12,13
 91 408 91 408 152 478.5 c 128,-1,14
 213 549 213 549 334 549 c 0,15,16
 457 549 457 549 519 477.5 c 128,-1,17
 581 406 581 406 581 267 c 0,18,19
 581 186 581 186 556.5 121.5 c 128,-1,20
 532 57 532 57 485.5 20 c 128,-1,21
 439 -17 439 -17 375 -17 c 0,22,0
 296 -17 296 -17 249 39 c 1,1,-1
249 146 m 1,23,24
 280 99 280 99 327 99 c 0,25,26
 372 99 372 99 395 139.5 c 128,-1,27
 418 180 418 180 418 265 c 0,28,29
 418 358 418 358 397 395.5 c 128,-1,30
 376 433 376 433 332 433 c 0,31,32
 286 433 286 433 267.5 390.5 c 128,-1,33
 249 348 249 348 249 248 c 2,34,-1
 249 146 l 1,23,24
EndSplineSet
Colour: ff0000
EndChar
StartChar: uni03FF
Encoding: 1023 1023 618
Width: 600
Flags: W
LayerCount: 2
Fore
SplineSet
419.5 668.5 m 128,-1,1
 490 626 490 626 528 544.5 c 128,-1,2
 566 463 566 463 566 348 c 0,3,4
 566 232 566 232 525 149.5 c 128,-1,5
 484 67 484 67 411.5 25 c 128,-1,6
 339 -17 339 -17 244 -17 c 0,7,8
 103 -17 103 -17 11 77 c 1,9,-1
 85 170 l 1,10,11
 125 141 125 141 157 125.5 c 128,-1,12
 189 110 189 110 235 110 c 0,13,14
 310 110 310 110 353 168.5 c 128,-1,15
 396 227 396 227 396 348 c 0,16,17
 396 474 396 474 359 531.5 c 128,-1,18
 322 589 322 589 244 589 c 0,19,20
 201 589 201 589 163.5 576.5 c 128,-1,21
 126 564 126 564 88 539 c 1,22,-1
 20 635 l 1,23,24
 73 674 73 674 128 692.5 c 128,-1,25
 183 711 183 711 252 711 c 0,26,0
 349 711 349 711 419.5 668.5 c 128,-1,1
293.5 411 m 128,-1,28
 318 387 318 387 318 351 c 256,29,30
 318 315 318 315 293.5 291 c 128,-1,31
 269 267 269 267 230 267 c 0,32,33
 192 267 192 267 167 291 c 128,-1,34
 142 315 142 315 142 351 c 256,35,36
 142 387 142 387 167 411 c 128,-1,37
 192 435 192 435 230 435 c 0,38,27
 269 435 269 435 293.5 411 c 128,-1,28
EndSplineSet
Colour: ff0000
EndChar
StartChar: uni0402
Encoding: 1026 1026 331
Width: 600
Flags: W
LayerCount: 2
Fore
SplineSet
284 426 m 1,0,1
 336 470 336 470 403 470 c 0,2,3
 491 470 491 470 536.5 415.5 c 128,-1,4
 582 361 582 361 582 252 c 2,5,-1
 582 99 l 2,6,7
 582 -15 582 -15 527 -76 c 128,-1,8
 472 -137 472 -137 373 -170 c 1,9,-1
 330 -58 l 1,10,11
 371 -41 371 -41 392 -20.5 c 128,-1,12
 413 0 413 0 420.5 28.5 c 128,-1,13
 428 57 428 57 428 102 c 2,14,-1
 428 266 l 2,15,16
 428 313 428 313 412.5 333 c 128,-1,17
 397 353 397 353 360 353 c 0,18,19
 319 353 319 353 284 320 c 1,20,-1
 284 0 l 1,21,-1
 131 0 l 1,22,-1
 131 576 l 1,23,-1
 -8 576 l 1,24,-1
 -8 693 l 1,25,-1
 440 693 l 1,26,-1
 423 576 l 1,27,-1
 284 576 l 1,28,-1
 284 426 l 1,0,1
EndSplineSet
Colour: ff0000
EndChar
StartChar: uni040B
Encoding: 1035 1035 328
Width: 600
Flags: W
LayerCount: 2
Fore
SplineSet
423 576 m 1,0,-1
 284 576 l 1,1,-1
 284 426 l 1,2,3
 336 470 336 470 403 470 c 0,4,5
 491 470 491 470 536.5 415.5 c 128,-1,6
 582 361 582 361 582 252 c 2,7,-1
 582 0 l 1,8,-1
 428 0 l 1,9,-1
 428 266 l 2,10,11
 428 313 428 313 412.5 333 c 128,-1,12
 397 353 397 353 360 353 c 0,13,14
 319 353 319 353 284 320 c 1,15,-1
 284 0 l 1,16,-1
 131 0 l 1,17,-1
 131 576 l 1,18,-1
 -8 576 l 1,19,-1
 -8 693 l 1,20,-1
 440 693 l 1,21,-1
 423 576 l 1,0,-1
EndSplineSet
Colour: ff0000
EndChar
StartChar: uni0413
Encoding: 1043 1043 285
Width: 600
Flags: W
LayerCount: 2
Fore
SplineSet
543 564 m 1,0,-1
 254 564 l 1,1,-1
 254 0 l 1,2,-1
 90 0 l 1,3,-1
 90 693 l 1,4,-1
 559 693 l 1,5,-1
 543 564 l 1,0,-1
EndSplineSet
Colour: ff0000
EndChar
StartChar: uni0416
Encoding: 1046 1046 292
Width: 600
Flags: W
LayerCount: 2
Fore
SplineSet
220 320 m 1,0,-1
 142 0 l 1,1,-1
 2 0 l 1,2,-1
 110 379 l 1,3,-1
 12 693 l 1,4,-1
 147 693 l 1,5,-1
 223 402 l 1,6,-1
 250 402 l 1,7,-1
 250 693 l 1,8,-1
 350 693 l 1,9,-1
 350 402 l 1,10,-1
 377 402 l 1,11,-1
 453 693 l 1,12,-1
 588 693 l 1,13,-1
 490 379 l 1,14,-1
 598 0 l 1,15,-1
 456 0 l 1,16,-1
 378 320 l 1,17,-1
 350 320 l 1,18,-1
 350 0 l 1,19,-1
 250 0 l 1,20,-1
 250 320 l 1,21,-1
 220 320 l 1,0,-1
EndSplineSet
Colour: ff0000
EndChar
StartChar: uni0418
Encoding: 1048 1048 294
Width: 600
Flags: W
LayerCount: 2
Fore
SplineSet
52 693 m 1,0,-1
 202 693 l 1,1,-1
 202 458 l 2,2,3
 202 360 202 360 195 289.5 c 128,-1,4
 188 219 188 219 174 143 c 1,5,-1
 367 693 l 1,6,-1
 548 693 l 1,7,-1
 548 0 l 1,8,-1
 398 0 l 1,9,-1
 398 230 l 2,10,11
 398 394 398 394 425 549 c 1,12,-1
 236 0 l 1,13,-1
 52 0 l 1,14,-1
 52 693 l 1,0,-1
EndSplineSet
Colour: ff0000
EndChar
StartChar: uni041F
Encoding: 1055 1055 304
Width: 600
Flags: W
LayerCount: 2
Fore
SplineSet
384 567 m 1,0,-1
 216 567 l 1,1,-1
 216 0 l 1,2,-1
 52 0 l 1,3,-1
 52 693 l 1,4,-1
 548 693 l 1,5,-1
 548 0 l 1,6,-1
 384 0 l 1,7,-1
 384 567 l 1,0,-1
EndSplineSet
Colour: ff0000
EndChar
StartChar: uni0423
Encoding: 1059 1059 308
Width: 600
Flags: W
LayerCount: 2
Fore
SplineSet
431 236 m 2,0,1
 396 144 396 144 357 92.5 c 128,-1,2
 318 41 318 41 260 16 c 128,-1,3
 202 -9 202 -9 106 -17 c 1,4,-1
 85 95 l 1,5,6
 163 102 163 102 201 121.5 c 128,-1,7
 239 141 239 141 263 183 c 1,8,-1
 210 183 l 1,9,-1
 -5 693 l 1,10,-1
 165 693 l 1,11,-1
 311 277 l 1,12,-1
 441 693 l 1,13,-1
 607 693 l 1,14,-1
 431 236 l 2,0,1
EndSplineSet
Colour: ff0000
EndChar
StartChar: uni0427
Encoding: 1063 1063 312
Width: 600
Flags: W
LayerCount: 2
Fore
SplineSet
548 693 m 1,0,-1
 548 0 l 1,1,-1
 384 0 l 1,2,-1
 384 243 l 1,3,4
 323 198 323 198 240 198 c 0,5,6
 138 198 138 198 81.5 258.5 c 128,-1,7
 25 319 25 319 25 434 c 2,8,-1
 25 693 l 1,9,-1
 189 693 l 1,10,-1
 189 439 l 2,11,12
 189 374 189 374 211.5 346.5 c 128,-1,13
 234 319 234 319 286 319 c 0,14,15
 344 319 344 319 384 355 c 1,16,-1
 384 693 l 1,17,-1
 548 693 l 1,0,-1
EndSplineSet
Colour: ff0000
EndChar
StartChar: uni0428
Encoding: 1064 1064 314
Width: 600
Flags: W
LayerCount: 2
Fore
SplineSet
565 0 m 1,0,-1
 35 0 l 1,1,-1
 35 693 l 1,2,-1
 165 693 l 1,3,-1
 165 112 l 1,4,-1
 243 112 l 1,5,-1
 243 693 l 1,6,-1
 358 693 l 1,7,-1
 358 112 l 1,8,-1
 435 112 l 1,9,-1
 435 693 l 1,10,-1
 565 693 l 1,11,-1
 565 0 l 1,0,-1
EndSplineSet
Colour: ff0000
EndChar
StartChar: uni0429
Encoding: 1065 1065 315
Width: 600
Flags: W
LayerCount: 2
Fore
SplineSet
613 122 m 1,0,-1
 613 -174 l 1,1,-1
 488 -174 l 1,2,-1
 468 0 l 1,3,-1
 35 0 l 1,4,-1
 35 693 l 1,5,-1
 165 693 l 1,6,-1
 165 112 l 1,7,-1
 243 112 l 1,8,-1
 243 693 l 1,9,-1
 358 693 l 1,10,-1
 358 112 l 1,11,-1
 435 112 l 1,12,-1
 435 693 l 1,13,-1
 565 693 l 1,14,-1
 565 122 l 1,15,-1
 613 122 l 1,0,-1
EndSplineSet
Colour: ff0000
EndChar
StartChar: uni042A
Encoding: 1066 1066 318
Width: 600
Flags: W
LayerCount: 2
Fore
SplineSet
245 459 m 1,0,-1
 297 459 l 2,1,2
 436 459 436 459 511.5 403.5 c 128,-1,3
 587 348 587 348 587 236 c 0,4,5
 587 118 587 118 512 59 c 128,-1,6
 437 0 437 0 309 0 c 2,7,-1
 91 0 l 1,8,-1
 91 573 l 1,9,-1
 -3 573 l 1,10,-1
 -3 693 l 1,11,-1
 245 693 l 1,12,-1
 245 459 l 1,0,-1
245 346 m 1,13,-1
 245 117 l 1,14,-1
 279 117 l 2,15,16
 349 117 349 117 384.5 143.5 c 128,-1,17
 420 170 420 170 420 235 c 0,18,19
 420 291 420 291 388.5 318.5 c 128,-1,20
 357 346 357 346 292 346 c 2,21,-1
 245 346 l 1,13,-1
EndSplineSet
Colour: ff0000
EndChar
StartChar: uni042C
Encoding: 1068 1068 317
Width: 600
Flags: W
LayerCount: 2
Fore
SplineSet
219 459 m 1,0,-1
 287 459 l 2,1,2
 426 459 426 459 501 403.5 c 128,-1,3
 576 348 576 348 576 236 c 0,4,5
 576 119 576 119 501.5 59.5 c 128,-1,6
 427 0 427 0 298 0 c 2,7,-1
 55 0 l 1,8,-1
 55 693 l 1,9,-1
 219 693 l 1,10,-1
 219 459 l 1,0,-1
219 343 m 1,11,-1
 219 120 l 1,12,-1
 287 120 l 2,13,14
 347 120 347 120 377 147.5 c 128,-1,15
 407 175 407 175 407 235 c 0,16,17
 407 290 407 290 376.5 316.5 c 128,-1,18
 346 343 346 343 281 343 c 2,19,-1
 219 343 l 1,11,-1
EndSplineSet
Colour: ff0000
EndChar
StartChar: uni042D
Encoding: 1069 1069 324
Width: 600
Flags: W
LayerCount: 2
Fore
SplineSet
481.5 618.5 m 128,-1,1
 560 526 560 526 560 351 c 0,2,3
 560 230 560 230 520.5 147.5 c 128,-1,4
 481 65 481 65 410 24 c 128,-1,5
 339 -17 339 -17 243 -17 c 0,6,7
 174 -17 174 -17 115.5 5.5 c 128,-1,8
 57 28 57 28 14 71 c 1,9,-1
 90 160 l 1,10,11
 126 133 126 133 161 120 c 128,-1,12
 196 107 196 107 241 107 c 0,13,14
 386 107 386 107 394 297 c 1,15,-1
 137 297 l 1,16,-1
 137 412 l 1,17,-1
 394 412 l 1,18,19
 389 508 389 508 352.5 550 c 128,-1,20
 316 592 316 592 247 592 c 0,21,22
 202 592 202 592 167 577.5 c 128,-1,23
 132 563 132 563 98 538 c 1,24,-1
 22 624 l 1,25,26
 72 666 72 666 129.5 688.5 c 128,-1,27
 187 711 187 711 260 711 c 0,28,0
 403 711 403 711 481.5 618.5 c 128,-1,1
EndSplineSet
Colour: ff0000
EndChar
StartChar: uni0434
Encoding: 1076 1076 425
Width: 600
Flags: W
LayerCount: 2
Fore
SplineSet
573 117 m 1,0,-1
 573 -174 l 1,1,-1
 454 -174 l 1,2,-1
 434 0 l 1,3,-1
 152 0 l 1,4,-1
 132 -174 l 1,5,-1
 13 -174 l 1,6,-1
 13 117 l 1,7,-1
 55 117 l 1,8,9
 83 144 83 144 97.5 194 c 128,-1,10
 112 244 112 244 121 361 c 2,11,-1
 135 531 l 1,12,-1
 522 531 l 1,13,-1
 522 117 l 1,14,-1
 573 117 l 1,0,-1
375 117 m 1,15,-1
 375 421 l 1,16,-1
 274 421 l 1,17,-1
 270 367 l 2,18,19
 263 283 263 283 253 236.5 c 128,-1,20
 243 190 243 190 227.5 164 c 128,-1,21
 212 138 212 138 185 117 c 1,22,-1
 373 117 l 1,23,-1
 375 117 l 1,15,-1
EndSplineSet
Colour: ff0000
EndChar
StartChar: uni0435
Encoding: 1077 1077 426
Width: 600
Flags: W
LayerCount: 2
Fore
SplineSet
335 98 m 0,1,2
 403 98 403 98 471 142 c 1,3,-1
 534 56 l 1,4,5
 495 22 495 22 441 2.5 c 128,-1,6
 387 -17 387 -17 322 -17 c 0,7,8
 233 -17 233 -17 171 18.5 c 128,-1,9
 109 54 109 54 77.5 117.5 c 128,-1,10
 46 181 46 181 46 265 c 0,11,12
 46 345 46 345 76.5 409.5 c 128,-1,13
 107 474 107 474 165.5 511.5 c 128,-1,14
 224 549 224 549 305 549 c 0,15,16
 381 549 381 549 437 516.5 c 128,-1,17
 493 484 493 484 523.5 422.5 c 128,-1,18
 554 361 554 361 554 276 c 0,19,20
 554 243 554 243 551 219 c 1,21,-1
 207 219 l 1,22,0
 222 98 222 98 335 98 c 0,1,2
236 411.5 m 128,-1,24
 210 380 210 380 205 315 c 1,25,-1
 400 315 l 1,26,27
 398 443 398 443 305 443 c 0,28,23
 262 443 262 443 236 411.5 c 128,-1,24
EndSplineSet
Colour: ff0000
EndChar
StartChar: uni0436
Encoding: 1078 1078 429
Width: 600
Flags: W
LayerCount: 2
Fore
SplineSet
246 232 m 1,0,-1
 221 232 l 1,1,-1
 136 0 l 1,2,-1
 -5 0 l 1,3,-1
 117 285 l 1,4,-1
 -2 531 l 1,5,-1
 135 531 l 1,6,-1
 219 320 l 1,7,-1
 246 320 l 1,8,-1
 246 531 l 1,9,-1
 354 531 l 1,10,-1
 354 320 l 1,11,-1
 381 320 l 1,12,-1
 469 531 l 1,13,-1
 602 531 l 1,14,-1
 484 285 l 1,15,-1
 606 0 l 1,16,-1
 468 0 l 1,17,-1
 379 232 l 1,18,-1
 354 232 l 1,19,-1
 354 0 l 1,20,-1
 246 0 l 1,21,-1
 246 232 l 1,0,-1
EndSplineSet
Colour: ff0000
EndChar
StartChar: uni0437
Encoding: 1079 1079 430
Width: 600
Flags: W
LayerCount: 2
Fore
SplineSet
265 324 m 2,0,1
 306 324 306 324 328 339.5 c 128,-1,2
 350 355 350 355 350 383 c 256,3,4
 350 411 350 411 327 425 c 128,-1,5
 304 439 304 439 261 439 c 0,6,7
 220 439 220 439 181.5 429 c 128,-1,8
 143 419 143 419 111 400 c 1,9,-1
 43 484 l 1,10,11
 89 516 89 516 147.5 532.5 c 128,-1,12
 206 549 206 549 271 549 c 0,13,14
 377 549 377 549 443 510 c 128,-1,15
 509 471 509 471 509 401 c 0,16,17
 509 314 509 314 382 281 c 1,18,19
 458 272 458 272 497 242 c 128,-1,20
 536 212 536 212 536 154 c 0,21,22
 536 72 536 72 462 27.5 c 128,-1,23
 388 -17 388 -17 268 -17 c 0,24,25
 119 -17 119 -17 26 53 c 1,26,-1
 94 144 l 1,27,28
 136 119 136 119 177 107.5 c 128,-1,29
 218 96 218 96 266 96 c 0,30,31
 319 96 319 96 345.5 113.5 c 128,-1,32
 372 131 372 131 372 162 c 0,33,34
 372 191 372 191 347.5 207 c 128,-1,35
 323 223 323 223 275 223 c 2,36,-1
 160 223 l 1,37,-1
 169 324 l 1,38,-1
 265 324 l 2,0,1
EndSplineSet
Colour: ff0000
EndChar
StartChar: uni043F
Encoding: 1087 1087 441
Width: 600
Flags: W
LayerCount: 2
Fore
SplineSet
373 414 m 1,0,-1
 227 414 l 1,1,-1
 227 0 l 1,2,-1
 70 0 l 1,3,-1
 70 531 l 1,4,-1
 530 531 l 1,5,-1
 530 0 l 1,6,-1
 373 0 l 1,7,-1
 373 414 l 1,0,-1
EndSplineSet
Colour: ff0000
EndChar
StartChar: uni0442
Encoding: 1090 1090 444
Width: 600
Flags: W
LayerCount: 2
Fore
SplineSet
545 414 m 1,0,-1
 379 414 l 1,1,-1
 379 0 l 1,2,-1
 221 0 l 1,3,-1
 221 414 l 1,4,-1
 43 414 l 1,5,-1
 43 531 l 1,6,-1
 563 531 l 1,7,-1
 545 414 l 1,0,-1
EndSplineSet
Colour: ff0000
EndChar
StartChar: uni0447
Encoding: 1095 1095 449
Width: 600
Flags: W
LayerCount: 2
Fore
SplineSet
526 0 m 1,0,-1
 368 0 l 1,1,-1
 368 198 l 1,2,3
 306 148 306 148 216 148 c 0,4,5
 135 148 135 148 91.5 192 c 128,-1,6
 48 236 48 236 48 313 c 2,7,-1
 48 531 l 1,8,-1
 206 531 l 1,9,-1
 206 333 l 2,10,11
 206 297 206 297 223.5 281 c 128,-1,12
 241 265 241 265 274 265 c 0,13,14
 299 265 299 265 324.5 274.5 c 128,-1,15
 350 284 350 284 368 300 c 1,16,-1
 368 531 l 1,17,-1
 526 531 l 1,18,-1
 526 0 l 1,0,-1
EndSplineSet
Colour: ff0000
EndChar
StartChar: uni0448
Encoding: 1096 1096 451
Width: 600
Flags: W
LayerCount: 2
Fore
SplineSet
575 0 m 1,0,-1
 25 0 l 1,1,-1
 25 531 l 1,2,-1
 159 531 l 1,3,-1
 159 117 l 1,4,-1
 242 117 l 1,5,-1
 242 531 l 1,6,-1
 358 531 l 1,7,-1
 358 117 l 1,8,-1
 440 117 l 1,9,-1
 440 531 l 1,10,-1
 575 531 l 1,11,-1
 575 0 l 1,0,-1
EndSplineSet
Colour: ff0000
EndChar
StartChar: uni0449
Encoding: 1097 1097 452
Width: 600
Flags: W
LayerCount: 2
Fore
SplineSet
626 117 m 1,0,-1
 626 -174 l 1,1,-1
 507 -174 l 1,2,-1
 488 0 l 1,3,-1
 25 0 l 1,4,-1
 25 531 l 1,5,-1
 159 531 l 1,6,-1
 159 117 l 1,7,-1
 242 117 l 1,8,-1
 242 531 l 1,9,-1
 358 531 l 1,10,-1
 358 117 l 1,11,-1
 426 117 l 1,12,-1
 440 117 l 1,13,-1
 440 531 l 1,14,-1
 575 531 l 1,15,-1
 575 117 l 1,16,-1
 626 117 l 1,0,-1
EndSplineSet
Colour: ff0000
EndChar
StartChar: uni044B
Encoding: 1099 1099 456
Width: 600
Flags: W
LayerCount: 2
Fore
SplineSet
161 369 m 1,0,-1
 170 369 l 2,1,2
 289 369 289 369 347 324.5 c 128,-1,3
 405 280 405 280 405 187 c 0,4,5
 405 95 405 95 348 47.5 c 128,-1,6
 291 0 291 0 187 0 c 2,7,-1
 26 0 l 1,8,-1
 26 531 l 1,9,-1
 161 531 l 1,10,-1
 161 369 l 1,0,-1
574 0 m 1,11,-1
 439 0 l 1,12,-1
 439 531 l 1,13,-1
 574 531 l 1,14,-1
 574 0 l 1,11,-1
161 275 m 1,15,-1
 161 98 l 1,16,-1
 184 98 l 2,17,18
 223 98 223 98 243 119.5 c 128,-1,19
 263 141 263 141 263 189 c 0,20,21
 263 234 263 234 243 254.5 c 128,-1,22
 223 275 223 275 179 275 c 2,23,-1
 161 275 l 1,15,-1
EndSplineSet
Colour: ff0000
EndChar
StartChar: uni044E
Encoding: 1102 1102 466
Width: 600
Flags: W
LayerCount: 2
Fore
SplineSet
587 267 m 0,1,2
 587 129 587 129 542.5 56 c 128,-1,3
 498 -17 498 -17 398 -17 c 0,4,5
 308 -17 308 -17 263.5 42.5 c 128,-1,6
 219 102 219 102 212 216 c 1,7,-1
 164 216 l 1,8,-1
 164 0 l 1,9,-1
 32 0 l 1,10,-1
 32 531 l 1,11,-1
 164 531 l 1,12,-1
 164 323 l 1,13,-1
 213 323 l 1,14,15
 221 430 221 430 265.5 489.5 c 128,-1,16
 310 549 310 549 398 549 c 0,17,0
 587 549 587 549 587 267 c 0,1,2
365.5 427 m 128,-1,19
 354 409 354 409 350 371 c 128,-1,20
 346 333 346 333 346 266 c 0,21,22
 346 198 346 198 350 160.5 c 128,-1,23
 354 123 354 123 365 105 c 128,-1,24
 376 87 376 87 398 87 c 256,25,26
 420 87 420 87 431.5 105 c 128,-1,27
 443 123 443 123 447 161 c 128,-1,28
 451 199 451 199 451 267 c 0,29,30
 451 363 451 363 439.5 404 c 128,-1,31
 428 445 428 445 398 445 c 0,32,18
 377 445 377 445 365.5 427 c 128,-1,19
EndSplineSet
Colour: ff0000
EndChar
StartChar: uni044F
Encoding: 1103 1103 467
Width: 600
Flags: W
LayerCount: 2
Fore
SplineSet
525 531 m 1,0,-1
 525 0 l 1,1,-1
 367 0 l 1,2,-1
 367 186 l 1,3,-1
 287 186 l 1,4,-1
 187 0 l 1,5,-1
 20 0 l 1,6,-1
 150 219 l 1,7,8
 107 240 107 240 83.5 274 c 128,-1,9
 60 308 60 308 60 354 c 0,10,11
 60 435 60 435 124 483 c 128,-1,12
 188 531 188 531 314 531 c 2,13,-1
 525 531 l 1,0,-1
367 282 m 1,14,-1
 367 432 l 1,15,-1
 312 432 l 2,16,17
 265 432 265 432 243.5 413.5 c 128,-1,18
 222 395 222 395 222 359 c 0,19,20
 222 282 222 282 315 282 c 2,21,-1
 367 282 l 1,14,-1
EndSplineSet
Colour: ff0000
EndChar
StartChar: uni0454
Encoding: 1108 1108 460
Width: 600
Flags: W
LayerCount: 2
Fore
SplineSet
540 482 m 1,1,-1
 474 394 l 1,2,3
 415 434 415 434 353 434 c 0,4,5
 244 434 244 434 229 321 c 1,6,-1
 439 321 l 1,7,-1
 439 221 l 1,8,-1
 229 221 l 1,9,10
 241 98 241 98 355 98 c 0,11,12
 417 98 417 98 473 138 c 1,13,-1
 540 47 l 1,14,15
 501 17 501 17 449.5 0 c 128,-1,16
 398 -17 398 -17 342 -17 c 0,17,18
 257 -17 257 -17 195 18 c 128,-1,19
 133 53 133 53 101 116 c 128,-1,20
 69 179 69 179 69 262 c 256,21,22
 69 345 69 345 103 410 c 128,-1,23
 137 475 137 475 199.5 512 c 128,-1,24
 262 549 262 549 344 549 c 0,25,0
 461 549 461 549 540 482 c 1,1,-1
EndSplineSet
Colour: ff0000
EndChar
StartChar: uni045A
Encoding: 1114 1114 458
Width: 600
Flags: W
LayerCount: 2
Fore
SplineSet
385 344 m 1,0,-1
 395 344 l 2,1,2
 605 344 605 344 605 173 c 0,3,4
 605 87 605 87 549.5 43.5 c 128,-1,5
 494 0 494 0 390 0 c 2,6,-1
 256 0 l 1,7,-1
 256 246 l 1,8,-1
 162 246 l 1,9,-1
 162 0 l 1,10,-1
 33 0 l 1,11,-1
 33 531 l 1,12,-1
 162 531 l 1,13,-1
 162 344 l 1,14,-1
 256 344 l 1,15,-1
 256 531 l 1,16,-1
 385 531 l 1,17,-1
 385 344 l 1,0,-1
385 249 m 1,18,-1
 385 100 l 1,19,-1
 388 100 l 2,20,21
 431 100 431 100 451 117 c 128,-1,22
 471 134 471 134 471 175 c 0,23,24
 471 213 471 213 454 231 c 128,-1,25
 437 249 437 249 400 249 c 2,26,-1
 385 249 l 1,18,-1
EndSplineSet
Colour: ff0000
EndChar
StartChar: uni0463
Encoding: 1123 1123 470
Width: 600
Flags: W
LayerCount: 2
Fore
SplineSet
257 548 m 1,0,-1
 390 548 l 1,1,-1
 376 455 l 1,2,-1
 257 455 l 1,3,-1
 257 369 l 1,4,-1
 307 369 l 2,5,6
 435 369 435 369 498 323.5 c 128,-1,7
 561 278 561 278 561 186 c 0,8,9
 561 95 561 95 503 47.5 c 128,-1,10
 445 0 445 0 333 0 c 2,11,-1
 99 0 l 1,12,-1
 99 455 l 1,13,-1
 36 455 l 1,14,-1
 36 548 l 1,15,-1
 99 548 l 1,16,-1
 99 658 l 1,17,-1
 257 674 l 1,18,-1
 257 548 l 1,0,-1
257 265 m 1,19,-1
 257 109 l 1,20,-1
 313 109 l 2,21,22
 356 109 356 109 377 127.5 c 128,-1,23
 398 146 398 146 398 189 c 0,24,25
 398 229 398 229 376.5 247 c 128,-1,26
 355 265 355 265 308 265 c 2,27,-1
 257 265 l 1,19,-1
EndSplineSet
Colour: ff0000
EndChar
StartChar: uni0465
Encoding: 1125 1125 471
Width: 600
Flags: W
LayerCount: 2
Fore
SplineSet
480 93.5 m 128,-1,1
 496 101 496 101 515 115 c 1,2,-1
 575 47 l 1,3,4
 548 17 548 17 512 0 c 128,-1,5
 476 -17 476 -17 435 -17 c 0,6,7
 340 -17 340 -17 286 45 c 128,-1,8
 232 107 232 107 223 216 c 1,9,-1
 176 216 l 1,10,-1
 176 0 l 1,11,-1
 43 0 l 1,12,-1
 43 531 l 1,13,-1
 176 531 l 1,14,-1
 176 323 l 1,15,-1
 225 323 l 1,16,17
 237 426 237 426 292.5 487.5 c 128,-1,18
 348 549 348 549 440 549 c 0,19,20
 519 549 519 549 575 491 c 1,21,-1
 511 421 l 1,22,23
 495 433 495 433 480 439 c 128,-1,24
 465 445 465 445 446 445 c 0,25,26
 408 445 408 445 387 415.5 c 128,-1,27
 366 386 366 386 361 321 c 1,28,-1
 505 321 l 1,29,-1
 505 221 l 1,30,-1
 361 221 l 1,31,32
 365 86 365 86 441 86 c 0,33,0
 464 86 464 86 480 93.5 c 128,-1,1
EndSplineSet
Colour: ff0000
EndChar
StartChar: uni0468
Encoding: 1128 1128 336
Width: 600
Flags: W
LayerCount: 2
Fore
SplineSet
448 264 m 1,0,-1
 432 264 l 1,1,-1
 432 -1 l 1,2,-1
 331 -1 l 1,3,-1
 331 264 l 1,4,-1
 314 264 l 1,5,-1
 264 0 l 1,6,-1
 141 0 l 1,7,-1
 196 264 l 1,8,-1
 127 264 l 1,9,-1
 127 -2 l 1,10,-1
 1 -2 l 1,11,-1
 1 693 l 1,12,-1
 127 693 l 1,13,-1
 127 357 l 1,14,-1
 215 357 l 1,15,-1
 284 693 l 1,16,-1
 483 693 l 1,17,-1
 625 0 l 1,18,-1
 498 0 l 1,19,-1
 448 264 l 1,0,-1
431 357 m 1,20,-1
 381 619 l 1,21,-1
 332 357 l 1,22,-1
 431 357 l 1,20,-1
EndSplineSet
Colour: ff0000
EndChar
StartChar: uni046A
Encoding: 1130 1130 337
Width: 600
Flags: W
LayerCount: 2
Fore
SplineSet
597 0 m 1,0,-1
 465 0 l 1,1,-1
 390 310 l 1,2,-1
 362 310 l 1,3,-1
 362 0 l 1,4,-1
 238 0 l 1,5,-1
 238 310 l 1,6,-1
 208 310 l 1,7,-1
 133 0 l 1,8,-1
 3 0 l 1,9,-1
 115 401 l 1,10,-1
 183 401 l 1,11,-1
 67 604 l 1,12,-1
 67 693 l 1,13,-1
 526 693 l 1,14,-1
 526 604 l 1,15,-1
 412 401 l 1,16,-1
 481 401 l 1,17,-1
 597 0 l 1,0,-1
299 401 m 1,18,-1
 396 601 l 1,19,-1
 198 601 l 1,20,-1
 299 401 l 1,18,-1
EndSplineSet
Colour: ff0000
EndChar
StartChar: uni046D
Encoding: 1133 1133 475
Width: 600
Flags: W
LayerCount: 2
Fore
SplineSet
632 0 m 1,0,-1
 513 0 l 1,1,-1
 480 210 l 1,2,-1
 449 210 l 1,3,-1
 449 0 l 1,4,-1
 335 0 l 1,5,-1
 335 210 l 1,6,-1
 301 210 l 1,7,-1
 268 0 l 1,8,-1
 148 0 l 1,9,-1
 199 210 l 1,10,-1
 123 210 l 1,11,-1
 123 0 l 1,12,-1
 -1 0 l 1,13,-1
 -1 531 l 1,14,-1
 123 531 l 1,15,-1
 123 305 l 1,16,-1
 280 305 l 1,17,-1
 185 457 l 1,18,-1
 185 531 l 1,19,-1
 588 531 l 1,20,-1
 588 457 l 1,21,-1
 494 305 l 1,22,-1
 560 305 l 1,23,-1
 632 0 l 1,0,-1
388 305 m 1,24,-1
 460 446 l 1,25,-1
 314 446 l 1,26,-1
 388 305 l 1,24,-1
EndSplineSet
Colour: ff0000
EndChar
StartChar: uni046E
Encoding: 1134 1134 339
Width: 600
Flags: W
LayerCount: 2
Fore
SplineSet
234 751 m 1,0,-1
 92 881 l 1,1,-1
 149 946 l 1,2,-1
 282 861 l 1,3,-1
 415 946 l 1,4,-1
 471 881 l 1,5,-1
 330 751 l 1,6,-1
 234 751 l 1,0,-1
486 337.5 m 128,-1,8
 539 291 539 291 539 196 c 0,9,10
 539 132 539 132 508.5 92 c 128,-1,11
 478 52 478 52 435 31 c 128,-1,12
 392 10 392 10 323 -11 c 0,13,14
 264 -28 264 -28 246 -39 c 128,-1,15
 228 -50 228 -50 228 -66 c 0,16,17
 228 -83 228 -83 243 -95 c 128,-1,18
 258 -107 258 -107 303 -132 c 1,19,-1
 247 -226 l 1,20,21
 67 -153 67 -153 67 -50 c 0,22,23
 67 4 67 4 102 35.5 c 128,-1,24
 137 67 137 67 226 95 c 0,25,26
 282 113 282 113 310.5 125 c 128,-1,27
 339 137 339 137 355.5 156.5 c 128,-1,28
 372 176 372 176 372 207 c 0,29,30
 372 287 372 287 268 287 c 2,31,-1
 143 287 l 1,32,-1
 143 377 l 1,33,-1
 328 570 l 1,34,-1
 61 570 l 1,35,-1
 61 693 l 1,36,-1
 503 693 l 1,37,-1
 503 575 l 1,38,-1
 318 387 l 1,39,-1
 319 387 l 1,40,7
 433 384 433 384 486 337.5 c 128,-1,8
EndSplineSet
Colour: ff0000
EndChar
StartChar: uni0475
Encoding: 1141 1141 479
Width: 600
Flags: W
LayerCount: 2
Fore
SplineSet
19 531 m 1,0,-1
 190 531 l 1,1,-1
 285 121 l 1,2,-1
 352 437 l 2,3,4
 368 513 368 513 403.5 545 c 128,-1,5
 439 577 439 577 501 577 c 0,6,7
 541 577 541 577 582 565 c 1,8,-1
 556 452 l 1,9,10
 546 456 546 456 532 456 c 0,11,12
 519 456 519 456 511 448 c 128,-1,13
 503 440 503 440 497 420 c 2,14,-1
 376 0 l 1,15,-1
 190 0 l 1,16,-1
 19 531 l 1,0,-1
EndSplineSet
Colour: ff0000
EndChar
StartChar: uni0478
Encoding: 1144 1144 344
Width: 600
Flags: W
LayerCount: 2
Fore
SplineSet
31.5 79 m 128,-1,1
 -10 175 -10 175 -10 347 c 0,2,3
 -10 516 -10 516 31.5 613.5 c 128,-1,4
 73 711 73 711 152 711 c 0,5,6
 313 711 313 711 313 347 c 0,7,8
 313 175 313 175 274 79 c 128,-1,9
 235 -17 235 -17 152 -17 c 0,10,0
 73 -17 73 -17 31.5 79 c 128,-1,1
192 144.5 m 128,-1,12
 204 206 204 206 204 347 c 256,13,14
 204 488 204 488 191.5 549.5 c 128,-1,15
 179 611 179 611 152 611 c 256,16,17
 125 611 125 611 113 550 c 128,-1,18
 101 489 101 489 101 347 c 0,19,20
 101 206 101 206 113 144.5 c 128,-1,21
 125 83 125 83 152 83 c 0,22,11
 180 83 180 83 192 144.5 c 128,-1,12
323 -150 m 1,23,24
 372 -130 372 -130 397.5 -97 c 128,-1,25
 423 -64 423 -64 433 0 c 1,26,-1
 384 0 l 1,27,-1
 313 531 l 1,28,-1
 413 531 l 1,29,-1
 453 101 l 1,30,-1
 499 531 l 1,31,-1
 595 531 l 1,32,-1
 519 0 l 2,33,34
 492 -187 492 -187 346 -223 c 1,35,-1
 323 -150 l 1,23,24
EndSplineSet
Colour: ff0000
EndChar
StartChar: uni048D
Encoding: 1165 1165 554
Width: 600
Flags: W
LayerCount: 2
Fore
SplineSet
494 308.5 m 128,-1,1
 556 264 556 264 556 178 c 0,2,3
 556 82 556 82 489 41 c 128,-1,4
 422 0 422 0 304 0 c 2,5,-1
 99 0 l 1,6,-1
 99 409 l 1,7,-1
 36 409 l 1,8,-1
 36 489 l 1,9,-1
 99 489 l 1,10,-1
 99 531 l 1,11,-1
 257 531 l 1,12,-1
 257 489 l 1,13,-1
 421 489 l 1,14,-1
 411 409 l 1,15,-1
 257 409 l 1,16,-1
 257 353 l 1,17,-1
 311 353 l 2,18,0
 432 353 432 353 494 308.5 c 128,-1,1
371.5 126 m 128,-1,20
 393 143 393 143 393 181 c 0,21,22
 393 214 393 214 373 231.5 c 128,-1,23
 353 249 353 249 313 249 c 2,24,-1
 257 249 l 1,25,-1
 257 109 l 1,26,-1
 308 109 l 2,27,19
 350 109 350 109 371.5 126 c 128,-1,20
EndSplineSet
Colour: ff0000
EndChar
StartChar: uni0491
Encoding: 1169 1169 424
Width: 600
Flags: W
LayerCount: 2
Fore
SplineSet
539 683 m 1,0,-1
 539 531 l 1,1,-1
 521 409 l 1,2,-1
 280 409 l 1,3,-1
 280 0 l 1,4,-1
 122 0 l 1,5,-1
 122 531 l 1,6,-1
 395 531 l 1,7,-1
 395 683 l 1,8,-1
 539 683 l 1,0,-1
EndSplineSet
Colour: ff0000
EndChar
StartChar: uni0492
Encoding: 1170 1170 345
Width: 600
Flags: W
LayerCount: 2
Fore
SplineSet
279 564 m 1,0,-1
 279 433 l 1,1,-1
 422 433 l 1,2,-1
 422 335 l 1,3,-1
 279 335 l 1,4,-1
 279 0 l 1,5,-1
 115 0 l 1,6,-1
 115 335 l 1,7,-1
 38 335 l 1,8,-1
 38 433 l 1,9,-1
 115 433 l 1,10,-1
 115 693 l 1,11,-1
 584 693 l 1,12,-1
 568 564 l 1,13,-1
 279 564 l 1,0,-1
EndSplineSet
Colour: ff0000
EndChar
StartChar: uni0494
Encoding: 1172 1172 346
Width: 600
Flags: W
LayerCount: 2
Fore
SplineSet
512 409 m 128,-1,1
 566 348 566 348 566 231 c 2,2,-1
 566 -26 l 2,3,4
 566 -124 566 -124 513.5 -175.5 c 128,-1,5
 461 -227 461 -227 365 -227 c 0,6,7
 322 -227 322 -227 290 -215.5 c 128,-1,8
 258 -204 258 -204 230 -182 c 1,9,-1
 290 -90 l 1,10,11
 308 -99 308 -99 320 -103 c 128,-1,12
 332 -107 332 -107 349 -107 c 0,13,14
 375 -107 375 -107 388.5 -91.5 c 128,-1,15
 402 -76 402 -76 402 -40 c 2,16,-1
 402 230 l 2,17,18
 402 295 402 295 380 322 c 128,-1,19
 358 349 358 349 307 349 c 0,20,21
 248 349 248 349 206 311 c 1,22,-1
 206 0 l 1,23,-1
 42 0 l 1,24,-1
 42 693 l 1,25,-1
 206 693 l 1,26,-1
 486 693 l 1,27,-1
 466 568 l 1,28,-1
 206 568 l 1,29,-1
 206 421 l 1,30,31
 272 470 272 470 353 470 c 0,32,0
 458 470 458 470 512 409 c 128,-1,1
EndSplineSet
Colour: ff0000
EndChar
StartChar: uni049A
Encoding: 1178 1178 349
Width: 600
Flags: W
LayerCount: 2
Fore
SplineSet
483 -174 m 1,0,-1
 463 0 l 1,1,-1
 429 0 l 1,2,-1
 279 302 l 1,3,-1
 216 302 l 1,4,-1
 216 0 l 1,5,-1
 52 0 l 1,6,-1
 52 693 l 1,7,-1
 216 693 l 1,8,-1
 216 420 l 1,9,-1
 277 420 l 1,10,-1
 430 693 l 1,11,-1
 589 693 l 1,12,-1
 413 379 l 1,13,-1
 545 122 l 1,14,-1
 608 122 l 1,15,-1
 608 -174 l 1,16,-1
 483 -174 l 1,0,-1
EndSplineSet
Colour: ff0000
EndChar
StartChar: uni049B
Encoding: 1179 1179 486
Width: 600
Flags: W
LayerCount: 2
Fore
SplineSet
598 117 m 1,0,-1
 598 -174 l 1,1,-1
 479 -174 l 1,2,-1
 460 0 l 1,3,-1
 419 0 l 1,4,-1
 300 224 l 1,5,-1
 231 224 l 1,6,-1
 231 0 l 1,7,-1
 73 0 l 1,8,-1
 73 531 l 1,9,-1
 231 531 l 1,10,-1
 231 329 l 1,11,-1
 304 329 l 1,12,-1
 419 531 l 1,13,-1
 572 531 l 1,14,-1
 425 285 l 1,15,-1
 520 117 l 1,16,-1
 598 117 l 1,0,-1
EndSplineSet
Colour: ff0000
EndChar
StartChar: uni049F
Encoding: 1183 1183 488
Width: 600
Flags: W
LayerCount: 2
Fore
SplineSet
586 0 m 1,0,-1
 419 0 l 1,1,-1
 300 224 l 1,2,-1
 250 224 l 1,3,-1
 250 0 l 1,4,-1
 92 0 l 1,5,-1
 92 565 l 1,6,-1
 13 565 l 1,7,-1
 13 657 l 1,8,-1
 92 657 l 1,9,-1
 92 742 l 1,10,-1
 250 759 l 1,11,-1
 250 657 l 1,12,-1
 372 657 l 1,13,-1
 372 565 l 1,14,-1
 250 565 l 1,15,-1
 250 329 l 1,16,-1
 304 329 l 1,17,-1
 419 531 l 1,18,-1
 572 531 l 1,19,-1
 425 285 l 1,20,-1
 586 0 l 1,0,-1
EndSplineSet
Colour: ff0000
EndChar
StartChar: uni04A4
Encoding: 1188 1188 560
Width: 600
Flags: W
LayerCount: 2
Fore
SplineSet
599 564 m 1,0,-1
 480 564 l 1,1,-1
 480 0 l 1,2,-1
 316 0 l 1,3,-1
 316 290 l 1,4,-1
 197 290 l 1,5,-1
 197 0 l 1,6,-1
 33 0 l 1,7,-1
 33 693 l 1,8,-1
 197 693 l 1,9,-1
 197 429 l 1,10,-1
 316 429 l 1,11,-1
 316 693 l 1,12,-1
 619 693 l 1,13,-1
 599 564 l 1,0,-1
EndSplineSet
Colour: ff0000
EndChar
StartChar: uni04A8
Encoding: 1192 1192 356
Width: 600
Flags: W
LayerCount: 2
Fore
SplineSet
553 139.5 m 128,-1,1
 524 76 524 76 471 35 c 1,2,3
 508 -23 508 -23 556 -89 c 1,4,-1
 474 -148 l 1,5,6
 411 -61 411 -61 378 -11 c 1,7,8
 345 -20 345 -20 307 -20 c 0,9,10
 223 -20 223 -20 158.5 22.5 c 128,-1,11
 94 65 94 65 58 147.5 c 128,-1,12
 22 230 22 230 22 345 c 0,13,14
 22 461 22 461 58 544 c 128,-1,15
 94 627 94 627 158 670 c 128,-1,16
 222 713 222 713 303 713 c 0,17,18
 371 713 371 713 419 692.5 c 128,-1,19
 467 672 467 672 515 631 c 1,20,-1
 438 541 l 1,21,22
 403 568 403 568 373.5 580.5 c 128,-1,23
 344 593 344 593 310 593 c 0,24,25
 255 593 255 593 223.5 532.5 c 128,-1,26
 192 472 192 472 192 345 c 0,27,28
 192 216 192 216 223 155 c 128,-1,29
 254 94 254 94 306 94 c 2,30,-1
 316 94 l 1,31,32
 270 188 270 188 270 273 c 0,33,34
 270 348 270 348 311 390 c 128,-1,35
 352 432 352 432 423 432 c 0,36,37
 491 432 491 432 536.5 392 c 128,-1,38
 582 352 582 352 582 274 c 0,39,0
 582 203 582 203 553 139.5 c 128,-1,1
392.5 320 m 128,-1,41
 382 305 382 305 382 276 c 0,42,43
 382 211 382 211 417 132 c 1,44,45
 460 176 460 176 460 279 c 0,46,47
 460 306 460 306 450 320.5 c 128,-1,48
 440 335 440 335 422 335 c 0,49,40
 403 335 403 335 392.5 320 c 128,-1,41
EndSplineSet
Colour: ff0000
EndChar
StartChar: uni04AC
Encoding: 1196 1196 358
Width: 600
Flags: W
LayerCount: 2
Fore
SplineSet
381 567 m 1,0,-1
 381 122 l 1,1,-1
 429 122 l 1,2,-1
 429 -174 l 1,3,-1
 304 -174 l 1,4,-1
 284 0 l 1,5,-1
 217 0 l 1,6,-1
 217 567 l 1,7,-1
 22 567 l 1,8,-1
 22 693 l 1,9,-1
 583 693 l 1,10,-1
 567 567 l 1,11,-1
 381 567 l 1,0,-1
EndSplineSet
Colour: ff0000
EndChar
StartChar: uni04AF
Encoding: 1199 1199 496
Width: 600
Flags: W
LayerCount: 2
Fore
SplineSet
223 4 m 1,0,-1
 24 531 l 1,1,-1
 196 531 l 1,2,-1
 303 138 l 1,3,-1
 415 531 l 1,4,-1
 576 531 l 1,5,-1
 377 5 l 1,6,-1
 377 -205 l 1,7,-1
 223 -222 l 1,8,-1
 223 4 l 1,0,-1
EndSplineSet
Colour: ff0000
EndChar
StartChar: uni04B0
Encoding: 1200 1200 360
Width: 600
Flags: W
LayerCount: 2
Fore
SplineSet
399 294 m 1,0,-1
 498 294 l 1,1,-1
 498 201 l 1,2,-1
 382 201 l 1,3,-1
 382 0 l 1,4,-1
 218 0 l 1,5,-1
 218 201 l 1,6,-1
 102 201 l 1,7,-1
 102 294 l 1,8,-1
 200 294 l 1,9,-1
 -8 693 l 1,10,-1
 172 693 l 1,11,-1
 303 395 l 1,12,-1
 435 693 l 1,13,-1
 608 693 l 1,14,-1
 399 294 l 1,0,-1
EndSplineSet
Colour: ff0000
EndChar
StartChar: uni04B1
Encoding: 1201 1201 497
Width: 600
Flags: W
LayerCount: 2
Fore
SplineSet
402 72 m 1,0,-1
 473 72 l 1,1,-1
 473 -16 l 1,2,-1
 377 -16 l 1,3,-1
 377 -205 l 1,4,-1
 223 -222 l 1,5,-1
 223 -16 l 1,6,-1
 128 -16 l 1,7,-1
 128 72 l 1,8,-1
 197 72 l 1,9,-1
 24 531 l 1,10,-1
 196 531 l 1,11,-1
 303 138 l 1,12,-1
 415 531 l 1,13,-1
 576 531 l 1,14,-1
 402 72 l 1,0,-1
EndSplineSet
Colour: ff0000
EndChar
StartChar: uni04B2
Encoding: 1202 1202 361
Width: 600
Flags: W
LayerCount: 2
Fore
SplineSet
472 -174 m 1,0,-1
 452 0 l 1,1,-1
 419 0 l 1,2,-1
 420 2 l 1,3,-1
 298 264 l 1,4,-1
 178 0 l 1,5,-1
 4 0 l 1,6,-1
 200 368 l 1,7,-1
 19 693 l 1,8,-1
 196 693 l 1,9,-1
 300 471 l 1,10,-1
 407 693 l 1,11,-1
 580 693 l 1,12,-1
 396 375 l 1,13,-1
 532 122 l 1,14,-1
 597 122 l 1,15,-1
 597 -174 l 1,16,-1
 472 -174 l 1,0,-1
EndSplineSet
Colour: ff0000
EndChar
StartChar: uni04B3
Encoding: 1203 1203 498
Width: 600
Flags: W
LayerCount: 2
Fore
SplineSet
399 0 m 1,0,-1
 367 61 l 1,1,-1
 367 -174 l 1,2,-1
 248 -174 l 1,3,-1
 229 0 l 1,4,-1
 22 0 l 1,5,-1
 204 279 l 1,6,-1
 39 531 l 1,7,-1
 216 531 l 1,8,-1
 301 361 l 1,9,-1
 383 531 l 1,10,-1
 551 531 l 1,11,-1
 395 285 l 1,12,-1
 578 0 l 1,13,-1
 399 0 l 1,0,-1
337 117 m 1,14,-1
 294 199 l 1,15,-1
 252 117 l 1,16,-1
 337 117 l 1,14,-1
EndSplineSet
Colour: ff0000
EndChar
StartChar: uni04B5
Encoding: 1205 1205 563
Width: 600
Flags: W
LayerCount: 2
Fore
SplineSet
567 117 m 1,0,-1
 567 -174 l 1,1,-1
 454 -174 l 1,2,-1
 434 0 l 1,3,-1
 86 0 l 1,4,-1
 86 429 l 1,5,-1
 0 429 l 1,6,-1
 0 531 l 1,7,-1
 324 531 l 1,8,-1
 300 429 l 1,9,-1
 233 429 l 1,10,-1
 233 117 l 1,11,-1
 359 117 l 1,12,-1
 359 531 l 1,13,-1
 507 531 l 1,14,-1
 507 117 l 1,15,-1
 567 117 l 1,0,-1
EndSplineSet
Colour: ff0000
EndChar
StartChar: uni04B7
Encoding: 1207 1207 499
Width: 600
Flags: W
LayerCount: 2
Fore
SplineSet
585 117 m 1,0,-1
 585 -174 l 1,1,-1
 467 -174 l 1,2,-1
 447 0 l 1,3,-1
 358 0 l 1,4,-1
 358 198 l 1,5,6
 296 148 296 148 206 148 c 0,7,8
 125 148 125 148 81.5 192 c 128,-1,9
 38 236 38 236 38 313 c 2,10,-1
 38 531 l 1,11,-1
 196 531 l 1,12,-1
 196 333 l 2,13,14
 196 297 196 297 213.5 281 c 128,-1,15
 231 265 231 265 264 265 c 0,16,17
 289 265 289 265 314.5 274.5 c 128,-1,18
 340 284 340 284 358 300 c 1,19,-1
 358 531 l 1,20,-1
 516 531 l 1,21,-1
 516 117 l 1,22,-1
 585 117 l 1,0,-1
EndSplineSet
Colour: ff0000
EndChar
StartChar: uni04B8
Encoding: 1208 1208 363
Width: 600
Flags: W
LayerCount: 2
Fore
SplineSet
548 693 m 1,0,-1
 548 0 l 1,1,-1
 384 0 l 1,2,-1
 384 243 l 1,3,4
 354 221 354 221 325 212 c 1,5,-1
 325 125 l 1,6,-1
 259 125 l 1,7,-1
 259 198 l 1,8,-1
 240 198 l 2,9,10
 138 198 138 198 81.5 258.5 c 128,-1,11
 25 319 25 319 25 434 c 2,12,-1
 25 693 l 1,13,-1
 189 693 l 1,14,-1
 189 439 l 2,15,16
 189 383 189 383 205.5 355.5 c 128,-1,17
 222 328 222 328 259 321 c 1,18,-1
 259 555 l 1,19,-1
 325 555 l 1,20,-1
 325 324 l 1,21,22
 357 331 357 331 384 355 c 1,23,-1
 384 693 l 1,24,-1
 548 693 l 1,0,-1
EndSplineSet
Colour: ff0000
EndChar
StartChar: uni04BB
Encoding: 1211 1211 501
Width: 600
Flags: W
LayerCount: 2
Fore
SplineSet
488 452.5 m 128,-1,1
 528 409 528 409 528 328 c 2,2,-1
 528 0 l 1,3,-1
 370 0 l 1,4,-1
 370 318 l 2,5,6
 370 352 370 352 358 365.5 c 128,-1,7
 346 379 346 379 319 379 c 0,8,9
 273 379 273 379 230 326 c 1,10,-1
 230 0 l 1,11,-1
 72 0 l 1,12,-1
 72 742 l 1,13,-1
 230 758 l 1,14,-1
 230 431 l 1,15,16
 258 462 258 462 295.5 479 c 128,-1,17
 333 496 333 496 376 496 c 0,18,0
 448 496 448 496 488 452.5 c 128,-1,1
EndSplineSet
Colour: ff0000
EndChar
StartChar: uni04BE
Encoding: 1214 1214 367
Width: 600
Flags: W
LayerCount: 2
Fore
SplineSet
571 286 m 1,1,-1
 282 286 l 1,2,3
 283 183 283 183 308.5 138 c 128,-1,4
 334 93 334 93 383 93 c 0,5,6
 411 93 411 93 435 104 c 128,-1,7
 459 115 459 115 489 136 c 1,8,-1
 548 57 l 1,9,10
 500 12 500 12 444 -6 c 1,11,12
 388 -28 388 -28 366.5 -53 c 128,-1,13
 345 -78 345 -78 345 -110 c 0,14,15
 345 -134 345 -134 360.5 -146.5 c 128,-1,16
 376 -159 376 -159 403 -159 c 0,17,18
 427 -159 427 -159 457 -152 c 1,19,-1
 445 -245 l 1,20,21
 416 -253 416 -253 386 -253 c 0,22,23
 320 -253 320 -253 277.5 -220.5 c 128,-1,24
 235 -188 235 -188 235 -130 c 0,25,26
 235 -54 235 -54 303 -7 c 1,27,28
 154 35 154 35 140 290 c 1,29,30
 71 290 71 290 33 330.5 c 128,-1,31
 -5 371 -5 371 -5 437 c 0,32,33
 -5 468 -5 468 2 491.5 c 128,-1,34
 9 515 9 515 23 539 c 1,35,-1
 109 505 l 1,36,37
 108 502 108 502 101.5 484.5 c 128,-1,38
 95 467 95 467 95 445 c 0,39,40
 95 419 95 419 106 406 c 128,-1,41
 117 393 117 393 140 392 c 1,42,43
 148 547 148 547 205.5 629 c 128,-1,44
 263 711 263 711 365 711 c 0,45,46
 576 711 576 711 576 357 c 0,47,0
 576 319 576 319 571 286 c 1,1,-1
420.5 556 m 128,-1,49
 403 602 403 602 365 602 c 0,50,51
 324 602 324 602 304.5 556 c 128,-1,52
 285 510 285 510 282 392 c 1,53,-1
 436 392 l 1,54,48
 438 510 438 510 420.5 556 c 128,-1,49
EndSplineSet
Colour: ff0000
EndChar
StartChar: uni04BF
Encoding: 1215 1215 504
Width: 600
Flags: W
LayerCount: 2
Fore
SplineSet
572 219 m 1,1,-1
 294 219 l 1,2,3
 298 92 298 92 393 92 c 0,4,5
 426 92 426 92 451 101.5 c 128,-1,6
 476 111 476 111 501 128 c 1,7,-1
 562 50 l 1,8,9
 527 18 527 18 482 0 c 1,10,11
 417 -22 417 -22 392 -49 c 128,-1,12
 367 -76 367 -76 367 -110 c 0,13,14
 367 -134 367 -134 382.5 -146.5 c 128,-1,15
 398 -159 398 -159 425 -159 c 0,16,17
 449 -159 449 -159 479 -152 c 1,18,-1
 467 -245 l 1,19,20
 438 -253 438 -253 408 -253 c 0,21,22
 342 -253 342 -253 299.5 -220.5 c 128,-1,23
 257 -188 257 -188 257 -130 c 0,24,25
 257 -56 257 -56 322 -10 c 1,26,27
 245 7 245 7 203 66.5 c 128,-1,28
 161 126 161 126 153 218 c 1,29,30
 84 219 84 219 44.5 255 c 128,-1,31
 5 291 5 291 5 356 c 0,32,33
 5 384 5 384 13 406.5 c 128,-1,34
 21 429 21 429 35 452 c 1,35,-1
 119 418 l 1,36,37
 105 384 105 384 105 358 c 0,38,39
 105 315 105 315 153 315 c 1,40,41
 165 420 165 420 220.5 484.5 c 128,-1,42
 276 549 276 549 368 549 c 0,43,44
 469 549 469 549 522 477.5 c 128,-1,45
 575 406 575 406 575 276 c 0,46,0
 575 243 575 243 572 219 c 1,1,-1
434 315 m 1,47,48
 433 380 433 380 417.5 413 c 128,-1,49
 402 446 402 446 367 446 c 256,50,51
 332 446 332 446 313.5 414.5 c 128,-1,52
 295 383 295 383 292 315 c 1,53,-1
 434 315 l 1,47,48
EndSplineSet
Colour: ff0000
EndChar
StartChar: uni04C5
Encoding: 1221 1221 371
Width: 600
Flags: W
LayerCount: 2
Fore
SplineSet
610 152 m 1,0,-1
 511 -174 l 1,1,-1
 376 -174 l 1,2,-1
 415 0 l 1,3,-1
 356 0 l 1,4,-1
 356 568 l 1,5,-1
 277 568 l 1,6,-1
 267 457 l 2,7,8
 251 288 251 288 228.5 198.5 c 128,-1,9
 206 109 206 109 166.5 62 c 128,-1,10
 127 15 127 15 54 -20 c 1,11,-1
 -10 88 l 1,12,13
 27 116 27 116 48 149 c 128,-1,14
 69 182 69 182 84.5 255.5 c 128,-1,15
 100 329 100 329 114 473 c 2,16,-1
 134 693 l 1,17,-1
 520 693 l 1,18,-1
 520 152 l 1,19,-1
 610 152 l 1,0,-1
EndSplineSet
Colour: ff0000
EndChar
StartChar: uni04D8
Encoding: 1240 1240 379
Width: 600
Flags: W
LayerCount: 2
Fore
SplineSet
25 403 m 1,1,-1
 413 403 l 1,2,3
 410 501 410 501 376 547 c 128,-1,4
 342 593 342 593 277 593 c 0,5,6
 234 593 234 593 203.5 579.5 c 128,-1,7
 173 566 173 566 135 538 c 1,8,-1
 60 624 l 1,9,10
 110 667 110 667 165.5 689 c 128,-1,11
 221 711 221 711 292 711 c 0,12,13
 430 711 430 711 503 619.5 c 128,-1,14
 576 528 576 528 576 351 c 256,15,16
 576 174 576 174 502.5 78.5 c 128,-1,17
 429 -17 429 -17 296 -17 c 0,18,19
 158 -17 158 -17 89 76 c 128,-1,20
 20 169 20 169 20 337 c 0,21,0
 20 370 20 370 25 403 c 1,1,-1
380.5 146 m 128,-1,23
 410 191 410 191 413 292 c 1,24,-1
 175 292 l 1,25,26
 176 191 176 191 207 146 c 128,-1,27
 238 101 238 101 296 101 c 0,28,22
 351 101 351 101 380.5 146 c 128,-1,23
EndSplineSet
Colour: ff0000
EndChar
StartChar: uni04E9
Encoding: 1257 1257 524
Width: 600
Flags: W
LayerCount: 2
Fore
SplineSet
489.5 472.5 m 128,-1,1
 558 396 558 396 558 267 c 0,2,3
 558 133 558 133 490 58 c 128,-1,4
 422 -17 422 -17 300 -17 c 256,5,6
 178 -17 178 -17 110 57.5 c 128,-1,7
 42 132 42 132 42 266 c 0,8,9
 42 351 42 351 72.5 414.5 c 128,-1,10
 103 478 103 478 161.5 513.5 c 128,-1,11
 220 549 220 549 300 549 c 0,12,0
 421 549 421 549 489.5 472.5 c 128,-1,1
229 405.5 m 128,-1,14
 204 376 204 376 198 313 c 1,15,-1
 401 313 l 1,16,17
 395 376 395 376 370 405.5 c 128,-1,18
 345 435 345 435 300 435 c 0,19,13
 254 435 254 435 229 405.5 c 128,-1,14
197 223 m 1,20,21
 203 156 203 156 228 126.5 c 128,-1,22
 253 97 253 97 300 97 c 0,23,24
 346 97 346 97 371 126.5 c 128,-1,25
 396 156 396 156 402 223 c 1,26,-1
 197 223 l 1,20,21
EndSplineSet
Colour: ff0000
EndChar
StartChar: uni04F6
Encoding: 1270 1270 394
Width: 600
Flags: W
LayerCount: 2
Fore
SplineSet
254 564 m 1,0,-1
 254 122 l 1,1,-1
 322 122 l 1,2,-1
 322 -174 l 1,3,-1
 197 -174 l 1,4,-1
 177 0 l 1,5,-1
 90 0 l 1,6,-1
 90 693 l 1,7,-1
 559 693 l 1,8,-1
 543 564 l 1,9,-1
 254 564 l 1,0,-1
EndSplineSet
Colour: ff0000
EndChar
StartChar: uni04FD
Encoding: 1277 1277 534
Width: 600
Flags: W
LayerCount: 2
Fore
SplineSet
584 -26 m 2,0,1
 584 -124 584 -124 533.5 -175.5 c 128,-1,2
 483 -227 483 -227 389 -227 c 0,3,4
 346 -227 346 -227 314.5 -215.5 c 128,-1,5
 283 -204 283 -204 254 -182 c 1,6,-1
 314 -93 l 1,7,8
 332 -102 332 -102 344.5 -106 c 128,-1,9
 357 -110 357 -110 374 -110 c 0,10,11
 400 -110 400 -110 413 -94.5 c 128,-1,12
 426 -79 426 -79 426 -43 c 2,13,-1
 426 0 l 1,14,-1
 389 0 l 1,15,-1
 284 199 l 1,16,-1
 183 0 l 1,17,-1
 12 0 l 1,18,-1
 194 279 l 1,19,-1
 29 531 l 1,20,-1
 206 531 l 1,21,-1
 291 361 l 1,22,-1
 373 531 l 1,23,-1
 541 531 l 1,24,-1
 385 285 l 1,25,-1
 493 117 l 1,26,-1
 584 117 l 1,27,-1
 584 -26 l 2,0,1
EndSplineSet
Colour: ff0000
EndChar
StartChar: uni04FE
Encoding: 1278 1278 398
Width: 600
Flags: W
LayerCount: 2
Fore
SplineSet
597 0 m 1,0,-1
 420 0 l 1,1,-1
 298 264 l 1,2,-1
 178 0 l 1,3,-1
 4 0 l 1,4,-1
 174 319 l 1,5,-1
 52 319 l 1,6,-1
 52 418 l 1,7,-1
 172 418 l 1,8,-1
 19 693 l 1,9,-1
 196 693 l 1,10,-1
 300 471 l 1,11,-1
 407 693 l 1,12,-1
 580 693 l 1,13,-1
 421 418 l 1,14,-1
 550 418 l 1,15,-1
 550 319 l 1,16,-1
 426 319 l 1,17,-1
 597 0 l 1,0,-1
EndSplineSet
Colour: ff0000
EndChar
StartChar: uni0500
Encoding: 1280 1280 399
Width: 600
Flags: W
LayerCount: 2
Fore
SplineSet
97.5 57 m 128,-1,1
 24 114 24 114 24 230 c 0,2,3
 24 339 24 339 101 399 c 128,-1,4
 178 459 178 459 313 459 c 2,5,-1
 381 459 l 1,6,-1
 381 693 l 1,7,-1
 545 693 l 1,8,-1
 545 0 l 1,9,-1
 301 0 l 2,10,0
 171 0 171 0 97.5 57 c 128,-1,1
381 120 m 1,11,-1
 381 342 l 1,12,-1
 319 342 l 2,13,14
 255 342 255 342 224 314.5 c 128,-1,15
 193 287 193 287 193 230 c 0,16,17
 193 172 193 172 223 146 c 128,-1,18
 253 120 253 120 313 120 c 2,19,-1
 381 120 l 1,11,-1
EndSplineSet
Colour: ff0000
EndChar
StartChar: uni0508
Encoding: 1288 1288 403
Width: 600
Flags: W
LayerCount: 2
Fore
SplineSet
598 246 m 0,1,2
 598 -17 598 -17 418 -17 c 0,3,4
 351 -17 351 -17 308 26.5 c 128,-1,5
 265 70 265 70 265 149 c 2,6,-1
 265 586 l 1,7,-1
 212 586 l 1,8,-1
 203 417 l 2,9,10
 195 264 195 264 179.5 183.5 c 128,-1,11
 164 103 164 103 136 60 c 128,-1,12
 108 17 108 17 53 -20 c 1,13,-1
 -5 74 l 1,14,15
 22 97 22 97 38 131.5 c 128,-1,16
 54 166 54 166 65 239.5 c 128,-1,17
 76 313 76 313 84 453 c 2,18,-1
 98 693 l 1,19,-1
 390 693 l 1,20,-1
 390 139 l 2,21,22
 390 114 390 114 399 102 c 128,-1,23
 408 90 408 90 423 90 c 0,24,25
 472 90 472 90 472 245 c 0,26,27
 472 312 472 312 467 379 c 1,28,-1
 592 379 l 1,29,0
 598 321 598 321 598 246 c 0,1,2
EndSplineSet
Colour: ff0000
EndChar
StartChar: uni0509
Encoding: 1289 1289 540
Width: 600
Flags: W
LayerCount: 2
Fore
SplineSet
596 256 m 0,1,2
 596 119 596 119 546 51 c 128,-1,3
 496 -17 496 -17 410 -17 c 0,4,5
 338 -17 338 -17 292 29.5 c 128,-1,6
 246 76 246 76 246 160 c 2,7,-1
 246 419 l 1,8,-1
 189 419 l 1,9,-1
 181 292 l 2,10,11
 174 189 174 189 158 130 c 128,-1,12
 142 71 142 71 117.5 40 c 128,-1,13
 93 9 93 9 50 -20 c 1,14,-1
 -17 67 l 1,15,16
 9 91 9 91 25 142 c 128,-1,17
 41 193 41 193 49 296 c 2,18,-1
 67 531 l 1,19,-1
 381 531 l 1,20,-1
 381 131 l 2,21,22
 381 111 381 111 389.5 100 c 128,-1,23
 398 89 398 89 412 89 c 0,24,25
 436 89 436 89 447.5 128 c 128,-1,26
 459 167 459 167 459 255 c 0,27,28
 459 319 459 319 453 379 c 1,29,-1
 590 379 l 1,30,0
 596 321 596 321 596 256 c 0,1,2
EndSplineSet
Colour: ff0000
EndChar
StartChar: uni050A
Encoding: 1290 1290 404
Width: 600
Flags: W
LayerCount: 2
Fore
SplineSet
592 246 m 0,1,2
 592 112 592 112 546 47.5 c 128,-1,3
 500 -17 500 -17 406 -17 c 0,4,5
 362 -17 362 -17 325.5 2 c 128,-1,6
 289 21 289 21 267 58.5 c 128,-1,7
 245 96 245 96 245 149 c 2,8,-1
 245 290 l 1,9,-1
 163 290 l 1,10,-1
 163 0 l 1,11,-1
 31 0 l 1,12,-1
 31 693 l 1,13,-1
 163 693 l 1,14,-1
 163 407 l 1,15,-1
 245 407 l 1,16,-1
 245 693 l 1,17,-1
 378 693 l 1,18,-1
 378 139 l 2,19,20
 378 114 378 114 387 102 c 128,-1,21
 396 90 396 90 410 90 c 0,22,23
 435 90 435 90 447 127.5 c 128,-1,24
 459 165 459 165 459 245 c 0,25,26
 459 312 459 312 454 379 c 1,27,-1
 586 379 l 1,28,0
 592 321 592 321 592 246 c 0,1,2
EndSplineSet
Colour: ff0000
EndChar
StartChar: uni050B
Encoding: 1291 1291 541
Width: 600
Flags: W
LayerCount: 2
Fore
SplineSet
596 256 m 0,1,2
 596 120 596 120 544.5 51.5 c 128,-1,3
 493 -17 493 -17 407 -17 c 0,4,5
 335 -17 335 -17 289.5 29.5 c 128,-1,6
 244 76 244 76 244 160 c 2,7,-1
 244 214 l 1,8,-1
 160 214 l 1,9,-1
 160 0 l 1,10,-1
 25 0 l 1,11,-1
 25 531 l 1,12,-1
 160 531 l 1,13,-1
 160 325 l 1,14,-1
 244 325 l 1,15,-1
 244 531 l 1,16,-1
 380 531 l 1,17,-1
 380 131 l 2,18,19
 380 111 380 111 387.5 100 c 128,-1,20
 395 89 395 89 409 89 c 0,21,22
 435 89 435 89 447.5 128 c 128,-1,23
 460 167 460 167 460 255 c 0,24,25
 460 319 460 319 454 379 c 1,26,-1
 590 379 l 1,27,0
 596 321 596 321 596 256 c 0,1,2
EndSplineSet
Colour: ff0000
EndChar
StartChar: uni050E
Encoding: 1294 1294 406
Width: 600
Flags: W
LayerCount: 2
Fore
SplineSet
580 246 m 0,1,2
 580 116 580 116 521 49.5 c 128,-1,3
 462 -17 462 -17 362 -17 c 0,4,5
 275 -17 275 -17 221.5 35.5 c 128,-1,6
 168 88 168 88 168 190 c 2,7,-1
 168 362 l 1,8,-1
 167 362 l 1,9,-1
 167 570 l 1,10,-1
 12 570 l 1,11,-1
 12 693 l 1,12,-1
 504 693 l 1,13,-1
 487 570 l 1,14,-1
 331 570 l 1,15,-1
 331 150 l 2,16,17
 331 100 331 100 367 100 c 0,18,19
 397 100 397 100 410.5 135.5 c 128,-1,20
 424 171 424 171 424 245 c 0,21,22
 424 312 424 312 419 379 c 1,23,-1
 574 379 l 1,24,0
 580 321 580 321 580 246 c 0,1,2
EndSplineSet
Colour: ff0000
EndChar
StartChar: uni0510
Encoding: 1296 1296 407
Width: 600
Flags: W
LayerCount: 2
Fore
SplineSet
461.5 689 m 128,-1,1
 522 667 522 667 575 621 c 1,2,-1
 496 538 l 1,3,4
 428 592 428 592 337 592 c 0,5,6
 282 592 282 592 251 570 c 128,-1,7
 220 548 220 548 220 509 c 0,8,9
 220 468 220 468 251 446.5 c 128,-1,10
 282 425 282 425 335 425 c 2,11,-1
 449 425 l 1,12,-1
 430 309 l 1,13,-1
 334 309 l 2,14,15
 270 309 270 309 236 283 c 128,-1,16
 202 257 202 257 202 205 c 0,17,18
 202 157 202 157 236.5 130 c 128,-1,19
 271 103 271 103 330 103 c 0,20,21
 433 103 433 103 511 166 c 1,22,-1
 593 82 l 1,23,24
 488 -17 488 -17 323 -17 c 0,25,26
 235 -17 235 -17 170.5 10 c 128,-1,27
 106 37 106 37 72 85.5 c 128,-1,28
 38 134 38 134 38 199 c 0,29,30
 38 273 38 273 85.5 316.5 c 128,-1,31
 133 360 133 360 216 369 c 1,32,33
 138 383 138 383 98.5 418.5 c 128,-1,34
 59 454 59 454 59 516 c 0,35,36
 59 573 59 573 93 617 c 128,-1,37
 127 661 127 661 187 686 c 128,-1,38
 247 711 247 711 323 711 c 0,39,0
 401 711 401 711 461.5 689 c 128,-1,1
EndSplineSet
Colour: ff0000
EndChar
StartChar: uni0514
Encoding: 1300 1300 409
Width: 600
Flags: W
LayerCount: 2
Fore
SplineSet
606 0 m 1,0,-1
 476 0 l 1,1,-1
 405 274 l 1,2,-1
 334 0 l 1,3,-1
 207 0 l 1,4,-1
 315 368 l 1,5,-1
 248 586 l 1,6,-1
 200 586 l 1,7,-1
 190 417 l 2,8,9
 181 264 181 264 166 183.5 c 128,-1,10
 151 103 151 103 122.5 60 c 128,-1,11
 94 17 94 17 40 -20 c 1,12,-1
 -17 74 l 1,13,14
 10 97 10 97 25.5 131.5 c 128,-1,15
 41 166 41 166 52 240 c 128,-1,16
 63 314 63 314 71 453 c 2,17,-1
 86 693 l 1,18,-1
 346 693 l 1,19,-1
 406 461 l 1,20,-1
 468 693 l 1,21,-1
 596 693 l 1,22,-1
 486 375 l 1,23,-1
 606 0 l 1,0,-1
EndSplineSet
Colour: ff0000
EndChar
StartChar: uni0516
Encoding: 1302 1302 410
Width: 600
Flags: W
LayerCount: 2
Fore
SplineSet
452 0 m 1,0,-1
 344 301 l 1,1,2
 291 231 291 231 201 231 c 2,3,-1
 166 231 l 1,4,-1
 166 0 l 1,5,-1
 22 0 l 1,6,-1
 22 693 l 1,7,-1
 190 693 l 2,8,9
 281 693 281 693 334.5 644 c 128,-1,10
 388 595 388 595 396 500 c 1,11,-1
 469 693 l 1,12,-1
 600 693 l 1,13,-1
 468 369 l 1,14,-1
 608 0 l 1,15,-1
 452 0 l 1,0,-1
267 467 m 0,17,18
 267 581 267 581 192 581 c 2,19,-1
 166 581 l 1,20,-1
 166 345 l 1,21,-1
 191 345 l 2,22,16
 267 345 267 345 267 467 c 0,17,18
EndSplineSet
Colour: ff0000
EndChar
StartChar: uni0517
Encoding: 1303 1303 547
Width: 600
Flags: W
LayerCount: 2
Fore
SplineSet
464 0 m 1,0,-1
 382 200 l 1,1,2
 371 99 371 99 330 41 c 128,-1,3
 289 -17 289 -17 231 -17 c 0,4,5
 207 -17 207 -17 186.5 -6 c 128,-1,6
 166 5 166 5 145 28 c 1,7,-1
 145 -208 l 1,8,-1
 16 -222 l 1,9,-1
 16 531 l 1,10,-1
 127 531 l 1,11,-1
 134 482 l 1,12,13
 161 517 161 517 189 533 c 128,-1,14
 217 549 217 549 249 549 c 0,15,16
 308 549 308 549 342.5 491 c 128,-1,17
 377 433 377 433 384 323 c 1,18,-1
 460 531 l 1,19,-1
 597 531 l 1,20,-1
 482 272 l 1,21,-1
 605 0 l 1,22,-1
 464 0 l 1,0,-1
239 133.5 m 128,-1,24
 252 173 252 173 252 265 c 0,25,26
 252 333 252 333 247.5 370 c 128,-1,27
 243 407 243 407 233.5 422 c 128,-1,28
 224 437 224 437 207 437 c 0,29,30
 176 437 176 437 145 401 c 1,31,-1
 145 122 l 1,32,33
 170 94 170 94 198 94 c 256,34,23
 226 94 226 94 239 133.5 c 128,-1,24
EndSplineSet
Colour: ff0000
EndChar
StartChar: uni0518
Encoding: 1304 1304 411
Width: 600
Flags: W
LayerCount: 2
Fore
SplineSet
598 115 m 1,0,-1
 598 0 l 1,1,-1
 274 0 l 1,2,-1
 274 251 l 1,3,-1
 243 251 l 1,4,-1
 159 0 l 1,5,-1
 -1 0 l 1,6,-1
 117 281 l 1,7,8
 67 313 67 313 40.5 358 c 128,-1,9
 14 403 14 403 14 470 c 256,10,11
 14 537 14 537 46 587.5 c 128,-1,12
 78 638 78 638 133 665.5 c 128,-1,13
 188 693 188 693 256 693 c 2,14,-1
 598 693 l 1,15,-1
 581 581 l 1,16,-1
 418 581 l 1,17,-1
 418 407 l 1,18,-1
 558 407 l 1,19,-1
 558 296 l 1,20,-1
 418 296 l 1,21,-1
 418 115 l 1,22,-1
 598 115 l 1,0,-1
274 583 m 1,23,-1
 254 583 l 2,24,25
 213 583 213 583 189.5 554 c 128,-1,26
 166 525 166 525 166 469 c 0,27,28
 166 414 166 414 189 387 c 128,-1,29
 212 360 212 360 251 360 c 2,30,-1
 274 360 l 1,31,-1
 274 583 l 1,23,-1
EndSplineSet
Colour: ff0000
EndChar
StartChar: uni0519
Encoding: 1305 1305 548
Width: 600
Flags: W
LayerCount: 2
Fore
SplineSet
597 219 m 1,1,-1
 366 219 l 1,2,3
 367 153 367 153 385 123 c 128,-1,4
 403 93 403 93 438 93 c 0,5,6
 461 93 461 93 480.5 101 c 128,-1,7
 500 109 500 109 525 128 c 1,8,-1
 588 51 l 1,9,10
 518 -17 518 -17 429 -17 c 0,11,12
 350 -17 350 -17 300 37.5 c 128,-1,13
 250 92 250 92 235 186 c 1,14,-1
 212 186 l 1,15,-1
 140 0 l 1,16,-1
 0 0 l 1,17,-1
 96 214 l 1,18,19
 50 236 50 236 27 271 c 128,-1,20
 4 306 4 306 4 358 c 0,21,22
 4 405 4 405 28 444.5 c 128,-1,23
 52 484 52 484 99.5 507.5 c 128,-1,24
 147 531 147 531 216 531 c 2,25,-1
 344 531 l 1,26,27
 380 549 380 549 421 549 c 0,28,29
 506 549 506 549 553 476.5 c 128,-1,30
 600 404 600 404 600 276 c 0,31,0
 600 243 600 243 597 219 c 1,1,-1
470 310 m 1,32,33
 469 380 469 380 457 414 c 128,-1,34
 445 448 445 448 420 448 c 256,35,36
 395 448 395 448 382 416 c 128,-1,37
 369 384 369 384 364 310 c 1,38,-1
 470 310 l 1,32,33
158.5 417.5 m 128,-1,40
 137 397 137 397 137 358 c 256,41,42
 137 319 137 319 156.5 299 c 128,-1,43
 176 279 176 279 211 279 c 2,44,-1
 229 279 l 1,45,46
 232 373 232 373 261 438 c 1,47,-1
 221 438 l 2,48,39
 180 438 180 438 158.5 417.5 c 128,-1,40
EndSplineSet
Colour: ff0000
EndChar
StartChar: uni0520
Encoding: 1312 1312 415
Width: 600
Flags: W
LayerCount: 2
Fore
SplineSet
552.5 421 m 128,-1,1
 581 381 581 381 581 312 c 2,2,-1
 581 -45 l 2,3,4
 581 -100 581 -100 560 -141 c 128,-1,5
 539 -182 539 -182 502 -204.5 c 128,-1,6
 465 -227 465 -227 419 -227 c 0,7,8
 377 -227 377 -227 347.5 -215.5 c 128,-1,9
 318 -204 318 -204 288 -182 c 1,10,-1
 340 -105 l 1,11,12
 372 -126 372 -126 404 -126 c 0,13,14
 430 -126 430 -126 443 -110.5 c 128,-1,15
 456 -95 456 -95 456 -59 c 2,16,-1
 456 301 l 2,17,18
 456 325 456 325 446.5 338.5 c 128,-1,19
 437 352 437 352 418 352 c 256,20,21
 399 352 399 352 378 336 c 1,22,-1
 378 0 l 1,23,-1
 253 0 l 1,24,-1
 253 586 l 1,25,-1
 199 586 l 1,26,-1
 190 417 l 2,27,28
 182 264 182 264 166.5 183.5 c 128,-1,29
 151 103 151 103 123 60 c 128,-1,30
 95 17 95 17 40 -20 c 1,31,-1
 -18 74 l 1,32,33
 9 97 9 97 25 131.5 c 128,-1,34
 41 166 41 166 52 239.5 c 128,-1,35
 63 313 63 313 71 453 c 2,36,-1
 85 693 l 1,37,-1
 378 693 l 1,38,-1
 378 428 l 1,39,40
 416 461 416 461 467 461 c 0,41,0
 524 461 524 461 552.5 421 c 128,-1,1
EndSplineSet
Colour: ff0000
EndChar
StartChar: uni0522
Encoding: 1314 1314 416
Width: 600
Flags: W
LayerCount: 2
Fore
SplineSet
548.5 420 m 128,-1,1
 581 379 581 379 581 312 c 2,2,-1
 581 -45 l 2,3,4
 581 -128 581 -128 534.5 -177.5 c 128,-1,5
 488 -227 488 -227 412 -227 c 0,6,7
 369 -227 369 -227 337 -215.5 c 128,-1,8
 305 -204 305 -204 277 -182 c 1,9,-1
 332 -101 l 1,10,11
 362 -122 362 -122 396 -122 c 0,12,13
 449 -122 449 -122 449 -55 c 2,14,-1
 449 301 l 2,15,16
 449 325 449 325 439 338.5 c 128,-1,17
 429 352 429 352 411 352 c 0,18,19
 390 352 390 352 371 336 c 1,20,-1
 371 0 l 1,21,-1
 239 0 l 1,22,-1
 239 290 l 1,23,-1
 157 290 l 1,24,-1
 157 0 l 1,25,-1
 24 0 l 1,26,-1
 24 693 l 1,27,-1
 157 693 l 1,28,-1
 157 407 l 1,29,-1
 239 407 l 1,30,-1
 239 693 l 1,31,-1
 371 693 l 1,32,-1
 371 429 l 1,33,34
 410 461 410 461 459 461 c 0,35,0
 516 461 516 461 548.5 420 c 128,-1,1
EndSplineSet
Colour: ff0000
EndChar
StartChar: uni0524
Encoding: 1316 1316 355
Width: 600
Flags: W
LayerCount: 2
Fore
SplineSet
596 122 m 1,0,-1
 596 -174 l 1,1,-1
 471 -174 l 1,2,-1
 451 0 l 1,3,-1
 384 0 l 1,4,-1
 384 567 l 1,5,-1
 216 567 l 1,6,-1
 216 0 l 1,7,-1
 52 0 l 1,8,-1
 52 693 l 1,9,-1
 548 693 l 1,10,-1
 548 122 l 1,11,-1
 596 122 l 1,0,-1
EndSplineSet
Colour: ff0000
EndChar
StartChar: uni0529
Encoding: 1321 1321 559
Width: 600
Flags: W
LayerCount: 2
Fore
SplineSet
530 531 m 1,0,-1
 530 0 l 1,1,-1
 372 0 l 1,2,-1
 372 212 l 1,3,-1
 228 212 l 1,4,-1
 228 -27 l 2,5,6
 228 -125 228 -125 177.5 -176.5 c 128,-1,7
 127 -228 127 -228 33 -228 c 0,8,9
 -10 -228 -10 -228 -41.5 -216.5 c 128,-1,10
 -73 -205 -73 -205 -102 -183 c 1,11,-1
 -42 -94 l 1,12,13
 -22 -103 -22 -103 -10.5 -107 c 128,-1,14
 1 -111 1 -111 18 -111 c 0,15,16
 44 -111 44 -111 57 -95.5 c 128,-1,17
 70 -80 70 -80 70 -44 c 2,18,-1
 70 531 l 1,19,-1
 228 531 l 1,20,-1
 228 328 l 1,21,-1
 372 328 l 1,22,-1
 372 531 l 1,23,-1
 530 531 l 1,0,-1
EndSplineSet
Colour: ff0000
EndChar
StartChar: uni052A
Encoding: 1322 1322 279
Width: 600
Flags: W
LayerCount: 2
Fore
SplineSet
616 0 m 1,0,-1
 513 0 l 1,1,-1
 451 320 l 1,2,-1
 426 320 l 1,3,-1
 426 0 l 1,4,-1
 356 0 l 1,5,-1
 356 -174 l 1,6,-1
 279 -174 l 1,7,-1
 267 0 l 1,8,-1
 77 0 l 1,9,-1
 63 -174 l 1,10,-1
 -15 -174 l 1,11,-1
 -15 97 l 1,12,-1
 14 97 l 1,13,14
 35 137 35 137 46.5 218.5 c 128,-1,15
 58 300 58 300 68 474 c 1,16,-1
 82 693 l 1,17,-1
 294 693 l 1,18,-1
 294 402 l 1,19,-1
 335 402 l 1,20,-1
 335 693 l 1,21,-1
 426 693 l 1,22,-1
 426 402 l 1,23,-1
 450 402 l 1,24,-1
 510 693 l 1,25,-1
 607 693 l 1,26,-1
 535 379 l 1,27,-1
 616 0 l 1,0,-1
201 606 m 1,28,-1
 167 606 l 1,29,-1
 161 468 l 2,30,31
 157 354 157 354 149 285.5 c 128,-1,32
 141 217 141 217 128 175 c 128,-1,33
 115 133 115 133 93 97 c 1,34,-1
 201 97 l 1,35,-1
 201 606 l 1,28,-1
294 320 m 1,36,-1
 294 97 l 1,37,-1
 335 97 l 1,38,-1
 335 320 l 1,39,-1
 294 320 l 1,36,-1
EndSplineSet
Colour: ff0000
EndChar
StartChar: uni052B
Encoding: 1323 1323 557
Width: 600
Flags: W
LayerCount: 2
Fore
SplineSet
616 0 m 1,0,-1
 516 0 l 1,1,-1
 454 232 l 1,2,-1
 431 232 l 1,3,-1
 431 0 l 1,4,-1
 359 0 l 1,5,-1
 359 -174 l 1,6,-1
 277 -174 l 1,7,-1
 263 0 l 1,8,-1
 79 0 l 1,9,-1
 66 -174 l 1,10,-1
 -16 -174 l 1,11,-1
 -16 97 l 1,12,-1
 14 97 l 1,13,14
 32 131 32 131 41 184 c 128,-1,15
 50 237 50 237 58 360 c 2,16,-1
 70 531 l 1,17,-1
 298 531 l 1,18,-1
 298 320 l 1,19,-1
 343 320 l 1,20,-1
 343 531 l 1,21,-1
 431 531 l 1,22,-1
 431 320 l 1,23,-1
 456 320 l 1,24,-1
 517 531 l 1,25,-1
 612 531 l 1,26,-1
 532 285 l 1,27,-1
 616 0 l 1,0,-1
205 450 m 1,28,-1
 165 450 l 1,29,-1
 162 366 l 2,30,31
 158 246 158 246 145 191 c 128,-1,32
 132 136 132 136 103 97 c 1,33,-1
 205 97 l 1,34,-1
 205 450 l 1,28,-1
298 232 m 1,35,-1
 298 97 l 1,36,-1
 343 97 l 1,37,-1
 343 232 l 1,38,-1
 298 232 l 1,35,-1
EndSplineSet
Colour: ff0000
EndChar
StartChar: uni052C
Encoding: 1324 1324 278
Width: 600
Flags: W
LayerCount: 2
Fore
SplineSet
586 122 m 1,0,-1
 586 -174 l 1,1,-1
 461 -174 l 1,2,-1
 441 0 l 1,3,-1
 199 0 l 1,4,-1
 179 -174 l 1,5,-1
 54 -174 l 1,6,-1
 54 122 l 1,7,-1
 99 122 l 1,8,9
 128 162 128 162 149 203 c 128,-1,10
 170 244 170 244 185 300 c 1,11,12
 96 319 96 319 57 377.5 c 128,-1,13
 18 436 18 436 18 536 c 2,14,-1
 18 693 l 1,15,-1
 148 693 l 1,16,-1
 148 538 l 2,17,18
 148 487 148 487 161 458 c 128,-1,19
 174 429 174 429 207 417 c 1,20,21
 210 445 210 445 214 498 c 2,22,-1
 226 693 l 1,23,-1
 539 693 l 1,24,-1
 539 122 l 1,25,-1
 586 122 l 1,0,-1
345 492 m 2,26,27
 341 437 341 437 338 407 c 1,28,-1
 403 407 l 1,29,-1
 403 583 l 1,30,-1
 351 583 l 1,31,-1
 345 492 l 2,26,27
403 122 m 1,32,-1
 403 290 l 1,33,-1
 320 291 l 1,34,35
 308 241 308 241 287 200 c 128,-1,36
 266 159 266 159 232 122 c 1,37,-1
 403 122 l 1,32,-1
EndSplineSet
Colour: ff0000
EndChar
StartChar: uni052D
Encoding: 1325 1325 556
Width: 600
Flags: W
LayerCount: 2
Fore
SplineSet
569 107 m 1,0,-1
 569 -174 l 1,1,-1
 460 -174 l 1,2,-1
 440 0 l 1,3,-1
 204 0 l 1,4,-1
 184 -174 l 1,5,-1
 75 -174 l 1,6,-1
 75 107 l 1,7,-1
 122 107 l 1,8,9
 140 130 140 130 151.5 156 c 128,-1,10
 163 182 163 182 171 223 c 1,11,12
 96 237 96 237 58.5 287.5 c 128,-1,13
 21 338 21 338 21 406 c 2,14,-1
 21 531 l 1,15,-1
 141 531 l 1,16,-1
 141 403 l 2,17,18
 141 366 141 366 151 346 c 128,-1,19
 161 326 161 326 184 318 c 1,20,21
 186 332 186 332 188 360 c 2,22,-1
 202 531 l 1,23,-1
 522 531 l 1,24,-1
 522 107 l 1,25,-1
 569 107 l 1,0,-1
314 366 m 1,26,-1
 310 310 l 1,27,-1
 396 310 l 1,28,-1
 396 440 l 1,29,-1
 318 440 l 1,30,-1
 314 366 l 1,26,-1
396 219 m 1,31,-1
 295 219 l 1,32,33
 286 181 286 181 271.5 156.5 c 128,-1,34
 257 132 257 132 233 107 c 1,35,-1
 396 107 l 1,36,-1
 396 219 l 1,31,-1
EndSplineSet
Colour: ff0000
EndChar
StartChar: uni1FCE
Encoding: 8142 8142 1466
Width: 600
Flags: W
LayerCount: 2
Fore
SplineSet
256 815 m 128,-1,1
 278 793 278 793 278 760 c 0,2,3
 278 723 278 723 255 677 c 2,4,-1
 206 580 l 1,5,-1
 126 580 l 1,6,-1
 153 695 l 1,7,8
 121 722 121 722 121 760 c 0,9,10
 121 792 121 792 143.5 814.5 c 128,-1,11
 166 837 166 837 200 837 c 256,12,0
 234 837 234 837 256 815 c 128,-1,1
472 801 m 1,13,-1
 385 581 l 1,14,-1
 298 600 l 1,15,-1
 339 836 l 1,16,-1
 472 801 l 1,13,-1
EndSplineSet
Colour: ff0000
EndChar
StartChar: uni1FD2
Encoding: 8146 8146 844
Width: 600
Flags: W
LayerCount: 2
Fore
SplineSet
352 779 m 1,0,-1
 292 726 l 1,1,-1
 135 866 l 1,2,-1
 221 949 l 1,3,-1
 352 779 l 1,0,-1
225 736.5 m 128,-1,5
 248 714 248 714 248 680 c 0,6,7
 248 647 248 647 225 624 c 128,-1,8
 202 601 202 601 168 601 c 256,9,10
 134 601 134 601 110 624 c 128,-1,11
 86 647 86 647 86 680 c 256,12,13
 86 713 86 713 110 736 c 128,-1,14
 134 759 134 759 168 759 c 256,15,4
 202 759 202 759 225 736.5 c 128,-1,5
468.5 736.5 m 128,-1,17
 492 714 492 714 492 680 c 0,18,19
 492 647 492 647 468.5 624 c 128,-1,20
 445 601 445 601 410 601 c 0,21,22
 377 601 377 601 353.5 624 c 128,-1,23
 330 647 330 647 330 680 c 256,24,25
 330 713 330 713 353.5 736 c 128,-1,26
 377 759 377 759 410 759 c 0,27,16
 445 759 445 759 468.5 736.5 c 128,-1,17
38 416 m 1,28,-1
 51 531 l 1,29,-1
 359 531 l 1,30,-1
 359 166 l 2,31,32
 359 108 359 108 428 108 c 0,33,34
 464 108 464 108 503 124 c 1,35,-1
 541 18 l 1,36,37
 475 -17 475 -17 387 -17 c 0,38,39
 301 -17 301 -17 251 31 c 128,-1,40
 201 79 201 79 201 160 c 2,41,-1
 201 416 l 1,42,-1
 38 416 l 1,28,-1
EndSplineSet
Colour: ff0000
EndChar
StartChar: uni1FDE
Encoding: 8158 8158 1467
Width: 600
Flags: W
LayerCount: 2
Fore
SplineSet
254 814.5 m 128,-1,1
 277 792 277 792 277 760 c 0,2,3
 277 721 277 721 244 695 c 1,4,-1
 271 580 l 1,5,-1
 192 580 l 1,6,-1
 143 677 l 2,7,8
 119 725 119 725 119 760 c 0,9,10
 119 793 119 793 141.5 815 c 128,-1,11
 164 837 164 837 197 837 c 0,12,0
 231 837 231 837 254 814.5 c 128,-1,1
472 801 m 1,13,-1
 385 581 l 1,14,-1
 298 600 l 1,15,-1
 339 836 l 1,16,-1
 472 801 l 1,13,-1
EndSplineSet
Colour: ff0000
EndChar
StartChar: uni1FE7
Encoding: 8167 8167 872
Width: 600
Flags: W
LayerCount: 2
Fore
SplineSet
321 792 m 128,-1,1
 305 799 305 799 286 812 c 0,2,3
 261 830 261 830 245 830 c 0,4,5
 227 830 227 830 216 820 c 128,-1,6
 205 810 205 810 192 786 c 1,7,-1
 113 824 l 1,8,9
 134 877 134 877 166.5 909.5 c 128,-1,10
 199 942 199 942 242 942 c 0,11,12
 265 942 265 942 281.5 935 c 128,-1,13
 298 928 298 928 317 915 c 0,14,15
 330 906 330 906 339 901.5 c 128,-1,16
 348 897 348 897 358 897 c 0,17,18
 374 897 374 897 385 907 c 128,-1,19
 396 917 396 917 410 940 c 1,20,-1
 489 902 l 1,21,22
 468 849 468 849 435 817 c 128,-1,23
 402 785 402 785 359 785 c 0,24,0
 337 785 337 785 321 792 c 128,-1,1
126 620.5 m 128,-1,26
 102 644 102 644 102 678 c 0,27,28
 102 711 102 711 126 734 c 128,-1,29
 150 757 150 757 184 757 c 0,30,31
 219 757 219 757 243 734 c 128,-1,32
 267 711 267 711 267 678 c 0,33,34
 267 644 267 644 243 620.5 c 128,-1,35
 219 597 219 597 184 597 c 0,36,25
 150 597 150 597 126 620.5 c 128,-1,26
357.5 620.5 m 128,-1,38
 333 644 333 644 333 678 c 0,39,40
 333 711 333 711 357.5 734 c 128,-1,41
 382 757 382 757 416 757 c 256,42,43
 450 757 450 757 474 734 c 128,-1,44
 498 711 498 711 498 678 c 0,45,46
 498 644 498 644 474.5 620.5 c 128,-1,47
 451 597 451 597 416 597 c 0,48,37
 382 597 382 597 357.5 620.5 c 128,-1,38
551 256 m 0,50,51
 551 165 551 165 515 103.5 c 128,-1,52
 479 42 479 42 418 12.5 c 128,-1,53
 357 -17 357 -17 282 -17 c 0,54,55
 184 -17 184 -17 124.5 34 c 128,-1,56
 65 85 65 85 65 180 c 2,57,-1
 65 531 l 1,58,-1
 223 531 l 1,59,-1
 223 189 l 2,60,61
 223 141 223 141 240.5 120 c 128,-1,62
 258 99 258 99 293 99 c 0,63,64
 339 99 339 99 366 139.5 c 128,-1,65
 393 180 393 180 393 265 c 0,66,67
 393 389 393 389 366 531 c 1,68,-1
 522 531 l 1,69,49
 551 388 551 388 551 256 c 0,50,51
EndSplineSet
Colour: ff0000
EndChar
StartChar: uni1FFE
Encoding: 8190 8190 1463
Width: 600
Flags: W
LayerCount: 2
Fore
SplineSet
355.5 816.5 m 128,-1,1
 378 794 378 794 378 762 c 0,2,3
 378 724 378 724 346 697 c 1,4,-1
 373 582 l 1,5,-1
 293 582 l 1,6,-1
 244 679 l 2,7,8
 221 725 221 725 221 762 c 0,9,10
 221 795 221 795 243 817 c 128,-1,11
 265 839 265 839 299 839 c 256,12,0
 333 839 333 839 355.5 816.5 c 128,-1,1
EndSplineSet
Colour: ff0000
EndChar
StartChar: figuredash
Encoding: 8210 8210 1023
Width: 600
Flags: W
LayerCount: 2
Fore
SplineSet
32 380 m 1,0,-1
 568 380 l 1,1,-1
 568 258 l 1,2,-1
 32 258 l 1,3,-1
 32 380 l 1,0,-1
EndSplineSet
Colour: ff0000
EndChar
StartChar: endash
Encoding: 8211 8211 1022
Width: 600
Flags: W
LayerCount: 2
Fore
SplineSet
27 374 m 1,0,-1
 573 374 l 1,1,-1
 573 252 l 1,2,-1
 27 252 l 1,3,-1
 27 374 l 1,0,-1
EndSplineSet
EndChar
StartChar: emdash
Encoding: 8212 8212 1021
Width: 600
Flags: W
LayerCount: 2
Fore
SplineSet
0 374 m 1,0,-1
 600 374 l 1,1,-1
 600 252 l 1,2,-1
 0 252 l 1,3,-1
 0 374 l 1,0,-1
EndSplineSet
Colour: ff0000
EndChar
StartChar: quoteleft
Encoding: 8216 8216 1038
Width: 600
Flags: W
LayerCount: 2
Fore
SplineSet
364 472 m 128,-1,1
 337 446 337 446 297 446 c 256,2,3
 257 446 257 446 230 472 c 128,-1,4
 203 498 203 498 203 536 c 0,5,6
 203 558 203 558 210 581.5 c 128,-1,7
 217 605 217 605 235 640 c 1,8,-1
 306 789 l 1,9,-1
 396 789 l 1,10,-1
 353 612 l 1,11,12
 391 585 391 585 391 536 c 0,13,0
 391 498 391 498 364 472 c 128,-1,1
EndSplineSet
EndChar
StartChar: quoteright
Encoding: 8217 8217 1039
Width: 600
Flags: W
LayerCount: 2
Fore
SplineSet
235 762.5 m 128,-1,1
 262 789 262 789 302 789 c 256,2,3
 342 789 342 789 369 762.5 c 128,-1,4
 396 736 396 736 396 698 c 0,5,6
 396 677 396 677 389 653.5 c 128,-1,7
 382 630 382 630 364 595 c 1,8,-1
 293 446 l 1,9,-1
 203 446 l 1,10,-1
 246 623 l 1,11,12
 208 651 208 651 208 698 c 0,13,0
 208 736 208 736 235 762.5 c 128,-1,1
EndSplineSet
EndChar
StartChar: quotesinglbase
Encoding: 8218 8218 1040
Width: 600
Flags: W
LayerCount: 2
Fore
SplineSet
236 135 m 128,-1,1
 263 161 263 161 303 161 c 256,2,3
 343 161 343 161 370 135 c 128,-1,4
 397 109 397 109 397 71 c 0,5,6
 397 49 397 49 390 26 c 128,-1,7
 383 3 383 3 365 -33 c 2,8,-1
 293 -182 l 1,9,-1
 203 -182 l 1,10,-1
 247 -5 l 1,11,12
 209 22 209 22 209 71 c 0,13,0
 209 109 209 109 236 135 c 128,-1,1
EndSplineSet
EndChar
StartChar: quotedblleft
Encoding: 8220 8220 1036
Width: 600
Flags: W
LayerCount: 2
Fore
SplineSet
247.5 472 m 128,-1,1
 220 446 220 446 180 446 c 256,2,3
 140 446 140 446 114 472 c 128,-1,4
 88 498 88 498 88 536 c 0,5,6
 88 559 88 559 94.5 582.5 c 128,-1,7
 101 606 101 606 118 640 c 2,8,-1
 190 789 l 1,9,-1
 279 789 l 1,10,-1
 236 612 l 1,11,12
 275 584 275 584 275 536 c 0,13,0
 275 498 275 498 247.5 472 c 128,-1,1
480.5 472.5 m 128,-1,15
 453 446 453 446 414 446 c 0,16,17
 374 446 374 446 347 472 c 128,-1,18
 320 498 320 498 320 536 c 0,19,20
 320 558 320 558 327 581.5 c 128,-1,21
 334 605 334 605 352 640 c 1,22,-1
 423 789 l 1,23,-1
 512 789 l 1,24,-1
 469 612 l 1,25,26
 508 583 508 583 508 536 c 0,27,14
 508 499 508 499 480.5 472.5 c 128,-1,15
EndSplineSet
Colour: ff0000
EndChar
StartChar: quotedblright
Encoding: 8221 8221 1037
Width: 600
Flags: W
LayerCount: 2
Fore
SplineSet
119.5 771 m 128,-1,1
 147 797 147 797 186 797 c 0,2,3
 226 797 226 797 253 771 c 128,-1,4
 280 745 280 745 280 707 c 0,5,6
 280 686 280 686 273 663 c 128,-1,7
 266 640 266 640 248 602 c 2,8,-1
 177 455 l 1,9,-1
 88 455 l 1,10,-1
 130 632 l 1,11,12
 92 660 92 660 92 707 c 0,13,0
 92 745 92 745 119.5 771 c 128,-1,1
351.5 771 m 128,-1,15
 379 797 379 797 419 797 c 256,16,17
 459 797 459 797 485.5 771 c 128,-1,18
 512 745 512 745 512 707 c 0,19,20
 512 685 512 685 505.5 661.5 c 128,-1,21
 499 638 499 638 481 602 c 2,22,-1
 409 455 l 1,23,-1
 320 455 l 1,24,-1
 364 632 l 1,25,26
 324 660 324 660 324 707 c 0,27,14
 324 745 324 745 351.5 771 c 128,-1,15
EndSplineSet
EndChar
StartChar: dagger
Encoding: 8224 8224 1389
Width: 600
Flags: W
LayerCount: 2
Fore
SplineSet
374 536 m 1,0,-1
 539 536 l 1,1,-1
 539 408 l 1,2,-1
 374 408 l 1,3,-1
 374 0 l 1,4,-1
 226 0 l 1,5,-1
 226 408 l 1,6,-1
 61 408 l 1,7,-1
 61 536 l 1,8,-1
 226 536 l 1,9,-1
 226 679 l 1,10,-1
 374 679 l 1,11,-1
 374 536 l 1,0,-1
EndSplineSet
Colour: ff0000
EndChar
StartChar: daggerdbl
Encoding: 8225 8225 1390
Width: 600
Flags: W
LayerCount: 2
Fore
SplineSet
374 535 m 1,0,-1
 539 535 l 1,1,-1
 539 408 l 1,2,-1
 374 408 l 1,3,-1
 374 273 l 1,4,-1
 539 273 l 1,5,-1
 539 144 l 1,6,-1
 374 144 l 1,7,-1
 374 0 l 1,8,-1
 226 0 l 1,9,-1
 226 144 l 1,10,-1
 61 144 l 1,11,-1
 61 273 l 1,12,-1
 226 273 l 1,13,-1
 226 408 l 1,14,-1
 61 408 l 1,15,-1
 61 535 l 1,16,-1
 226 535 l 1,17,-1
 226 679 l 1,18,-1
 374 679 l 1,19,-1
 374 535 l 1,0,-1
EndSplineSet
Colour: ff0000
EndChar
StartChar: bullet
Encoding: 8226 8226 980
Width: 600
Flags: W
LayerCount: 2
Fore
SplineSet
198.5 240.5 m 128,-1,1
 158 281 158 281 158 342 c 256,2,3
 158 403 158 403 198 443 c 128,-1,4
 238 483 238 483 300 483 c 256,5,6
 362 483 362 483 402 443 c 128,-1,7
 442 403 442 403 442 341 c 0,8,9
 442 280 442 280 402 240 c 128,-1,10
 362 200 362 200 300 200 c 0,11,0
 239 200 239 200 198.5 240.5 c 128,-1,1
EndSplineSet
EndChar
StartChar: guilsinglleft
Encoding: 8249 8249 1033
Width: 600
Flags: W
LayerCount: 2
Fore
SplineSet
345 17 m 1,0,-1
 157 237 l 1,1,-1
 157 337 l 1,2,-1
 345 556 l 1,3,-1
 443 492 l 1,4,-1
 315 287 l 1,5,-1
 443 81 l 1,6,-1
 345 17 l 1,0,-1
EndSplineSet
EndChar
StartChar: guilsinglright
Encoding: 8250 8250 1034
Width: 600
Flags: W
LayerCount: 2
Fore
SplineSet
157 492 m 1,0,-1
 254 556 l 1,1,-1
 443 337 l 1,2,-1
 443 237 l 1,3,-1
 254 17 l 1,4,-1
 157 81 l 1,5,-1
 284 287 l 1,6,-1
 157 492 l 1,0,-1
EndSplineSet
EndChar
StartChar: uni207F
Encoding: 8319 8319 277
Width: 600
Flags: W
LayerCount: 2
Fore
SplineSet
423.5 696 m 128,-1,1
 449 669 449 669 449 620 c 2,2,-1
 449 378 l 1,3,-1
 334 378 l 1,4,-1
 334 593 l 2,5,6
 334 617 334 617 329.5 627.5 c 128,-1,7
 325 638 325 638 313 638 c 0,8,9
 292 638 292 638 266 604 c 1,10,-1
 266 378 l 1,11,-1
 151 378 l 1,12,-1
 151 713 l 1,13,-1
 253 713 l 1,14,-1
 258 678 l 1,15,16
 277 703 277 703 300 713 c 128,-1,17
 323 723 323 723 351 723 c 0,18,0
 398 723 398 723 423.5 696 c 128,-1,1
EndSplineSet
Colour: ff0000
EndChar
StartChar: Euro
Encoding: 8364 8364 1059
Width: 600
Flags: W
LayerCount: 2
Fore
SplineSet
502 698 m 128,-1,1
 540 685 540 685 579 659 c 1,2,-1
 520 561 l 1,3,4
 492 580 492 580 470 587.5 c 128,-1,5
 448 595 448 595 416 595 c 0,6,7
 311 595 311 595 284 466 c 1,8,-1
 490 466 l 1,9,-1
 469 383 l 1,10,-1
 273 383 l 1,11,-1
 273 313 l 1,12,-1
 454 313 l 1,13,-1
 433 229 l 1,14,-1
 281 229 l 1,15,16
 292 161 292 161 323.5 130.5 c 128,-1,17
 355 100 355 100 411 100 c 0,18,19
 483 100 483 100 551 146 c 1,20,-1
 551 20 l 1,21,22
 475 -17 475 -17 399 -17 c 0,23,24
 285 -17 285 -17 215.5 46 c 128,-1,25
 146 109 146 109 124 229 c 1,26,-1
 32 229 l 1,27,-1
 53 313 l 1,28,-1
 114 313 l 1,29,-1
 114 383 l 1,30,-1
 33 383 l 1,31,-1
 54 466 l 1,32,-1
 126 466 l 1,33,34
 151 582 151 582 224.5 646.5 c 128,-1,35
 298 711 298 711 408 711 c 0,36,0
 464 711 464 711 502 698 c 128,-1,1
EndSplineSet
EndChar
StartChar: uni20AF
Encoding: 8367 8367 1058
Width: 600
Flags: W
LayerCount: 2
Fore
SplineSet
493 302 m 1,0,-1
 107 302 l 1,1,-1
 238 693 l 1,2,-1
 361 693 l 1,3,-1
 493 302 l 1,0,-1
232 387 m 1,4,-1
 364 387 l 1,5,-1
 298 626 l 1,6,-1
 232 387 l 1,4,-1
418.5 215.5 m 128,-1,8
 458 170 458 170 458 86 c 0,9,10
 458 7 458 7 424 -43.5 c 128,-1,11
 390 -94 390 -94 330 -94 c 0,12,13
 283 -94 283 -94 253 -58 c 1,14,-1
 253 -211 l 1,15,-1
 154 -221 l 1,16,-1
 154 91 l 2,17,18
 154 173 154 173 192 217 c 128,-1,19
 230 261 230 261 305 261 c 0,20,7
 379 261 379 261 418.5 215.5 c 128,-1,8
357 85 m 0,22,23
 357 139 357 139 343.5 161.5 c 128,-1,24
 330 184 330 184 304 184 c 0,25,26
 276 184 276 184 264.5 158.5 c 128,-1,27
 253 133 253 133 253 74 c 2,28,-1
 253 16 l 1,29,30
 270 -13 270 -13 301 -13 c 0,31,21
 357 -13 357 -13 357 85 c 0,22,23
EndSplineSet
Colour: ff0000
EndChar
StartChar: uni2116
Encoding: 8470 8470 1387
Width: 600
Flags: W
LayerCount: 2
Fore
SplineSet
572 642 m 128,-1,1
 600 583 600 583 600 474 c 256,2,3
 600 365 600 365 570.5 305.5 c 128,-1,4
 541 246 541 246 472 246 c 0,5,6
 400 246 400 246 372.5 304 c 128,-1,7
 345 362 345 362 345 474 c 0,8,9
 345 582 345 582 373 641.5 c 128,-1,10
 401 701 401 701 472 701 c 0,11,0
 544 701 544 701 572 642 c 128,-1,1
327 0 m 1,12,-1
 197 0 l 1,13,-1
 90 539 l 1,14,-1
 86 539 l 1,15,16
 96 487 96 487 106 401.5 c 128,-1,17
 116 316 116 316 116 242 c 2,18,-1
 116 0 l 1,19,-1
 1 0 l 1,20,-1
 1 693 l 1,21,-1
 137 693 l 1,22,-1
 238 153 l 1,23,-1
 242 153 l 1,24,25
 231 211 231 211 222 290.5 c 128,-1,26
 213 370 213 370 213 447 c 2,27,-1
 213 693 l 1,28,-1
 327 693 l 1,29,-1
 327 0 l 1,12,-1
450 575 m 128,-1,31
 445 547 445 547 445 474 c 256,32,33
 445 401 445 401 450 373 c 128,-1,34
 455 345 455 345 472 345 c 256,35,36
 489 345 489 345 494.5 373.5 c 128,-1,37
 500 402 500 402 500 474 c 0,38,39
 500 548 500 548 494.5 575.5 c 128,-1,40
 489 603 489 603 472 603 c 256,41,30
 455 603 455 603 450 575 c 128,-1,31
595 0 m 1,42,-1
 350 0 l 1,43,-1
 350 108 l 1,44,-1
 595 108 l 1,45,-1
 595 0 l 1,42,-1
EndSplineSet
Colour: ff0000
EndChar
StartChar: trademark
Encoding: 8482 8482 1383
Width: 600
Flags: W
LayerCount: 2
Fore
SplineSet
594 295 m 1,0,-1
 497 295 l 1,1,-1
 494 430 l 1,2,-1
 494 463 l 2,3,4
 494 527 494 527 503 580 c 1,5,-1
 499 580 l 1,6,-1
 456 365 l 1,7,-1
 375 365 l 1,8,-1
 330 580 l 1,9,-1
 326 580 l 1,10,11
 335 529 335 529 335 464 c 2,12,-1
 335 430 l 1,13,-1
 333 295 l 1,14,-1
 235 295 l 1,15,-1
 246 610 l 1,16,-1
 175 610 l 1,17,-1
 175 295 l 1,18,-1
 67 295 l 1,19,-1
 67 610 l 1,20,-1
 -13 610 l 1,21,-1
 -13 696 l 1,22,-1
 371 696 l 1,23,-1
 415 452 l 1,24,-1
 457 696 l 1,25,-1
 581 696 l 1,26,-1
 594 295 l 1,0,-1
EndSplineSet
Colour: ff0000
EndChar
StartChar: arrowleft
Encoding: 8592 8592 1147
Width: 600
Flags: W
LayerCount: 2
Fore
SplineSet
405 576 m 1,0,-1
 335 500 l 2,1,2
 300 462 300 462 272 437 c 128,-1,3
 244 412 244 412 214 393 c 1,4,-1
 601 393 l 1,5,-1
 601 265 l 1,6,-1
 216 265 l 1,7,8
 269 229 269 229 335 158 c 2,9,-1
 405 82 l 1,10,-1
 301 -7 l 1,11,-1
 -1 329 l 1,12,-1
 301 665 l 1,13,-1
 405 576 l 1,0,-1
EndSplineSet
Colour: ff0000
EndChar
StartChar: arrowup
Encoding: 8593 8593 1141
Width: 600
Flags: W
LayerCount: 2
Fore
SplineSet
617 393 m 1,0,-1
 526 296 l 1,1,-1
 456 365 l 2,2,3
 423 398 423 398 406 419 c 128,-1,4
 389 440 389 440 373 469 c 1,5,-1
 373 0 l 1,6,-1
 227 0 l 1,7,-1
 227 468 l 1,8,9
 213 442 213 442 195 420 c 128,-1,10
 177 398 177 398 145 366 c 2,11,-1
 74 296 l 1,12,-1
 -17 393 l 1,13,-1
 300 690 l 1,14,-1
 617 393 l 1,0,-1
EndSplineSet
Colour: ff0000
EndChar
StartChar: arrowright
Encoding: 8594 8594 1143
Width: 600
Flags: W
LayerCount: 2
Fore
SplineSet
601 329 m 1,0,-1
 299 -7 l 1,1,-1
 195 82 l 1,2,-1
 265 158 l 2,3,4
 331 229 331 229 384 265 c 1,5,-1
 -1 265 l 1,6,-1
 -1 393 l 1,7,-1
 386 393 l 1,8,9
 356 412 356 412 328 437 c 128,-1,10
 300 462 300 462 265 500 c 2,11,-1
 195 576 l 1,12,-1
 299 665 l 1,13,-1
 601 329 l 1,0,-1
EndSplineSet
Colour: ff0000
EndChar
StartChar: arrowupdn
Encoding: 8597 8597 1150
Width: 600
Flags: W
LayerCount: 2
Fore
SplineSet
617 594 m 1,0,-1
 526 497 l 1,1,-1
 456 566 l 2,2,3
 424 597 424 597 406.5 619 c 128,-1,4
 389 641 389 641 373 670 c 1,5,-1
 373 -7 l 1,6,7
 389 22 389 22 406.5 44 c 128,-1,8
 424 66 424 66 456 97 c 2,9,-1
 526 167 l 1,10,-1
 617 70 l 1,11,-1
 300 -228 l 1,12,-1
 -17 70 l 1,13,-1
 74 167 l 1,14,-1
 145 96 l 2,15,16
 177 64 177 64 195 42 c 128,-1,17
 213 20 213 20 227 -6 c 1,18,-1
 227 669 l 1,19,20
 213 643 213 643 195 621 c 128,-1,21
 177 599 177 599 145 567 c 2,22,-1
 74 497 l 1,23,-1
 -17 594 l 1,24,-1
 300 891 l 1,25,-1
 617 594 l 1,0,-1
EndSplineSet
Colour: ff0000
EndChar
StartChar: uni2197
Encoding: 8599 8599 1142
Width: 600
Flags: W
LayerCount: 2
Fore
SplineSet
11 141 m 1,0,-1
 362 481 l 1,1,2
 333 474 333 474 310.5 472 c 128,-1,3
 288 470 288 470 254 471 c 2,4,-1
 97 479 l 1,5,-1
 106 607 l 1,6,-1
 567 585 l 1,7,-1
 589 123 l 1,8,-1
 448 114 l 1,9,-1
 441 248 l 2,10,11
 439 290 439 290 443 315.5 c 128,-1,12
 447 341 447 341 457 379 c 1,13,-1
 110 41 l 1,14,-1
 11 141 l 1,0,-1
EndSplineSet
Colour: ff0000
EndChar
StartChar: uni2198
Encoding: 8600 8600 1144
Width: 600
Flags: W
LayerCount: 2
Fore
SplineSet
457 244 m 1,0,1
 448 280 448 280 444 300 c 128,-1,2
 440 320 440 320 440 350 c 1,3,-1
 441 375 l 1,4,-1
 448 509 l 1,5,-1
 589 501 l 1,6,-1
 567 39 l 1,7,-1
 106 17 l 1,8,-1
 97 144 l 1,9,-1
 254 152 l 2,10,11
 289 153 289 153 311.5 151 c 128,-1,12
 334 149 334 149 362 143 c 1,13,-1
 11 483 l 1,14,-1
 110 583 l 1,15,-1
 457 244 l 1,0,1
EndSplineSet
Colour: ff0000
EndChar
StartChar: uni21EA
Encoding: 8682 8682 1393
Width: 600
Flags: W
LayerCount: 2
Fore
SplineSet
600 534 m 1,0,-1
 431 534 l 1,1,-1
 431 255 l 1,2,-1
 169 255 l 1,3,-1
 169 534 l 1,4,-1
 0 534 l 1,5,-1
 300 832 l 1,6,-1
 600 534 l 1,0,-1
109 579 m 1,7,-1
 216 579 l 1,8,-1
 216 297 l 1,9,-1
 384 297 l 1,10,-1
 384 579 l 1,11,-1
 491 579 l 1,12,-1
 300 768 l 1,13,-1
 109 579 l 1,7,-1
431 38 m 2,14,15
 431 16 431 16 417.5 2 c 128,-1,16
 404 -12 404 -12 381 -12 c 2,17,-1
 219 -12 l 2,18,19
 197 -12 197 -12 183 2 c 128,-1,20
 169 16 169 16 169 38 c 2,21,-1
 169 155 l 1,22,-1
 431 155 l 1,23,-1
 431 38 l 2,14,15
216 113 m 1,24,-1
 216 32 l 1,25,-1
 384 32 l 1,26,-1
 384 113 l 1,27,-1
 216 113 l 1,24,-1
EndSplineSet
Colour: ff0000
EndChar
StartChar: notequal
Encoding: 8800 8800 1100
Width: 600
Flags: W
LayerCount: 2
Fore
SplineSet
379 354 m 1,0,-1
 328 268 l 1,1,-1
 527 268 l 1,2,-1
 527 145 l 1,3,-1
 255 145 l 1,4,-1
 173 8 l 1,5,-1
 93 54 l 1,6,-1
 147 145 l 1,7,-1
 73 145 l 1,8,-1
 73 268 l 1,9,-1
 220 268 l 1,10,-1
 272 354 l 1,11,-1
 73 354 l 1,12,-1
 73 478 l 1,13,-1
 346 478 l 1,14,-1
 427 613 l 1,15,-1
 506 568 l 1,16,-1
 453 478 l 1,17,-1
 527 478 l 1,18,-1
 527 354 l 1,19,-1
 379 354 l 1,0,-1
EndSplineSet
Colour: ff0000
EndChar
StartChar: greaterequal
Encoding: 8805 8805 1086
Width: 600
Flags: W
LayerCount: 2
Fore
SplineSet
523 479 m 1,0,-1
 523 340 l 1,1,-1
 127 176 l 1,2,-1
 76 291 l 1,3,-1
 389 410 l 1,4,-1
 76 536 l 1,5,-1
 127 647 l 1,6,-1
 523 479 l 1,0,-1
520 0 m 1,7,-1
 86 0 l 1,8,-1
 86 120 l 1,9,-1
 520 120 l 1,10,-1
 520 0 l 1,7,-1
EndSplineSet
Colour: ff0000
EndChar
StartChar: revlogicalnot
Encoding: 8976 8976 1110
Width: 600
Flags: W
LayerCount: 2
Fore
SplineSet
517 258 m 1,0,-1
 213 258 l 1,1,-1
 213 104 l 1,2,-1
 83 104 l 1,3,-1
 83 379 l 1,4,-1
 517 379 l 1,5,-1
 517 258 l 1,0,-1
EndSplineSet
Colour: ff0000
EndChar
StartChar: uni2511
Encoding: 9489 9489 1293
Width: 600
Flags: W
LayerCount: 2
Fore
SplineSet
340 -500 m 1,0,-1
 260 -500 l 1,1,-1
 260 230 l 1,2,-1
 -5 230 l 1,3,-1
 -5 470 l 1,4,-1
 340 470 l 1,5,-1
 340 -500 l 1,0,-1
EndSplineSet
Colour: ff0000
EndChar
StartChar: uni2516
Encoding: 9494 9494 1349
Width: 600
Flags: W
LayerCount: 2
Fore
SplineSet
420 390 m 1,0,-1
 605 390 l 1,1,-1
 605 310 l 1,2,-1
 180 310 l 1,3,-1
 180 1000 l 1,4,-1
 420 1000 l 1,5,-1
 420 390 l 1,0,-1
EndSplineSet
Colour: ff0000
EndChar
StartChar: uni2517
Encoding: 9495 9495 1312
Width: 600
Flags: W
LayerCount: 2
Fore
SplineSet
420 470 m 1,0,-1
 605 470 l 1,1,-1
 605 230 l 1,2,-1
 180 230 l 1,3,-1
 180 1000 l 1,4,-1
 420 1000 l 1,5,-1
 420 470 l 1,0,-1
EndSplineSet
Colour: ff0000
EndChar
StartChar: uni251A
Encoding: 9498 9498 1347
Width: 600
Flags: W
LayerCount: 2
Fore
SplineSet
420 310 m 1,0,-1
 -5 310 l 1,1,-1
 -5 390 l 1,2,-1
 180 390 l 1,3,-1
 180 1000 l 1,4,-1
 420 1000 l 1,5,-1
 420 310 l 1,0,-1
EndSplineSet
Colour: ff0000
EndChar
StartChar: uni2524
Encoding: 9508 9508 1231
Width: 600
Flags: W
LayerCount: 2
Fore
SplineSet
340 -500 m 1,0,-1
 260 -500 l 1,1,-1
 260 310 l 1,2,-1
 -5 310 l 1,3,-1
 -5 390 l 1,4,-1
 260 390 l 1,5,-1
 260 1000 l 1,6,-1
 340 1000 l 1,7,-1
 340 -500 l 1,0,-1
EndSplineSet
Colour: ff0000
EndChar
StartChar: uni252B
Encoding: 9515 9515 1315
Width: 600
Flags: W
LayerCount: 2
Fore
SplineSet
420 -500 m 1,0,-1
 180 -500 l 1,1,-1
 180 230 l 1,2,-1
 -5 230 l 1,3,-1
 -5 470 l 1,4,-1
 180 470 l 1,5,-1
 180 1000 l 1,6,-1
 420 1000 l 1,7,-1
 420 -500 l 1,0,-1
EndSplineSet
Colour: ff0000
EndChar
StartChar: uni2533
Encoding: 9523 9523 1301
Width: 600
Flags: W
LayerCount: 2
Fore
SplineSet
605 230 m 1,0,-1
 420 230 l 1,1,-1
 420 -500 l 1,2,-1
 180 -500 l 1,3,-1
 180 230 l 1,4,-1
 -5 230 l 1,5,-1
 -5 470 l 1,6,-1
 605 470 l 1,7,-1
 605 230 l 1,0,-1
EndSplineSet
Colour: ff0000
EndChar
StartChar: uni2549
Encoding: 9545 9545 1342
Width: 600
Flags: W
LayerCount: 2
Fore
SplineSet
420 390 m 1,0,-1
 605 390 l 1,1,-1
 605 310 l 1,2,-1
 420 310 l 1,3,-1
 420 -500 l 1,4,-1
 180 -500 l 1,5,-1
 180 230 l 1,6,-1
 -5 230 l 1,7,-1
 -5 470 l 1,8,-1
 180 470 l 1,9,-1
 180 1000 l 1,10,-1
 420 1000 l 1,11,-1
 420 390 l 1,0,-1
EndSplineSet
Colour: ff0000
EndChar
StartChar: uni2550
Encoding: 9552 9552 1251
Width: 600
Flags: W
LayerCount: 2
Fore
SplineSet
605 390 m 1,0,-1
 -5 390 l 1,1,-1
 -5 470 l 1,2,-1
 605 470 l 1,3,-1
 605 390 l 1,0,-1
605 230 m 1,4,-1
 -5 230 l 1,5,-1
 -5 310 l 1,6,-1
 605 310 l 1,7,-1
 605 230 l 1,4,-1
EndSplineSet
Colour: ff0000
EndChar
StartChar: uni2554
Encoding: 9556 9556 1247
Width: 600
Flags: W
LayerCount: 2
Fore
SplineSet
605 390 m 1,0,-1
 260 390 l 1,1,-1
 260 -500 l 1,2,-1
 180 -500 l 1,3,-1
 180 470 l 1,4,-1
 605 470 l 1,5,-1
 605 390 l 1,0,-1
605 230 m 1,6,-1
 420 230 l 1,7,-1
 420 -500 l 1,8,-1
 340 -500 l 1,9,-1
 340 310 l 1,10,-1
 605 310 l 1,11,-1
 605 230 l 1,6,-1
EndSplineSet
Colour: ff0000
EndChar
StartChar: uni2556
Encoding: 9558 9558 1236
Width: 600
Flags: W
LayerCount: 2
Fore
SplineSet
420 -500 m 1,0,-1
 340 -500 l 1,1,-1
 340 310 l 1,2,-1
 260 310 l 1,3,-1
 260 -500 l 1,4,-1
 180 -500 l 1,5,-1
 180 310 l 1,6,-1
 -5 310 l 1,7,-1
 -5 390 l 1,8,-1
 420 390 l 1,9,-1
 420 -500 l 1,0,-1
EndSplineSet
Colour: ff0000
EndChar
StartChar: uni255A
Encoding: 9562 9562 1246
Width: 600
Flags: W
LayerCount: 2
Fore
SplineSet
260 310 m 1,0,-1
 605 310 l 1,1,-1
 605 230 l 1,2,-1
 180 230 l 1,3,-1
 180 1000 l 1,4,-1
 260 1000 l 1,5,-1
 260 310 l 1,0,-1
420 470 m 1,6,-1
 605 470 l 1,7,-1
 605 390 l 1,8,-1
 340 390 l 1,9,-1
 340 1000 l 1,10,-1
 420 1000 l 1,11,-1
 420 470 l 1,6,-1
EndSplineSet
Colour: ff0000
EndChar
StartChar: uni2569
Encoding: 9577 9577 1248
Width: 600
Flags: W
LayerCount: 2
Fore
SplineSet
260 390 m 1,0,-1
 -5 390 l 1,1,-1
 -5 470 l 1,2,-1
 180 470 l 1,3,-1
 180 1000 l 1,4,-1
 260 1000 l 1,5,-1
 260 390 l 1,0,-1
420 470 m 1,6,-1
 605 470 l 1,7,-1
 605 390 l 1,8,-1
 340 390 l 1,9,-1
 340 1000 l 1,10,-1
 420 1000 l 1,11,-1
 420 470 l 1,6,-1
605 230 m 1,12,-1
 -5 230 l 1,13,-1
 -5 310 l 1,14,-1
 605 310 l 1,15,-1
 605 230 l 1,12,-1
EndSplineSet
Colour: ff0000
EndChar
StartChar: uni2572
Encoding: 9586 9586 1326
Width: 600
Flags: W
LayerCount: 2
Fore
SplineSet
544 163 m 1,0,-1
 487 106 l 1,1,-1
 56 537 l 1,2,-1
 113 594 l 1,3,-1
 544 163 l 1,0,-1
EndSplineSet
Colour: ff0000
EndChar
StartChar: uni2573
Encoding: 9587 9587 1325
Width: 600
Flags: W
LayerCount: 2
Fore
SplineSet
544 537 m 1,0,-1
 357 350 l 1,1,-1
 544 163 l 1,2,-1
 487 106 l 1,3,-1
 300 293 l 1,4,-1
 113 106 l 1,5,-1
 56 163 l 1,6,-1
 243 350 l 1,7,-1
 56 537 l 1,8,-1
 113 594 l 1,9,-1
 300 407 l 1,10,-1
 487 594 l 1,11,-1
 544 537 l 1,0,-1
EndSplineSet
Colour: ff0000
EndChar
StartChar: uni2575
Encoding: 9589 9589 1334
Width: 600
Flags: W
LayerCount: 2
Fore
SplineSet
340 -500 m 1,0,-1
 260 -500 l 1,1,-1
 260 390 l 1,2,-1
 340 390 l 1,3,-1
 340 -500 l 1,0,-1
EndSplineSet
Colour: ff0000
EndChar
StartChar: uni2576
Encoding: 9590 9590 1333
Width: 600
Flags: W
LayerCount: 2
Fore
SplineSet
605 310 m 1,0,-1
 260 310 l 1,1,-1
 260 390 l 1,2,-1
 605 390 l 1,3,-1
 605 310 l 1,0,-1
EndSplineSet
Colour: ff0000
EndChar
StartChar: uni257D
Encoding: 9597 9597 1335
Width: 600
Flags: W
LayerCount: 2
Fore
SplineSet
340 390 m 1,0,-1
 420 390 l 1,1,-1
 420 -500 l 1,2,-1
 180 -500 l 1,3,-1
 180 390 l 1,4,-1
 260 390 l 1,5,-1
 260 1000 l 1,6,-1
 340 1000 l 1,7,-1
 340 390 l 1,0,-1
EndSplineSet
Colour: ff0000
EndChar
StartChar: uni2596
Encoding: 9622 9622 1178
Width: 600
Flags: W
LayerCount: 2
Fore
SplineSet
300 -500 m 1,0,-1
 0 -500 l 1,1,-1
 0 250 l 1,2,-1
 300 250 l 1,3,-1
 300 -500 l 1,0,-1
EndSplineSet
Colour: ff0000
EndChar
StartChar: uni259A
Encoding: 9626 9626 1182
Width: 600
Flags: W
LayerCount: 2
Fore
SplineSet
300 251 m 1,0,-1
 600 251 l 1,1,-1
 600 -500 l 1,2,-1
 300 -500 l 1,3,-1
 300 250 l 1,4,-1
 0 250 l 1,5,-1
 0 1000 l 1,6,-1
 300 1000 l 1,7,-1
 300 251 l 1,0,-1
EndSplineSet
Colour: ff0000
EndChar
StartChar: uni259E
Encoding: 9630 9630 1186
Width: 600
Flags: W
LayerCount: 2
Fore
SplineSet
600 251 m 1,0,-1
 300 251 l 1,1,-1
 300 1000 l 1,2,-1
 600 1000 l 1,3,-1
 600 251 l 1,0,-1
300 -500 m 1,4,-1
 0 -500 l 1,5,-1
 0 250 l 1,6,-1
 300 250 l 1,7,-1
 300 -500 l 1,4,-1
EndSplineSet
Colour: ff0000
EndChar
StartChar: uni25AA
Encoding: 9642 9642 1267
Width: 600
Flags: W
LayerCount: 2
Fore
SplineSet
427 0 m 1,0,-1
 142 0 l 1,1,-1
 142 270 l 1,2,-1
 427 270 l 1,3,-1
 427 0 l 1,0,-1
EndSplineSet
Colour: ff0000
EndChar
StartChar: uni25AF
Encoding: 9647 9647 1222
Width: 600
Flags: W
LayerCount: 2
Fore
SplineSet
427 0 m 1,0,-1
 142 0 l 1,1,-1
 142 540 l 1,2,-1
 427 540 l 1,3,-1
 427 0 l 1,0,-1
222 460 m 1,4,-1
 222 80 l 1,5,-1
 347 80 l 1,6,-1
 347 460 l 1,7,-1
 222 460 l 1,4,-1
EndSplineSet
Colour: ff0000
EndChar
StartChar: triagrt
Encoding: 9658 9658 1280
Width: 600
Flags: W
LayerCount: 2
Fore
SplineSet
570 270 m 1,0,-1
 30 0 l 1,1,-1
 30 540 l 1,2,-1
 570 270 l 1,0,-1
EndSplineSet
Colour: ff0000
EndChar
StartChar: uni25DC
Encoding: 9692 9692 1212
Width: 600
Flags: W
LayerCount: 2
Fore
SplineSet
300 460 m 1,0,1
 248 460 248 460 204.5 434.5 c 128,-1,2
 161 409 161 409 135.5 365 c 128,-1,3
 110 321 110 321 110 270 c 1,4,-1
 30 270 l 1,5,6
 30 343 30 343 66 405 c 128,-1,7
 102 467 102 467 164 503.5 c 128,-1,8
 226 540 226 540 300 540 c 1,9,-1
 300 460 l 1,0,1
EndSplineSet
Colour: ff0000
EndChar
StartChar: uni25DF
Encoding: 9695 9695 1215
Width: 600
Flags: W
LayerCount: 2
Fore
SplineSet
533.5 134 m 128,-1,1
 497 72 497 72 435 36 c 128,-1,2
 373 0 373 0 300 0 c 1,3,-1
 300 80 l 1,4,5
 351 80 351 80 395 105.5 c 128,-1,6
 439 131 439 131 464.5 174.5 c 128,-1,7
 490 218 490 218 490 270 c 1,8,-1
 570 270 l 1,9,0
 570 196 570 196 533.5 134 c 128,-1,1
EndSplineSet
Colour: ff0000
EndChar
StartChar: uni25E2
Encoding: 9698 9698 1283
Width: 600
Flags: W
LayerCount: 2
Fore
SplineSet
570 0 m 1,0,-1
 30 0 l 1,1,-1
 570 540 l 1,2,-1
 570 0 l 1,0,-1
EndSplineSet
Colour: ff0000
EndChar
StartChar: uni25E4
Encoding: 9700 9700 1285
Width: 600
Flags: W
LayerCount: 2
Fore
SplineSet
30 0 m 1,0,-1
 30 540 l 1,1,-1
 570 540 l 1,2,-1
 30 0 l 1,0,-1
EndSplineSet
Colour: ff0000
EndChar
StartChar: uni25E7
Encoding: 9703 9703 1269
Width: 600
Flags: W
LayerCount: 2
Fore
SplineSet
570 0 m 1,0,-1
 30 0 l 1,1,-1
 30 540 l 1,2,-1
 570 540 l 1,3,-1
 570 0 l 1,0,-1
300 460 m 1,4,-1
 300 80 l 1,5,-1
 490 80 l 1,6,-1
 490 460 l 1,7,-1
 300 460 l 1,4,-1
EndSplineSet
Colour: ff0000
EndChar
StartChar: uni25EF
Encoding: 9711 9711 1193
Width: 600
Flags: W
LayerCount: 2
Fore
SplineSet
435 503.5 m 128,-1,1
 497 467 497 467 533.5 405 c 128,-1,2
 570 343 570 343 570 270 c 0,3,4
 570 196 570 196 533.5 134 c 128,-1,5
 497 72 497 72 435 36 c 128,-1,6
 373 0 373 0 300 0 c 0,7,8
 226 0 226 0 164 36 c 128,-1,9
 102 72 102 72 66 134 c 128,-1,10
 30 196 30 196 30 270 c 0,11,12
 30 343 30 343 66 405 c 128,-1,13
 102 467 102 467 164 503.5 c 128,-1,14
 226 540 226 540 300 540 c 0,15,0
 373 540 373 540 435 503.5 c 128,-1,1
204.5 434.5 m 128,-1,17
 161 409 161 409 135.5 365 c 128,-1,18
 110 321 110 321 110 270 c 0,19,20
 110 218 110 218 135.5 174.5 c 128,-1,21
 161 131 161 131 204.5 105.5 c 128,-1,22
 248 80 248 80 300 80 c 0,23,24
 351 80 351 80 395 105.5 c 128,-1,25
 439 131 439 131 464.5 174.5 c 128,-1,26
 490 218 490 218 490 270 c 0,27,28
 490 321 490 321 464 364.5 c 128,-1,29
 438 408 438 408 394.5 434 c 128,-1,30
 351 460 351 460 300 460 c 0,31,16
 248 460 248 460 204.5 434.5 c 128,-1,17
EndSplineSet
Colour: ff0000
EndChar
StartChar: uni25F5
Encoding: 9717 9717 1202
Width: 600
Flags: W
LayerCount: 2
Fore
SplineSet
435 503.5 m 128,-1,1
 497 467 497 467 533.5 405 c 128,-1,2
 570 343 570 343 570 270 c 0,3,4
 570 196 570 196 533.5 134 c 128,-1,5
 497 72 497 72 435 36 c 128,-1,6
 373 0 373 0 300 0 c 0,7,8
 226 0 226 0 164 36 c 128,-1,9
 102 72 102 72 66 134 c 128,-1,10
 30 196 30 196 30 270 c 0,11,12
 30 343 30 343 66 405 c 128,-1,13
 102 467 102 467 164 503.5 c 128,-1,14
 226 540 226 540 300 540 c 0,15,0
 373 540 373 540 435 503.5 c 128,-1,1
180.5 417.5 m 128,-1,17
 128 375 128 375 114 310 c 1,18,-1
 340 310 l 1,19,-1
 340 84 l 1,20,21
 405 98 405 98 447.5 150.5 c 128,-1,22
 490 203 490 203 490 270 c 0,23,24
 490 321 490 321 464 364.5 c 128,-1,25
 438 408 438 408 394.5 434 c 128,-1,26
 351 460 351 460 300 460 c 0,27,16
 233 460 233 460 180.5 417.5 c 128,-1,17
114 230 m 1,28,29
 126 175 126 175 165.5 135 c 128,-1,30
 205 95 205 95 260 84 c 1,31,-1
 260 230 l 1,32,-1
 114 230 l 1,28,29
EndSplineSet
Colour: ff0000
EndChar
StartChar: sun
Encoding: 9788 9788 1366
Width: 600
Flags: W
LayerCount: 2
Fore
SplineSet
324 420 m 1,0,1
 360 416 360 416 392 393 c 1,2,-1
 473 475 l 1,3,-1
 509 439 l 1,4,-1
 428 359 l 1,5,6
 453 328 453 328 459 287 c 1,7,-1
 570 287 l 1,8,-1
 570 240 l 1,9,-1
 459 240 l 1,10,11
 453 200 453 200 430 171 c 1,12,-1
 509 93 l 1,13,-1
 473 57 l 1,14,-1
 394 137 l 1,15,16
 362 116 362 116 324 110 c 1,17,-1
 324 0 l 1,18,-1
 276 0 l 1,19,-1
 276 110 l 1,20,21
 236 116 236 116 206 137 c 1,22,-1
 127 57 l 1,23,-1
 91 93 l 1,24,-1
 170 171 l 1,25,26
 146 205 146 205 141 240 c 1,27,-1
 30 240 l 1,28,-1
 30 287 l 1,29,-1
 141 287 l 1,30,31
 147 327 147 327 171 359 c 1,32,-1
 91 439 l 1,33,-1
 127 475 l 1,34,-1
 207 393 l 1,35,36
 240 416 240 416 276 420 c 1,37,-1
 276 527 l 1,38,-1
 324 527 l 1,39,-1
 324 420 l 1,0,1
221.5 344 m 128,-1,41
 191 312 191 312 191 264 c 256,42,43
 191 216 191 216 221.5 184.5 c 128,-1,44
 252 153 252 153 300 153 c 256,45,46
 348 153 348 153 379 184.5 c 128,-1,47
 410 216 410 216 410 264 c 256,48,49
 410 312 410 312 379 344 c 128,-1,50
 348 376 348 376 300 376 c 256,51,40
 252 376 252 376 221.5 344 c 128,-1,41
EndSplineSet
Colour: ff0000
EndChar
StartChar: spade
Encoding: 9824 9824 1369
Width: 600
Flags: W
LayerCount: 2
Fore
SplineSet
434 411.5 m 128,-1,1
 477 368 477 368 503.5 325 c 128,-1,2
 530 282 530 282 530 239 c 0,3,4
 530 191 530 191 503.5 162.5 c 128,-1,5
 477 134 477 134 432 134 c 0,6,7
 394 134 394 134 366.5 150 c 128,-1,8
 339 166 339 166 318 200 c 1,9,-1
 334 65 l 1,10,-1
 490 65 l 1,11,-1
 530 0 l 1,12,-1
 70 0 l 1,13,-1
 110 65 l 1,14,-1
 266 65 l 1,15,-1
 282 200 l 1,16,17
 261 166 261 166 233.5 150 c 128,-1,18
 206 134 206 134 168 134 c 0,19,20
 123 134 123 134 96.5 162.5 c 128,-1,21
 70 191 70 191 70 239 c 0,22,23
 70 282 70 282 96.5 325 c 128,-1,24
 123 368 123 368 166 411.5 c 128,-1,25
 209 455 209 455 300 539 c 1,26,0
 391 455 391 455 434 411.5 c 128,-1,1
EndSplineSet
Colour: ff0000
EndChar
StartChar: musicalnote
Encoding: 9834 9834 1373
Width: 600
Flags: W
LayerCount: 2
Fore
SplineSet
385 496 m 2,0,1
 430 466 430 466 448 439 c 128,-1,2
 466 412 466 412 466 373 c 0,3,4
 466 333 466 333 448 295 c 1,5,-1
 419 307 l 1,6,7
 419 366 419 366 407 394.5 c 128,-1,8
 395 423 395 423 361 445 c 2,9,-1
 338 460 l 1,10,-1
 338 78 l 2,11,12
 338 58 338 58 322 37 c 128,-1,13
 306 16 306 16 277.5 2 c 128,-1,14
 249 -12 249 -12 214 -12 c 0,15,16
 165 -12 165 -12 137 6 c 128,-1,17
 109 24 109 24 109 58 c 0,18,19
 109 96 109 96 145.5 122 c 128,-1,20
 182 148 182 148 234 148 c 0,21,22
 266 148 266 148 290 135 c 1,23,-1
 290 527 l 1,24,-1
 338 527 l 1,25,-1
 385 496 l 2,0,1
EndSplineSet
Colour: ff0000
EndChar
StartChar: uniE001
Encoding: 57345 57345 1482
Width: 0
Flags: W
LayerCount: 2
Fore
SplineSet
346 621.5 m 128,-1,1
 374 653 374 653 418 679 c 128,-1,2
 462 705 462 705 514 705 c 0,3,4
 544 705 544 705 577 697.5 c 128,-1,5
 610 690 610 690 633 682 c 1,6,-1
 634 678 l 1,7,8
 614 662 614 662 611 643 c 1,9,-1
 617 642 l 1,10,11
 680 664 680 664 715 674.5 c 128,-1,12
 750 685 750 685 783 685 c 0,13,14
 811 685 811 685 828 656 c 1,15,-1
 823 656 l 1,16,17
 810 664 810 664 785 664 c 0,18,19
 753 664 753 664 702.5 647 c 128,-1,20
 652 630 652 630 594 607 c 1,21,-1
 592 602 l 1,22,-1
 669 589 l 1,23,24
 670 586 670 586 674.5 575 c 128,-1,25
 679 564 679 564 688.5 550.5 c 128,-1,26
 698 537 698 537 712 529 c 1,27,-1
 724 529 l 1,28,29
 704 552 704 552 704 574 c 0,30,31
 704 600 704 600 723 610.5 c 128,-1,32
 742 621 742 621 763 621 c 0,33,34
 777 621 777 621 779 619 c 1,35,-1
 777 615 l 1,36,37
 733 604 733 604 733 577 c 0,38,39
 733 551 733 551 771 533 c 128,-1,40
 809 515 809 515 876 515 c 1,41,-1
 878 520 l 1,42,-1
 834 573 l 1,43,-1
 838 574 l 1,44,45
 902 520 902 520 986 491 c 1,46,-1
 1011 482 l 2,47,48
 1061 465 1061 465 1086.5 454 c 128,-1,49
 1112 443 1112 443 1119 433 c 1,50,51
 1119 427 1119 427 1114.5 421 c 128,-1,52
 1110 415 1110 415 1105 409 c 0,53,54
 1097 401 1097 401 1093.5 396 c 128,-1,55
 1090 391 1090 391 1090 384 c 0,56,57
 1090 367 1090 367 1121 331 c 1,58,-1
 1127 331 l 1,59,60
 1125 351 1125 351 1125 354 c 0,61,62
 1125 373 1125 373 1133 373 c 0,63,64
 1139 373 1139 373 1143 358.5 c 128,-1,65
 1147 344 1147 344 1147 328 c 0,66,67
 1147 313 1147 313 1143.5 300 c 128,-1,68
 1140 287 1140 287 1138 284 c 1,69,70
 1126 285 1126 285 1086.5 291 c 128,-1,71
 1047 297 1047 297 1011 306 c 0,72,73
 958 319 958 319 872 374.5 c 128,-1,74
 786 430 786 430 711 492 c 1,75,-1
 661 513 l 1,76,-1
 658 510 l 1,77,-1
 711 450 l 2,78,79
 717 444 717 444 723 433.5 c 128,-1,80
 729 423 729 423 729 416 c 0,81,82
 729 404 729 404 722 389 c 128,-1,83
 715 374 715 374 711 368 c 1,84,-1
 692 400 l 1,85,-1
 687 455 l 1,86,-1
 682 455 l 1,87,88
 668 410 668 410 668 375 c 256,89,90
 668 340 668 340 684 316.5 c 128,-1,91
 700 293 700 293 714 284 c 128,-1,92
 728 275 728 275 748 265 c 1,93,94
 777 258 777 258 800 256 c 1,95,-1
 801 260 l 1,96,97
 798 262 798 262 786 272.5 c 128,-1,98
 774 283 774 283 767.5 294 c 128,-1,99
 761 305 761 305 761 316 c 0,100,101
 761 320 761 320 762 323 c 1,102,-1
 765 323 l 1,103,104
 788 284 788 284 870 255 c 0,105,106
 921 237 921 237 975 223 c 0,107,108
 996 218 996 218 1005.5 214 c 128,-1,109
 1015 210 1015 210 1027 200 c 1,110,111
 1022 197 1022 197 1007 189 c 128,-1,112
 992 181 992 181 980 180 c 1,113,114
 963 183 963 183 914 201 c 128,-1,115
 865 219 865 219 841 232 c 1,116,117
 832 228 832 228 771 213.5 c 128,-1,118
 710 199 710 199 693 198 c 1,119,120
 647 204 647 204 609 228.5 c 128,-1,121
 571 253 571 253 547 281 c 1,122,-1
 537 284 l 1,123,124
 537 264 537 264 550 239.5 c 128,-1,125
 563 215 563 215 579 196 c 128,-1,126
 595 177 595 177 600 174 c 2,127,-1
 639 158 l 1,128,-1
 639 153 l 1,129,130
 611 137 611 137 592.5 119 c 128,-1,131
 574 101 574 101 574 76 c 1,132,-1
 580 75 l 1,133,134
 592 85 592 85 612.5 94.5 c 128,-1,135
 633 104 633 104 643 105 c 1,136,-1
 644 103 l 1,137,-1
 627 77 l 1,138,139
 627 54 627 54 620 34 c 1,140,141
 608 34 608 34 579 48.5 c 128,-1,142
 550 63 550 63 535 75 c 1,143,-1
 531 72 l 1,144,145
 536 55 536 55 558 28 c 128,-1,146
 580 1 580 1 600 -14 c 1,147,148
 595 -24 595 -24 591 -31.5 c 128,-1,149
 587 -39 587 -39 585 -42 c 1,150,151
 578 -38 578 -38 559.5 -26 c 128,-1,152
 541 -14 541 -14 524 -2 c 1,153,-1
 520 -6 l 1,154,155
 528 -22 528 -22 540.5 -42 c 128,-1,156
 553 -62 553 -62 562 -72 c 1,157,-1
 562 -74 l 1,158,159
 509 -74 509 -74 431.5 -48 c 128,-1,160
 354 -22 354 -22 298 25 c 1,161,-1
 362 63 l 1,162,-1
 359 68 l 1,163,-1
 273 49 l 1,164,-1
 267 54 l 1,165,166
 273 57 273 57 302.5 70.5 c 128,-1,167
 332 84 332 84 355 97.5 c 128,-1,168
 378 111 378 111 384 121 c 1,169,-1
 380 125 l 1,170,171
 368 123 368 123 343.5 122 c 128,-1,172
 319 121 319 121 311 121 c 0,173,174
 310 121 310 121 309 124.5 c 128,-1,175
 308 128 308 128 308 136 c 0,176,177
 308 151 308 151 322 173 c 0,178,179
 323 176 323 176 329 187 c 128,-1,180
 335 198 335 198 335 210 c 0,181,182
 335 228 335 228 299 275 c 0,183,184
 281 299 281 299 279 303 c 0,185,186
 268 321 268 321 259.5 346.5 c 128,-1,187
 251 372 251 372 251 398 c 0,188,189
 251 404 251 404 253 418 c 1,190,-1
 255 419 l 1,191,-1
 265 403 l 1,192,-1
 270 404 l 1,193,194
 273 429 273 429 277 443 c 1,195,-1
 279 443 l 1,196,197
 280 440 280 440 284 428.5 c 128,-1,198
 288 417 288 417 294.5 406.5 c 128,-1,199
 301 396 301 396 309 390 c 1,200,-1
 313 394 l 1,201,202
 306 416 306 416 306 444 c 0,203,204
 306 484 306 484 322.5 518.5 c 128,-1,205
 339 553 339 553 368 574 c 1,206,-1
 367 579 l 1,207,208
 341 576 341 576 310 567 c 1,209,-1
 308 570 l 1,210,0
 318 590 318 590 346 621.5 c 128,-1,1
434 577.5 m 128,-1,212
 447 588 447 588 460 592 c 1,213,214
 460 567 460 567 470.5 554 c 128,-1,215
 481 541 481 541 498 529 c 1,216,-1
 504 529 l 1,217,218
 501 543 501 543 501 555 c 0,219,220
 501 576 501 576 506 592.5 c 128,-1,221
 511 609 511 609 514 616 c 1,222,-1
 565 642 l 1,223,-1
 570 649 l 1,224,225
 567 650 567 650 556 652 c 128,-1,226
 545 654 545 654 530 654 c 0,227,228
 439 654 439 654 414 567 c 1,229,-1
 418 563 l 1,230,211
 421 567 421 567 434 577.5 c 128,-1,212
513.5 476.5 m 128,-1,232
 536 479 536 479 564 479 c 0,233,234
 584 479 584 479 607.5 475.5 c 128,-1,235
 631 472 631 472 638 470 c 1,236,-1
 641 473 l 1,237,-1
 614 522 l 1,238,-1
 614 526 l 1,239,240
 649 532 649 532 654 533 c 1,241,-1
 655 537 l 1,242,243
 640 553 640 553 622.5 564 c 128,-1,244
 605 575 605 575 592.5 580.5 c 128,-1,245
 580 586 580 586 576 587 c 1,246,-1
 575 583 l 1,247,-1
 602 549 l 1,248,-1
 602 547 l 1,249,250
 589 547 589 547 566 543 c 128,-1,251
 543 539 543 539 535 538 c 1,252,-1
 534 534 l 1,253,-1
 565 517 l 1,254,-1
 565 514 l 1,255,256
 541 510 541 510 517 499 c 128,-1,257
 493 488 493 488 479 476 c 1,258,-1
 485 473 l 1,259,231
 491 474 491 474 513.5 476.5 c 128,-1,232
748 526 m 1,260,-1
 730 525 l 1,261,262
 752 507 752 507 770 498.5 c 128,-1,263
 788 490 788 490 807 490 c 0,264,265
 824 490 824 490 836 495 c 1,266,-1
 841 503 l 1,267,-1
 801 506 l 1,268,-1
 748 526 l 1,260,-1
EndSplineSet
Colour: ff0000
EndChar
StartChar: fl
Encoding: 64258 64258 274
Width: 600
Flags: W
LayerCount: 2
Fore
SplineSet
504 -17 m 0,1,2
 430 -17 430 -17 390.5 23.5 c 128,-1,3
 351 64 351 64 351 142 c 2,4,-1
 351 639 l 1,5,6
 330 645 330 645 305 645 c 0,7,8
 264 645 264 645 246.5 627 c 128,-1,9
 229 609 229 609 229 569 c 2,10,-1
 229 531 l 1,11,-1
 312 531 l 1,12,-1
 295 421 l 1,13,-1
 229 421 l 1,14,-1
 229 0 l 1,15,-1
 77 0 l 1,16,-1
 77 421 l 1,17,-1
 6 421 l 1,18,-1
 6 531 l 1,19,-1
 77 531 l 1,20,-1
 77 574 l 2,21,22
 77 627 77 627 102 669 c 128,-1,23
 127 711 127 711 174.5 735 c 128,-1,24
 222 759 222 759 289 759 c 0,25,26
 341 759 341 759 395 742 c 1,27,-1
 503 758 l 1,28,-1
 503 156 l 2,29,30
 503 130 503 130 512.5 119 c 128,-1,31
 522 108 522 108 540 108 c 0,32,33
 554 108 554 108 576 116 c 1,34,-1
 607 3 l 1,35,0
 558 -17 558 -17 504 -17 c 0,1,2
EndSplineSet
Colour: ff0000
EndChar
StartChar: acute.case.loclPLK
Encoding: 1114241 -1 1455
Width: 600
Flags: W
LayerCount: 2
Fore
SplineSet
412 895 m 1,0,-1
 265 739 l 1,1,-1
 189 787 l 1,2,-1
 290 972 l 1,3,-1
 412 895 l 1,0,-1
EndSplineSet
Colour: ff0000
EndChar
StartChar: acute.loclPLK
Encoding: 1114240 -1 1454
Width: 600
Flags: W
LayerCount: 2
Fore
SplineSet
412 747 m 1,0,-1
 265 581 l 1,1,-1
 189 629 l 1,2,-1
 290 825 l 1,3,-1
 412 747 l 1,0,-1
EndSplineSet
Colour: ff0000
EndChar
StartChar: brevecy.case
Encoding: 1114246 -1 1480
Width: 600
Flags: W
LayerCount: 2
Fore
SplineSet
179 783 m 128,-1,1
 135 828 135 828 128 893 c 1,2,-1
 215 908 l 1,3,4
 222 879 222 879 244 863 c 128,-1,5
 266 847 266 847 300 847 c 256,6,7
 334 847 334 847 356 863 c 128,-1,8
 378 879 378 879 385 908 c 1,9,-1
 472 893 l 1,10,11
 465 828 465 828 421 783 c 128,-1,12
 377 738 377 738 300 738 c 256,13,0
 223 738 223 738 179 783 c 128,-1,1
EndSplineSet
Colour: ff0000
EndChar
StartChar: dieresis.case
Encoding: 1114233 -1 1447
Width: 600
Flags: W
LayerCount: 2
Fore
SplineSet
131 785 m 128,-1,1
 107 808 107 808 107 842 c 256,2,3
 107 876 107 876 131 899 c 128,-1,4
 155 922 155 922 189 922 c 0,5,6
 224 922 224 922 247.5 899 c 128,-1,7
 271 876 271 876 271 842 c 256,8,9
 271 808 271 808 247.5 785 c 128,-1,10
 224 762 224 762 189 762 c 0,11,0
 155 762 155 762 131 785 c 128,-1,1
362.5 785.5 m 128,-1,13
 338 809 338 809 338 842 c 256,14,15
 338 875 338 875 362.5 898.5 c 128,-1,16
 387 922 387 922 421 922 c 0,17,18
 456 922 456 922 479.5 899 c 128,-1,19
 503 876 503 876 503 842 c 256,20,21
 503 808 503 808 479.5 785 c 128,-1,22
 456 762 456 762 421 762 c 0,23,12
 387 762 387 762 362.5 785.5 c 128,-1,13
EndSplineSet
EndChar
StartChar: dotaccent.case
Encoding: 1114234 -1 1448
Width: 600
Flags: W
LayerCount: 2
Fore
SplineSet
371.5 908.5 m 128,-1,1
 398 883 398 883 398 845 c 256,2,3
 398 807 398 807 371.5 781.5 c 128,-1,4
 345 756 345 756 305 756 c 0,5,6
 263 756 263 756 237 781 c 128,-1,7
 211 806 211 806 211 845 c 0,8,9
 211 883 211 883 237.5 908.5 c 128,-1,10
 264 934 264 934 305 934 c 0,11,0
 345 934 345 934 371.5 908.5 c 128,-1,1
EndSplineSet
Colour: ff0000
EndChar
StartChar: equal.dnom
Encoding: 1114193 -1 1113
Width: 600
Flags: W
LayerCount: 2
Fore
SplineSet
439 190 m 1,0,-1
 161 190 l 1,1,-1
 161 273 l 1,2,-1
 439 273 l 1,3,-1
 439 190 l 1,0,-1
439 61 m 1,4,-1
 161 61 l 1,5,-1
 161 143 l 1,6,-1
 439 143 l 1,7,-1
 439 61 l 1,4,-1
EndSplineSet
Colour: ff0000
EndChar
StartChar: five.dnom
Encoding: 1114142 -1 942
Width: 600
Flags: W
LayerCount: 2
Fore
SplineSet
414.5 24.5 m 128,-1,1
 371 -6 371 -6 295 -6 c 0,2,3
 200 -6 200 -6 142 47 c 1,4,-1
 205 102 l 1,5,6
 225 87 225 87 245 80.5 c 128,-1,7
 265 74 265 74 290 74 c 0,8,9
 314 74 314 74 326.5 83 c 128,-1,10
 339 92 339 92 339 107 c 256,11,12
 339 122 339 122 329 130.5 c 128,-1,13
 319 139 319 139 300 139 c 0,14,15
 273 139 273 139 253 128 c 1,16,-1
 177 128 l 1,17,-1
 177 321 l 1,18,-1
 441 321 l 1,19,-1
 429 244 l 1,20,-1
 281 244 l 1,21,-1
 281 201 l 1,22,23
 298 207 298 207 311 210 c 128,-1,24
 324 213 324 213 342 213 c 0,25,26
 393 213 393 213 425.5 185.5 c 128,-1,27
 458 158 458 158 458 107 c 0,28,0
 458 55 458 55 414.5 24.5 c 128,-1,1
EndSplineSet
Colour: ff0000
EndChar
StartChar: four.tosf
Encoding: 1114129 -1 912
Width: 600
Flags: W
LayerCount: 2
Fore
SplineSet
561 28 m 1,0,-1
 489 28 l 1,1,-1
 489 -112 l 1,2,-1
 336 -112 l 1,3,-1
 335 28 l 1,4,-1
 47 28 l 1,5,-1
 47 131 l 1,6,-1
 240 582 l 1,7,-1
 371 529 l 1,8,-1
 208 145 l 1,9,-1
 336 145 l 1,10,-1
 355 308 l 1,11,-1
 489 308 l 1,12,-1
 489 145 l 1,13,-1
 561 145 l 1,14,-1
 561 28 l 1,0,-1
EndSplineSet
Colour: ff0000
EndChar
StartChar: grave.case
Encoding: 1114235 -1 1449
Width: 600
Flags: W
LayerCount: 2
Fore
SplineSet
442 831 m 1,0,-1
 405 751 l 1,1,-1
 167 835 l 1,2,-1
 227 953 l 1,3,-1
 442 831 l 1,0,-1
EndSplineSet
EndChar
StartChar: nine.dnom
Encoding: 1114146 -1 946
Width: 600
Flags: W
LayerCount: 2
Fore
SplineSet
276.5 89.5 m 128,-1,1
 315 105 315 105 342 138 c 1,2,3
 315 124 315 124 294 118 c 128,-1,4
 273 112 273 112 250 112 c 0,5,6
 201 112 201 112 169.5 137 c 128,-1,7
 138 162 138 162 138 209 c 0,8,9
 138 263 138 263 184 295 c 128,-1,10
 230 327 230 327 302 327 c 0,11,12
 380 327 380 327 421 290 c 128,-1,13
 462 253 462 253 462 192 c 0,14,15
 462 103 462 103 395 54.5 c 128,-1,16
 328 6 328 6 195 -13 c 1,17,-1
 170 66 l 1,18,0
 238 74 238 74 276.5 89.5 c 128,-1,1
343 196 m 1,20,21
 342 224 342 224 332 237 c 128,-1,22
 322 250 322 250 298 250 c 0,23,24
 278 250 278 250 267 240.5 c 128,-1,25
 256 231 256 231 256 214 c 0,26,27
 256 182 256 182 295 182 c 0,28,19
 319 182 319 182 343 196 c 1,20,21
EndSplineSet
Colour: ff0000
EndChar
StartChar: nine.tosf
Encoding: 1114134 -1 917
Width: 600
Flags: W
LayerCount: 2
Fore
SplineSet
435.5 548 m 128,-1,1
 493 514 493 514 522 453.5 c 128,-1,2
 551 393 551 393 551 315 c 0,3,4
 551 187 551 187 506.5 99.5 c 128,-1,5
 462 12 462 12 369.5 -43.5 c 128,-1,6
 277 -99 277 -99 129 -130 c 1,7,-1
 96 -19 l 1,8,9
 229 15 229 15 300 64 c 128,-1,10
 371 113 371 113 386 191 c 1,11,12
 353 161 353 161 317.5 145.5 c 128,-1,13
 282 130 282 130 240 130 c 0,14,15
 186 130 186 130 141 157 c 128,-1,16
 96 184 96 184 70 232.5 c 128,-1,17
 44 281 44 281 44 342 c 0,18,19
 44 411 44 411 77 465.5 c 128,-1,20
 110 520 110 520 167.5 551 c 128,-1,21
 225 582 225 582 296 582 c 0,22,0
 378 582 378 582 435.5 548 c 128,-1,1
227 267 m 128,-1,24
 251 241 251 241 289 241 c 0,25,26
 317 241 317 241 340.5 251 c 128,-1,27
 364 261 364 261 388 281 c 1,28,29
 389 380 389 380 369.5 424.5 c 128,-1,30
 350 469 350 469 295 469 c 0,31,32
 252 469 252 469 227.5 437.5 c 128,-1,33
 203 406 203 406 203 347 c 0,34,23
 203 293 203 293 227 267 c 128,-1,24
EndSplineSet
Colour: ff0000
EndChar
StartChar: one.tosf
Encoding: 1114126 -1 909
Width: 600
Flags: W
LayerCount: 2
Fore
SplineSet
545 118 m 1,0,-1
 545 0 l 1,1,-1
 107 0 l 1,2,-1
 107 118 l 1,3,-1
 266 118 l 1,4,-1
 266 415 l 1,5,-1
 129 335 l 1,6,-1
 64 442 l 1,7,-1
 280 572 l 1,8,-1
 420 572 l 1,9,-1
 420 118 l 1,10,-1
 545 118 l 1,0,-1
EndSplineSet
Colour: ff0000
EndChar
StartChar: questiondown.case
Encoding: 1114158 -1 998
Width: 600
Flags: W
LayerCount: 2
Fore
SplineSet
381 684 m 128,-1,1
 408 657 408 657 408 619 c 0,2,3
 408 583 408 583 381 556.5 c 128,-1,4
 354 530 354 530 317 530 c 256,5,6
 280 530 280 530 253.5 556.5 c 128,-1,7
 227 583 227 583 227 619 c 0,8,9
 227 657 227 657 253.5 684 c 128,-1,10
 280 711 280 711 317 711 c 256,11,0
 354 711 354 711 381 684 c 128,-1,1
390 412 m 2,12,13
 390 366 390 366 375 333.5 c 128,-1,14
 360 301 360 301 339 281.5 c 128,-1,15
 318 262 318 262 286 240 c 0,16,17
 255 219 255 219 240.5 203.5 c 128,-1,18
 226 188 226 188 226 165 c 0,19,20
 226 138 226 138 248 123 c 128,-1,21
 270 108 270 108 305 108 c 0,22,23
 377 108 377 108 432 168 c 1,24,-1
 532 90 l 1,25,26
 438 -17 438 -17 290 -17 c 0,27,28
 217 -17 217 -17 165.5 5.5 c 128,-1,29
 114 28 114 28 87.5 66 c 128,-1,30
 61 104 61 104 61 150 c 0,31,32
 61 191 61 191 75.5 219.5 c 128,-1,33
 90 248 90 248 110.5 266.5 c 128,-1,34
 131 285 131 285 164 308 c 0,35,36
 206 337 206 337 226.5 361 c 128,-1,37
 247 385 247 385 247 423 c 2,38,-1
 247 443 l 1,39,-1
 390 443 l 1,40,-1
 390 412 l 2,12,13
EndSplineSet
Colour: ff0000
EndChar
StartChar: ring.case
Encoding: 1114238 -1 1452
Width: 600
Flags: W
LayerCount: 2
Fore
SplineSet
405 952 m 128,-1,1
 443 914 443 914 443 859 c 256,2,3
 443 804 443 804 404.5 765 c 128,-1,4
 366 726 366 726 304 726 c 256,5,6
 242 726 242 726 204 765 c 128,-1,7
 166 804 166 804 166 859 c 256,8,9
 166 914 166 914 204 952 c 128,-1,10
 242 990 242 990 304 990 c 0,11,0
 367 990 367 990 405 952 c 128,-1,1
272 895.5 m 128,-1,13
 260 883 260 883 260 859 c 0,14,15
 260 834 260 834 272 821 c 128,-1,16
 284 808 284 808 304 808 c 0,17,18
 325 808 325 808 337 821 c 128,-1,19
 349 834 349 834 349 859 c 0,20,21
 349 883 349 883 337 895.5 c 128,-1,22
 325 908 325 908 304 908 c 0,23,12
 284 908 284 908 272 895.5 c 128,-1,13
EndSplineSet
EndChar
StartChar: seven.dnom
Encoding: 1114144 -1 944
Width: 600
Flags: W
LayerCount: 2
Fore
SplineSet
188 33 m 1,0,-1
 328 240 l 1,1,-1
 154 240 l 1,2,-1
 154 321 l 1,3,-1
 447 321 l 1,4,-1
 447 254 l 1,5,-1
 293 -10 l 1,6,-1
 188 33 l 1,0,-1
EndSplineSet
Colour: ff0000
EndChar
StartChar: seven.numr
Encoding: 1114154 -1 954
Width: 600
Flags: W
LayerCount: 2
Fore
SplineSet
188 405 m 1,0,-1
 328 611 l 1,1,-1
 154 611 l 1,2,-1
 154 693 l 1,3,-1
 447 693 l 1,4,-1
 447 626 l 1,5,-1
 293 362 l 1,6,-1
 188 405 l 1,0,-1
EndSplineSet
Colour: ff0000
EndChar
StartChar: six.dnom
Encoding: 1114143 -1 943
Width: 600
Flags: W
LayerCount: 2
Fore
SplineSet
331 250 m 0,1,2
 265 250 265 250 258 183 c 1,3,4
 292 214 292 214 343 214 c 0,5,6
 395 214 395 214 428.5 187.5 c 128,-1,7
 462 161 462 161 462 113 c 0,8,9
 462 59 462 59 419 26.5 c 128,-1,10
 376 -6 376 -6 304 -6 c 0,11,12
 223 -6 223 -6 180.5 36 c 128,-1,13
 138 78 138 78 138 149 c 0,14,15
 138 228 138 228 188.5 277.5 c 128,-1,16
 239 327 239 327 328 327 c 0,17,18
 386 327 386 327 430 303 c 1,19,-1
 385 240 l 1,20,0
 358 250 358 250 331 250 c 0,1,2
259 122 m 1,22,23
 262 96 262 96 272.5 83.5 c 128,-1,24
 283 71 283 71 305 71 c 0,25,26
 345 71 345 71 345 108 c 0,27,28
 345 127 345 127 336.5 135.5 c 128,-1,29
 328 144 328 144 310 144 c 0,30,21
 284 144 284 144 259 122 c 1,22,23
EndSplineSet
Colour: ff0000
EndChar
StartChar: tonos.case
Encoding: 1114242 -1 1459
Width: 600
Flags: W
LayerCount: 2
Fore
SplineSet
394 693 m 1,0,-1
 307 467 l 1,1,-1
 206 485 l 1,2,-1
 244 724 l 1,3,-1
 394 693 l 1,0,-1
EndSplineSet
Colour: ff0000
EndChar
StartChar: two.dnom
Encoding: 1114139 -1 939
Width: 600
Flags: W
LayerCount: 2
Fore
SplineSet
412.5 149 m 128,-1,1
 382 118 382 118 300 82 c 1,2,-1
 455 82 l 1,3,-1
 442 0 l 1,4,-1
 157 0 l 1,5,-1
 157 73 l 1,6,7
 229 113 229 113 264.5 136.5 c 128,-1,8
 300 160 300 160 312 175.5 c 128,-1,9
 324 191 324 191 324 209 c 0,10,11
 324 225 324 225 313 235 c 128,-1,12
 302 245 302 245 283 245 c 256,13,14
 264 245 264 245 248.5 237 c 128,-1,15
 233 229 233 229 216 209 c 1,16,-1
 145 261 l 1,17,18
 205 327 205 327 301 327 c 0,19,20
 368 327 368 327 405.5 297 c 128,-1,21
 443 267 443 267 443 223 c 0,22,0
 443 180 443 180 412.5 149 c 128,-1,1
EndSplineSet
EndChar
StartChar: uni1FEF.case
Encoding: 1114243 -1 1476
Width: 600
Flags: W
LayerCount: 2
Fore
SplineSet
385 485 m 1,0,-1
 284 467 l 1,1,-1
 196 693 l 1,2,-1
 347 724 l 1,3,-1
 385 485 l 1,0,-1
EndSplineSet
Colour: ff0000
EndChar
StartChar: zero.dnom
Encoding: 1114137 -1 937
Width: 600
Flags: W
LayerCount: 2
Fore
SplineSet
415.5 37.5 m 128,-1,1
 373 -6 373 -6 301 -6 c 0,2,3
 228 -6 228 -6 185 37.5 c 128,-1,4
 142 81 142 81 142 160 c 0,5,6
 142 238 142 238 185 282.5 c 128,-1,7
 228 327 228 327 301 327 c 0,8,9
 373 327 373 327 415.5 283.5 c 128,-1,10
 458 240 458 240 458 160 c 0,11,0
 458 81 458 81 415.5 37.5 c 128,-1,1
333 229 m 128,-1,13
 324 248 324 248 301 248 c 256,14,15
 278 248 278 248 268 227.5 c 128,-1,16
 258 207 258 207 258 160 c 0,17,18
 258 114 258 114 268 93.5 c 128,-1,19
 278 73 278 73 301 73 c 256,20,21
 324 73 324 73 333 92.5 c 128,-1,22
 342 112 342 112 342 160 c 0,23,12
 342 210 342 210 333 229 c 128,-1,13
EndSplineSet
Colour: ff0000
EndChar
